<?xml version="1.0" encoding="UTF-8"?>
<!--
AniKanjiVG is licensed by CC-BY-SA Paul C. Sommerhoff (https://bitbucket.org/sommerhoff/anikanjivg).
AniKanjiVG uses KanjiVG which is licensed by CC-BY-SA Ulrich Apel (http://kanjivg.tagaini.net).
See also http://creativecommons.org/licenses/by-sa/3.0/
-->
<svg xmlns:kvg='http://kanjivg.tagaini.net' xmlns='http://www.w3.org/2000/svg' width='109' height='109' viewBox='0 0 109 109' style='fill:none;stroke:#000000;stroke-width:3;stroke-linecap:round;stroke-linejoin:round;' id="kvg:kanji_0533b"><g id="kvg:0533b" kvg:element="医"><g id="kvg:0533b-g1" kvg:element="匚" kvg:part="1" kvg:radical="general"><path id="kvg:0533b-s1" kvg:type="㇐" d="M 17.88,20.29 c 1.91,0.51 5.41,0.64 7.31,0.51 17.69,-1.18 38.69,-3.05 58.21,-3.51 3.18,-0.08 5.08,0.25 6.67,0.5"><animate attributeName="d" begin="0.0s" dur="1.0s" from="M 17.88,20.29 C 17.88,20.29 , 17.88,20.29 , 17.88,20.29 " to="M 17.88,20.29 c 1.91,0.51 5.41,0.64 7.31,0.51 17.69,-1.18 38.69,-3.05 58.21,-3.51 3.18,-0.08 5.08,0.25 6.67,0.5" />
</path>
</g>
<g id="kvg:0533b-g2" kvg:element="矢" kvg:variant="true"><path id="kvg:0533b-s2" kvg:type="㇒" d="M 48.05,26.75 c 0.04,0.48 0.07,1.24 -0.07,1.93 -0.85,4.08 -6.22,14.11 -11.57,17.82"><animate attributeName="d" begin="1.0s" dur="1.0s" from="M 48.05,26.75 C 48.05,26.75 , 48.05,26.75 , 48.05,26.75 " to="M 48.05,26.75 c 0.04,0.48 0.07,1.24 -0.07,1.93 -0.85,4.08 -6.22,14.11 -11.57,17.82" />
<animate attributeName="d" begin="0s" dur="1.0s" from="M-100,-100" to="M-100,-100" />
</path>
<g id="kvg:0533b-g3" kvg:element="天" kvg:variant="true"><path id="kvg:0533b-s3" kvg:type="㇐" d="M 47.12,38.02 c 1.17,0.28 3.33,0.41 4.48,0.28 6.77,-0.8 13.54,-1.92 21.98,-3.32 1.9,-0.32 3.64,-0.32 4.61,-0.18"><animate attributeName="d" begin="2.0s" dur="1.0s" from="M 47.12,38.02 C 47.12,38.02 , 47.12,38.02 , 47.12,38.02 " to="M 47.12,38.02 c 1.17,0.28 3.33,0.41 4.48,0.28 6.77,-0.8 13.54,-1.92 21.98,-3.32 1.9,-0.32 3.64,-0.32 4.61,-0.18" />
<animate attributeName="d" begin="0s" dur="2.0s" from="M-100,-100" to="M-100,-100" />
</path>
<g id="kvg:0533b-g4" kvg:element="大" kvg:variant="true"><path id="kvg:0533b-s4" kvg:type="㇐" d="M 32.39,56.74 c 2.47,0.48 5.17,0.4 7.67,0.17 10.06,-0.92 26.6,-2.98 38.22,-3.8 2.76,-0.19 5.72,-0.24 8.33,0.07"><animate attributeName="d" begin="3.0s" dur="1.0s" from="M 32.39,56.74 C 32.39,56.74 , 32.39,56.74 , 32.39,56.74 " to="M 32.39,56.74 c 2.47,0.48 5.17,0.4 7.67,0.17 10.06,-0.92 26.6,-2.98 38.22,-3.8 2.76,-0.19 5.72,-0.24 8.33,0.07" />
<animate attributeName="d" begin="0s" dur="3.0s" from="M-100,-100" to="M-100,-100" />
</path>
<path id="kvg:0533b-s5" kvg:type="㇒" d="M 57.92,40.43 c 0.58,1.07 0.81,2.39 0.81,3.53 C 58.75,61.25 52.25,74 36.06,81.18"><animate attributeName="d" begin="4.0s" dur="0.5s" from="M 57.92,40.43 C 57.92,40.43 , 57.92,40.43 , 57.92,40.43 " to="M 57.92,40.43 c 0.58,1.07 0.81,2.39 0.81,3.53 " />
<animate attributeName="d" begin="4.5s" dur="0.5s" from="M 57.92,40.43 c 0.58,1.07 0.81,2.39 0.81,3.53 c0,0,0,0,0,0,0" to="M 57.92,40.43 c 0.58,1.07 0.81,2.39 0.81,3.53 C 58.75,61.25 52.25,74 36.06,81.18" />
<animate attributeName="d" begin="0s" dur="4.0s" from="M-100,-100" to="M-100,-100" />
</path>
<path id="kvg:0533b-s6" kvg:type="㇔/㇏" d="M 61.03,60.17 C 66.83499,67.883722 79.23773,77.927914 87.25,81"><animate attributeName="d" begin="5.0s" dur="1.0s" from="M 61.03,60.17 C 61.03,60.17 , 61.03,60.17 , 61.03,60.17 " to="M 61.03,60.17 C 66.83499,67.883722 79.23773,77.927914 87.25,81" />
<animate attributeName="d" begin="0s" dur="5.0s" from="M-100,-100" to="M-100,-100" />
</path>
</g>
</g>
</g>
<g id="kvg:0533b-g5" kvg:element="匚" kvg:part="2" kvg:radical="general"><path id="kvg:0533b-s7" kvg:type="㇗" d="M 21.83,21.46 c 0.67,1.54 1,3.26 1,5.79 0,14.77 -0.33,47 -1.5,60.48 -0.26,3 1.01,3.97 2.81,3.8 16.11,-1.53 44.49,-2.91 60.2,-2.56 3.32,0.07 6.12,0.24 8.17,0.71"><animate attributeName="d" begin="6.0s" dur="1.0s" from="M 21.83,21.46 C 21.83,21.46 , 21.83,21.46 , 21.83,21.46 " to="M 21.83,21.46 c 0.67,1.54 1,3.26 1,5.79 0,14.77 -0.33,47 -1.5,60.48 -0.26,3 1.01,3.97 2.81,3.8 16.11,-1.53 44.49,-2.91 60.2,-2.56 3.32,0.07 6.12,0.24 8.17,0.71" />
<animate attributeName="d" begin="0s" dur="6.0s" from="M-100,-100" to="M-100,-100" />
</path>
</g>
</g>
</svg>