<?xml version="1.0" encoding="UTF-8"?>
<!--
AniKanjiVG is licensed by CC-BY-SA Paul C. Sommerhoff (https://bitbucket.org/sommerhoff/anikanjivg).
AniKanjiVG uses KanjiVG which is licensed by CC-BY-SA Ulrich Apel (http://kanjivg.tagaini.net).
See also http://creativecommons.org/licenses/by-sa/3.0/
-->
<svg xmlns:kvg='http://kanjivg.tagaini.net' xmlns='http://www.w3.org/2000/svg' width='109' height='109' viewBox='0 0 109 109' style='fill:none;stroke:#000000;stroke-width:3;stroke-linecap:round;stroke-linejoin:round;' id="kvg:kanji_05618"><g id="kvg:05618" kvg:element="嘘"><g id="kvg:05618-g1" kvg:element="口" kvg:position="left" kvg:radical="general"><path id="kvg:05618-s1" kvg:type="㇑" d="m13.25,34.02c0.77,0.92,1.19,1.99,1.25,3.2,0.76,4.78,1.55,11.56,2.2,17.64,0.2,1.9,0.39,3.74,0.56,5.42"><animate attributeName="d" begin="0.0s" dur="1.0s" from="m13.25,34.02C13.25,34.02,13.25,34.02,13.25,34.02" to="m13.25,34.02c0.77,0.92,1.19,1.99,1.25,3.2,0.76,4.78,1.55,11.56,2.2,17.64,0.2,1.9,0.39,3.74,0.56,5.42" />
</path>
<path id="kvg:05618-s2" kvg:type="㇕b" d="m15.38,36.16c7.16,-1.61,11.93,-2.69,15.63,-3.35,2.61,-0.46,4.58,0.43,4.1,3.46-0.82,5.16-1.77,12.46-2.96,19.05"><animate attributeName="d" begin="1.0s" dur="1.0s" from="m15.38,36.16C15.38,36.16,15.38,36.16,15.38,36.16" to="m15.38,36.16c7.16,-1.61,11.93,-2.69,15.63,-3.35,2.61,-0.46,4.58,0.43,4.1,3.46-0.82,5.16-1.77,12.46-2.96,19.05" />
<animate attributeName="d" begin="0s" dur="1.0s" from="M-100,-100" to="M-100,-100" />
</path>
<path id="kvg:05618-s3" kvg:type="㇐b" d="m17.92,58.15c3.61,-0.5,7.54,-1.03,12.21,-1.58,1.42,-0.17,2.89,-0.36,4.4,-0.6"><animate attributeName="d" begin="2.0s" dur="1.0s" from="m17.92,58.15C17.92,58.15,17.92,58.15,17.92,58.15" to="m17.92,58.15c3.61,-0.5,7.54,-1.03,12.21,-1.58,1.42,-0.17,2.89,-0.36,4.4,-0.6" />
<animate attributeName="d" begin="0s" dur="2.0s" from="M-100,-100" to="M-100,-100" />
</path>
</g>
<g id="kvg:05618-g2" kvg:element="虚" kvg:position="right" kvg:phon="虚"><g id="kvg:05618-g3" kvg:element="虍" kvg:position="tare"><path id="kvg:05618-s4" kvg:type="㇑a" d="m62.59,11.58c0.91,0.92,1.62,1.99,1.62,5.02,0,5.9-0.02,7.44-0.02,12.4"><animate attributeName="d" begin="3.0s" dur="1.0s" from="m62.59,11.58C62.59,11.58,62.59,11.58,62.59,11.58" to="m62.59,11.58c0.91,0.92,1.62,1.99,1.62,5.02,0,5.9-0.02,7.44-0.02,12.4" />
<animate attributeName="d" begin="0s" dur="3.0s" from="M-100,-100" to="M-100,-100" />
</path>
<path id="kvg:05618-s5" kvg:type="㇐b" d="m64.91,20.27c4.52,-0.77,9.07,-1.44,13.34,-2.01,1.36,-0.23,2.73,-0.23,4.12,0"><animate attributeName="d" begin="4.0s" dur="1.0s" from="m64.91,20.27C64.91,20.27,64.91,20.27,64.91,20.27" to="m64.91,20.27c4.52,-0.77,9.07,-1.44,13.34,-2.01,1.36,-0.23,2.73,-0.23,4.12,0" />
<animate attributeName="d" begin="0s" dur="4.0s" from="M-100,-100" to="M-100,-100" />
</path>
<path id="kvg:05618-s6" kvg:type="㇒" d="m44.68,31.18c0.82,0.82,1.25,2.5,1.1,4.57-1.66,21.72-3.03,38.75-14.28,58"><animate attributeName="d" begin="5.0s" dur="1.0s" from="m44.68,31.18C44.68,31.18,44.68,31.18,44.68,31.18" to="m44.68,31.18c0.82,0.82,1.25,2.5,1.1,4.57-1.66,21.72-3.03,38.75-14.28,58" />
<animate attributeName="d" begin="0s" dur="5.0s" from="M-100,-100" to="M-100,-100" />
</path>
<path id="kvg:05618-s7" kvg:type="㇖a" d="m45.34,31.72c1.52,0.4,3.03,0.44,4.53,0.12,11.94,-1.71,26.85,-2.83,38.66,-4.01,9.82,-0.98,2.09,6.66-0.37,8.78"><animate attributeName="d" begin="6.0s" dur="1.0s" from="m45.34,31.72C45.34,31.72,45.34,31.72,45.34,31.72" to="m45.34,31.72c1.52,0.4,3.03,0.44,4.53,0.12,11.94,-1.71,26.85,-2.83,38.66,-4.01,9.82,-0.98,2.09,6.66-0.37,8.78" />
<animate attributeName="d" begin="0s" dur="6.0s" from="M-100,-100" to="M-100,-100" />
</path>
<g id="kvg:05618-g4" kvg:element="七"><g id="kvg:05618-g5" kvg:element="一"><path id="kvg:05618-s8" kvg:type="㇐" d="m51.13,43.69c1.92,0.49,3.84,0.49,5.76,-0.01,6.14,-0.85,14.58,-2.31,20.88,-3.21,1.73,-0.52,3.7,-0.53,5.42,-0.04"><animate attributeName="d" begin="7.0s" dur="1.0s" from="m51.13,43.69C51.13,43.69,51.13,43.69,51.13,43.69" to="m51.13,43.69c1.92,0.49,3.84,0.49,5.76,-0.01,6.14,-0.85,14.58,-2.31,20.88,-3.21,1.73,-0.52,3.7,-0.53,5.42,-0.04" />
<animate attributeName="d" begin="0s" dur="7.0s" from="M-100,-100" to="M-100,-100" />
</path>
</g>
<path id="kvg:05618-s9" kvg:type="㇟a" d="m63.72,34.18c0.8,0.8,1.05,1.7,1.05,3.09,0,4.98-0.08,6.89-0.08,9.12,0,6.61,4.01,6.61,10.48,6.61,2.41,0,11.83,0,13.91,-0.89"><animate attributeName="d" begin="8.0s" dur="1.0s" from="m63.72,34.18C63.72,34.18,63.72,34.18,63.72,34.18" to="m63.72,34.18c0.8,0.8,1.05,1.7,1.05,3.09,0,4.98-0.08,6.89-0.08,9.12,0,6.61,4.01,6.61,10.48,6.61,2.41,0,11.83,0,13.91,-0.89" />
<animate attributeName="d" begin="0s" dur="8.0s" from="M-100,-100" to="M-100,-100" />
</path>
</g>
</g>
<path id="kvg:05618-s10" kvg:type="㇑" d="m61.64,59.33c1.01,1.01,1.35,2.42,1.35,4.73,0,10.44,0.05,23.98,0.05,28.65"><animate attributeName="d" begin="9.0s" dur="1.0s" from="m61.64,59.33C61.64,59.33,61.64,59.33,61.64,59.33" to="m61.64,59.33c1.01,1.01,1.35,2.42,1.35,4.73,0,10.44,0.05,23.98,0.05,28.65" />
<animate attributeName="d" begin="0s" dur="9.0s" from="M-100,-100" to="M-100,-100" />
</path>
<path id="kvg:05618-s11" kvg:type="㇑" d="m73.6,58.83c0.97,0.97,1.33,2.17,1.33,4.16,0,13.88-0.19,23.25-0.19,29.22"><animate attributeName="d" begin="10.0s" dur="1.0s" from="m73.6,58.83C73.6,58.83,73.6,58.83,73.6,58.83" to="m73.6,58.83c0.97,0.97,1.33,2.17,1.33,4.16,0,13.88-0.19,23.25-0.19,29.22" />
<animate attributeName="d" begin="0s" dur="10.0s" from="M-100,-100" to="M-100,-100" />
</path>
<path id="kvg:05618-s12" kvg:type="㇔" d="m49.29,70.75c1.76,2.38,4.54,9.77,4.98,13.47"><animate attributeName="d" begin="11.0s" dur="1.0s" from="m49.29,70.75C49.29,70.75,49.29,70.75,49.29,70.75" to="m49.29,70.75c1.76,2.38,4.54,9.77,4.98,13.47" />
<animate attributeName="d" begin="0s" dur="11.0s" from="M-100,-100" to="M-100,-100" />
</path>
<path id="kvg:05618-s13" kvg:type="㇒" d="m91.32,67.14c0.07,0.73-0.01,1.44-0.24,2.13-0.93,3.16-2.96,7.6-8.3,12.47"><animate attributeName="d" begin="12.0s" dur="1.0s" from="m91.32,67.14C91.32,67.14,91.32,67.14,91.32,67.14" to="m91.32,67.14c0.07,0.73-0.01,1.44-0.24,2.13-0.93,3.16-2.96,7.6-8.3,12.47" />
<animate attributeName="d" begin="0s" dur="12.0s" from="M-100,-100" to="M-100,-100" />
</path>
<g id="kvg:05618-g6" kvg:element="一"><path id="kvg:05618-s14" kvg:type="㇐" d="m42.38,95.01c3.04,0.65,6,0.38,9.11,0.08,10.13,-0.97,28.35,-2.12,38.38,-2.45,2.64,-0.25,5.27,-0.13,7.88,0.35"><animate attributeName="d" begin="13.0s" dur="1.0s" from="m42.38,95.01C42.38,95.01,42.38,95.01,42.38,95.01" to="m42.38,95.01c3.04,0.65,6,0.38,9.11,0.08,10.13,-0.97,28.35,-2.12,38.38,-2.45,2.64,-0.25,5.27,-0.13,7.88,0.35" />
<animate attributeName="d" begin="0s" dur="13.0s" from="M-100,-100" to="M-100,-100" />
</path>
</g>
</g>
</g>
</svg>