<?xml version="1.0" encoding="UTF-8"?>
<!--
AniKanjiVG is licensed by CC-BY-SA Paul C. Sommerhoff (https://bitbucket.org/sommerhoff/anikanjivg).
AniKanjiVG uses KanjiVG which is licensed by CC-BY-SA Ulrich Apel (http://kanjivg.tagaini.net).
See also http://creativecommons.org/licenses/by-sa/3.0/
-->
<svg xmlns:kvg='http://kanjivg.tagaini.net' xmlns='http://www.w3.org/2000/svg' width='109' height='109' viewBox='0 0 109 109' style='fill:none;stroke:#000000;stroke-width:3;stroke-linecap:round;stroke-linejoin:round;' id="kvg:kanji_05747"><g id="kvg:05747" kvg:element="均"><g id="kvg:05747-g1" kvg:element="土" kvg:variant="true" kvg:position="left" kvg:radical="general"><path id="kvg:05747-s1" kvg:type="㇐" d="M 14.5,43.89 c 1.5,0.36 3.25,0.25 4,0.11 5.5,-1 11.5,-2 19,-3.75 1.23,-0.29 2.25,-0.5 3.75,-0.49"><animate attributeName="d" begin="0.0s" dur="1.0s" from="M 14.5,43.89 C 14.5,43.89 , 14.5,43.89 , 14.5,43.89 " to="M 14.5,43.89 c 1.5,0.36 3.25,0.25 4,0.11 5.5,-1 11.5,-2 19,-3.75 1.23,-0.29 2.25,-0.5 3.75,-0.49" />
</path>
<path id="kvg:05747-s2" kvg:type="㇑a" d="M 28.62,16 c 0.94,0.94 1.21,2.38 1.21,3.75 0,7.25 0.03,38.75 0.03,49.5"><animate attributeName="d" begin="1.0s" dur="1.0s" from="M 28.62,16 C 28.62,16 , 28.62,16 , 28.62,16 " to="M 28.62,16 c 0.94,0.94 1.21,2.38 1.21,3.75 0,7.25 0.03,38.75 0.03,49.5" />
<animate attributeName="d" begin="0s" dur="1.0s" from="M-100,-100" to="M-100,-100" />
</path>
<path id="kvg:05747-s3" kvg:type="㇀/㇐" d="M 16.26,80.76 c 1.15,0.36 2.73,0.3 4.12,-1.15 5.14,-5.37 14.42,-14.98 19.56,-20.34"><animate attributeName="d" begin="2.0s" dur="1.0s" from="M 16.26,80.76 C 16.26,80.76 , 16.26,80.76 , 16.26,80.76 " to="M 16.26,80.76 c 1.15,0.36 2.73,0.3 4.12,-1.15 5.14,-5.37 14.42,-14.98 19.56,-20.34" />
<animate attributeName="d" begin="0s" dur="2.0s" from="M-100,-100" to="M-100,-100" />
</path>
</g>
<g id="kvg:05747-g2" kvg:element="匀" kvg:position="right" kvg:phon="匀"><g id="kvg:05747-g3" kvg:element="勹"><g id="kvg:05747-g4" kvg:element="丿"><path id="kvg:05747-s4" kvg:type="㇒" d="M 61.04,13.75 c 0.05,0.86 0.01,2 -0.35,3.19 -2.82,9.31 -8.32,21.43 -17.44,32.69"><animate attributeName="d" begin="3.0s" dur="1.0s" from="M 61.04,13.75 C 61.04,13.75 , 61.04,13.75 , 61.04,13.75 " to="M 61.04,13.75 c 0.05,0.86 0.01,2 -0.35,3.19 -2.82,9.31 -8.32,21.43 -17.44,32.69" />
<animate attributeName="d" begin="0s" dur="3.0s" from="M-100,-100" to="M-100,-100" />
</path>
</g>
<path id="kvg:05747-s5" kvg:type="㇆" d="M 56.79,34.67 c 1.71,0.45 3.1,0.37 4.6,0.21 3.73,-0.39 24.54,-3.16 28.14,-3.39 3.6,-0.23 6.47,0.59 5.78,5.44 -2.31,16.19 -5.56,36.45 -13.74,52.74 -2.08,4.14 -5.45,3.46 -8.51,-0.66"><animate attributeName="d" begin="4.0s" dur="1.0s" from="M 56.79,34.67 C 56.79,34.67 , 56.79,34.67 , 56.79,34.67 " to="M 56.79,34.67 c 1.71,0.45 3.1,0.37 4.6,0.21 3.73,-0.39 24.54,-3.16 28.14,-3.39 3.6,-0.23 6.47,0.59 5.78,5.44 -2.31,16.19 -5.56,36.45 -13.74,52.74 -2.08,4.14 -5.45,3.46 -8.51,-0.66" />
<animate attributeName="d" begin="0s" dur="4.0s" from="M-100,-100" to="M-100,-100" />
</path>
</g>
<g id="kvg:05747-g5" kvg:element="冫"><g id="kvg:05747-g6" kvg:element="二" kvg:variant="true"><g id="kvg:05747-g7" kvg:position="top"><path id="kvg:05747-s6" kvg:type="㇔" d="M 55.154459,52.714213 c 0.85,0.3 1.88,0.58 2.98,0.55 2.25,-0.05 5.98,-0.55 8.02,-0.69 1.73,-0.11 1.98,-0.11 3.73,0.14"><animate attributeName="d" begin="5.0s" dur="1.0s" from="M 55.154459,52.714213 C 55.154459,52.714213 , 55.154459,52.714213 , 55.154459,52.714213 " to="M 55.154459,52.714213 c 0.85,0.3 1.88,0.58 2.98,0.55 2.25,-0.05 5.98,-0.55 8.02,-0.69 1.73,-0.11 1.98,-0.11 3.73,0.14" />
<animate attributeName="d" begin="0s" dur="5.0s" from="M-100,-100" to="M-100,-100" />
</path>
</g>
<g id="kvg:05747-g8" kvg:position="bottom"><path id="kvg:05747-s7" kvg:type="㇀" d="M 53.51,75.01 c 1.02,0.44 2.79,0.46 3.97,-0.44 4.78,-3.66 14.47,-10.41 19.46,-13.8"><animate attributeName="d" begin="6.0s" dur="1.0s" from="M 53.51,75.01 C 53.51,75.01 , 53.51,75.01 , 53.51,75.01 " to="M 53.51,75.01 c 1.02,0.44 2.79,0.46 3.97,-0.44 4.78,-3.66 14.47,-10.41 19.46,-13.8" />
<animate attributeName="d" begin="0s" dur="6.0s" from="M-100,-100" to="M-100,-100" />
</path>
</g>
</g>
</g>
</g>
</g>
</svg>