<?xml version="1.0" encoding="UTF-8"?>
<!--
AniKanjiVG is licensed by CC-BY-SA Paul C. Sommerhoff (https://bitbucket.org/sommerhoff/anikanjivg).
AniKanjiVG uses KanjiVG which is licensed by CC-BY-SA Ulrich Apel (http://kanjivg.tagaini.net).
See also http://creativecommons.org/licenses/by-sa/3.0/
-->
<svg xmlns:kvg='http://kanjivg.tagaini.net' xmlns='http://www.w3.org/2000/svg' width='109' height='109' viewBox='0 0 109 109' style='fill:none;stroke:#000000;stroke-width:3;stroke-linecap:round;stroke-linejoin:round;' id="kvg:kanji_064d2"><g id="kvg:064d2" kvg:element="擒"><g id="kvg:064d2-g1" kvg:element="扌" kvg:variant="true" kvg:original="手" kvg:position="left" kvg:radical="general"><path id="kvg:064d2-s1" kvg:type="㇐" d="M 11,37.42 c 2.08,0.25 1.27,0.55 3.5,0.25 5.5,-0.75 14.5,-2 23.67,-3.17"><animate attributeName="d" begin="0.0s" dur="1.0s" from="M 11,37.42 C 11,37.42 , 11,37.42 , 11,37.42 " to="M 11,37.42 c 2.08,0.25 1.27,0.55 3.5,0.25 5.5,-0.75 14.5,-2 23.67,-3.17" />
</path>
<path id="kvg:064d2-s2" kvg:type="㇚" d="M 24.27,13 c 0.48,0.92 1.76,2.49 1.76,5.52 0,15.23 0.24,57.46 0.24,68.9 0,14.25 -6.32,3.53 -7.77,2"><animate attributeName="d" begin="1.0s" dur="1.0s" from="M 24.27,13 C 24.27,13 , 24.27,13 , 24.27,13 " to="M 24.27,13 c 0.48,0.92 1.76,2.49 1.76,5.52 0,15.23 0.24,57.46 0.24,68.9 0,14.25 -6.32,3.53 -7.77,2" />
<animate attributeName="d" begin="0s" dur="1.0s" from="M-100,-100" to="M-100,-100" />
</path>
<path id="kvg:064d2-s3" kvg:type="㇀" d="M 11,63.7 c 0.74,0.88 1.92,1.39 3.55,0.58 0.96,-0.48 18.61,-9.56 22.7,-11.86"><animate attributeName="d" begin="2.0s" dur="1.0s" from="M 11,63.7 C 11,63.7 , 11,63.7 , 11,63.7 " to="M 11,63.7 c 0.74,0.88 1.92,1.39 3.55,0.58 0.96,-0.48 18.61,-9.56 22.7,-11.86" />
<animate attributeName="d" begin="0s" dur="2.0s" from="M-100,-100" to="M-100,-100" />
</path>
</g>
<g id="kvg:064d2-g2" kvg:element="禽" kvg:position="right"><g id="kvg:064d2-g3" kvg:element="人" kvg:position="top"><path id="kvg:064d2-s4" kvg:type="㇒" d="M 66.51,10.5 c 0.08,0.77 -0.07,2.07 -0.54,3.11 -2.98,6.71 -13.55,21.31 -29.3,29.76"><animate attributeName="d" begin="3.0s" dur="1.0s" from="M 66.51,10.5 C 66.51,10.5 , 66.51,10.5 , 66.51,10.5 " to="M 66.51,10.5 c 0.08,0.77 -0.07,2.07 -0.54,3.11 -2.98,6.71 -13.55,21.31 -29.3,29.76" />
<animate attributeName="d" begin="0s" dur="3.0s" from="M-100,-100" to="M-100,-100" />
</path>
<path id="kvg:064d2-s5" kvg:type="㇏" d="M 65.81,14.58 c 4.16,4.52 22.07,19.28 26.66,22.59 1.56,1.12 3.55,1.6 5.11,1.92"><animate attributeName="d" begin="4.0s" dur="1.0s" from="M 65.81,14.58 C 65.81,14.58 , 65.81,14.58 , 65.81,14.58 " to="M 65.81,14.58 c 4.16,4.52 22.07,19.28 26.66,22.59 1.56,1.12 3.55,1.6 5.11,1.92" />
<animate attributeName="d" begin="0s" dur="4.0s" from="M-100,-100" to="M-100,-100" />
</path>
</g>
<g id="kvg:064d2-g4" kvg:position="bottom"><g id="kvg:064d2-g5" kvg:element="亠"><path id="kvg:064d2-s6" kvg:type="㇑a" d="M 66.06,27.92 c 0.64,0.41 1.7,1.98 1.7,2.79 0,2.98 -0.2,6.28 -0.08,8.81"><animate attributeName="d" begin="5.0s" dur="1.0s" from="M 66.06,27.92 C 66.06,27.92 , 66.06,27.92 , 66.06,27.92 " to="M 66.06,27.92 c 0.64,0.41 1.7,1.98 1.7,2.79 0,2.98 -0.2,6.28 -0.08,8.81" />
<animate attributeName="d" begin="0s" dur="5.0s" from="M-100,-100" to="M-100,-100" />
</path>
<path id="kvg:064d2-s7" kvg:type="㇐" d="M 50.43,40.94 c 0.87,0.2 1.64,0.42 2.64,0.28 5.96,-0.84 22.52,-2.28 29.46,-2.69 1.02,-0.06 1.54,0.02 2.31,0.36"><animate attributeName="d" begin="6.0s" dur="1.0s" from="M 50.43,40.94 C 50.43,40.94 , 50.43,40.94 , 50.43,40.94 " to="M 50.43,40.94 c 0.87,0.2 1.64,0.42 2.64,0.28 5.96,-0.84 22.52,-2.28 29.46,-2.69 1.02,-0.06 1.54,0.02 2.31,0.36" />
<animate attributeName="d" begin="0s" dur="6.0s" from="M-100,-100" to="M-100,-100" />
</path>
</g>
<g id="kvg:064d2-g6" kvg:element="凶"><g id="kvg:064d2-g7" kvg:element="乂"><g id="kvg:064d2-g8" kvg:element="丿"><path id="kvg:064d2-s8" kvg:type="㇒" d="M 74.65,42.36 c 0.16,0.78 0.29,1.73 -0.25,2.37 -5.14,6.02 -10.64,9.52 -18.34,13.99"><animate attributeName="d" begin="7.0s" dur="1.0s" from="M 74.65,42.36 C 74.65,42.36 , 74.65,42.36 , 74.65,42.36 " to="M 74.65,42.36 c 0.16,0.78 0.29,1.73 -0.25,2.37 -5.14,6.02 -10.64,9.52 -18.34,13.99" />
<animate attributeName="d" begin="0s" dur="7.0s" from="M-100,-100" to="M-100,-100" />
</path>
</g>
<path id="kvg:064d2-s9" kvg:type="㇔/㇏" d="M 57.78,46.8 c 6.65,1.49 16.21,6.34 19.69,9.89"><animate attributeName="d" begin="8.0s" dur="1.0s" from="M 57.78,46.8 C 57.78,46.8 , 57.78,46.8 , 57.78,46.8 " to="M 57.78,46.8 c 6.65,1.49 16.21,6.34 19.69,9.89" />
<animate attributeName="d" begin="0s" dur="8.0s" from="M-100,-100" to="M-100,-100" />
</path>
</g>
<g id="kvg:064d2-g9" kvg:element="凵" kvg:position="kamae"><path id="kvg:064d2-s10" kvg:type="㇄a" d="M 49.77,46.49 c 0.39,0.16 1.23,1.67 1.31,2 0.58,2.34 -1.63,12.03 -1.67,12.79 -0.04,0.76 0.86,1.66 1.64,1.62 7.18,-0.29 30.4,-2.2 34.5,-2.36"><animate attributeName="d" begin="9.0s" dur="1.0s" from="M 49.77,46.49 C 49.77,46.49 , 49.77,46.49 , 49.77,46.49 " to="M 49.77,46.49 c 0.39,0.16 1.23,1.67 1.31,2 0.58,2.34 -1.63,12.03 -1.67,12.79 -0.04,0.76 0.86,1.66 1.64,1.62 7.18,-0.29 30.4,-2.2 34.5,-2.36" />
<animate attributeName="d" begin="0s" dur="9.0s" from="M-100,-100" to="M-100,-100" />
</path>
<path id="kvg:064d2-s11" kvg:type="㇑" d="M 85.09,42.64 c 0.22,0.17 0.69,1.31 0.73,1.66 0.04,0.35 -0.17,11.74 -0.37,18.62"><animate attributeName="d" begin="10.0s" dur="1.0s" from="M 85.09,42.64 C 85.09,42.64 , 85.09,42.64 , 85.09,42.64 " to="M 85.09,42.64 c 0.22,0.17 0.69,1.31 0.73,1.66 0.04,0.35 -0.17,11.74 -0.37,18.62" />
<animate attributeName="d" begin="0s" dur="10.0s" from="M-100,-100" to="M-100,-100" />
</path>
</g>
</g>
<g id="kvg:064d2-g10" kvg:element="禸"><path id="kvg:064d2-s12" kvg:type="㇑" d="M 44.31,69.53 c 0.58,1.17 1.43,2.67 1.52,3.52 0.45,4.18 1.05,17.06 1.79,24.95"><animate attributeName="d" begin="11.0s" dur="1.0s" from="M 44.31,69.53 C 44.31,69.53 , 44.31,69.53 , 44.31,69.53 " to="M 44.31,69.53 c 0.58,1.17 1.43,2.67 1.52,3.52 0.45,4.18 1.05,17.06 1.79,24.95" />
<animate attributeName="d" begin="0s" dur="11.0s" from="M-100,-100" to="M-100,-100" />
</path>
<path id="kvg:064d2-s13" kvg:type="㇆" d="M 46.2,72.92 c 6.87,-0.49 41.73,-3.47 43,-3.7 2.71,-0.5 4.51,1.21 4.41,2.68 -0.24,3.53 -2.63,18.7 -4.77,23.19 -2.67,5.6 -3.64,3.45 -6.04,-0.04"><animate attributeName="d" begin="12.0s" dur="1.0s" from="M 46.2,72.92 C 46.2,72.92 , 46.2,72.92 , 46.2,72.92 " to="M 46.2,72.92 c 6.87,-0.49 41.73,-3.47 43,-3.7 2.71,-0.5 4.51,1.21 4.41,2.68 -0.24,3.53 -2.63,18.7 -4.77,23.19 -2.67,5.6 -3.64,3.45 -6.04,-0.04" />
<animate attributeName="d" begin="0s" dur="12.0s" from="M-100,-100" to="M-100,-100" />
</path>
<path id="kvg:064d2-s14" kvg:type="㇜" d="M 66.82,64.44 c 0.31,0.37 0.53,1.35 0.31,1.81 -1.698221,8.215971 -3.110634,13.119673 -5.831759,18.788548"><animate attributeName="d" begin="13.0s" dur="1.0s" from="M 66.82,64.44 C 66.82,64.44 , 66.82,64.44 , 66.82,64.44 " to="M 66.82,64.44 c 0.31,0.37 0.53,1.35 0.31,1.81 -1.698221,8.215971 -3.110634,13.119673 -5.831759,18.788548" />
<animate attributeName="d" begin="0s" dur="13.0s" from="M-100,-100" to="M-100,-100" />
</path>
<path id="kvg:064d2-s15" kvg:type="㇜" d="M 55.109673,86.347873 c 4.05,-0.62 13.5,-3.2 21.53,-4.47"><animate attributeName="d" begin="14.0s" dur="1.0s" from="M 55.109673,86.347873 C 55.109673,86.347873 , 55.109673,86.347873 , 55.109673,86.347873 " to="M 55.109673,86.347873 c 4.05,-0.62 13.5,-3.2 21.53,-4.47" />
<animate attributeName="d" begin="0s" dur="14.0s" from="M-100,-100" to="M-100,-100" />
</path>
<path id="kvg:064d2-s16" kvg:type="㇔" d="M 73.33,76.32 c 2.66,1.8 6.88,7.38 7.54,10.18"><animate attributeName="d" begin="15.0s" dur="1.0s" from="M 73.33,76.32 C 73.33,76.32 , 73.33,76.32 , 73.33,76.32 " to="M 73.33,76.32 c 2.66,1.8 6.88,7.38 7.54,10.18" />
<animate attributeName="d" begin="0s" dur="15.0s" from="M-100,-100" to="M-100,-100" />
</path>
</g>
</g>
</g>
</g>
</svg>