<?xml version="1.0" encoding="UTF-8"?>
<!--
AniKanjiVG is licensed by CC-BY-SA Paul C. Sommerhoff (https://bitbucket.org/sommerhoff/anikanjivg).
AniKanjiVG uses KanjiVG which is licensed by CC-BY-SA Ulrich Apel (http://kanjivg.tagaini.net).
See also http://creativecommons.org/licenses/by-sa/3.0/
-->
<svg xmlns:kvg='http://kanjivg.tagaini.net' xmlns='http://www.w3.org/2000/svg' width='109' height='109' viewBox='0 0 109 109' style='fill:none;stroke:#000000;stroke-width:3;stroke-linecap:round;stroke-linejoin:round;' id="kvg:kanji_065bf"><g id="kvg:065bf" kvg:element="斿"><g id="kvg:065bf-g1" kvg:element="方"><g id="kvg:065bf-g2" kvg:element="亠" kvg:position="top"><path id="kvg:065bf-s1" kvg:type="㇑a" d="m30.062958,7.8758346c1.360397,1.333399,2.318228,3.0205564,2.318228,5.1975344,0,4.830168-0.09717,10.06852-0.09717,14.204778"><animate attributeName="d" begin="0.0s" dur="1.0s" from="m30.062958,7.8758346C30.062958,7.8758346,30.062958,7.8758346,30.062958,7.8758346" to="m30.062958,7.8758346c1.360397,1.333399,2.318228,3.0205564,2.318228,5.1975344,0,4.830168-0.09717,10.06852-0.09717,14.204778" />
</path>
<path id="kvg:065bf-s2" kvg:type="㇐" d="m11.642075,30.842949c2.609741,0.312939,3.914612,0.62588,6.621524,0.13606,6.746458,-1.210944,16.727328,-3.183829,22.710297,-4.177076,2.401517,-0.394578,4.6781,-0.598668,7.107379,-0.598668"><animate attributeName="d" begin="1.0s" dur="1.0s" from="m11.642075,30.842949C11.642075,30.842949,11.642075,30.842949,11.642075,30.842949" to="m11.642075,30.842949c2.609741,0.312939,3.914612,0.62588,6.621524,0.13606,6.746458,-1.210944,16.727328,-3.183829,22.710297,-4.177076,2.401517,-0.394578,4.6781,-0.598668,7.107379,-0.598668" />
<animate attributeName="d" begin="0s" dur="1.0s" from="M-100,-100" to="M-100,-100" />
</path>
</g>
<g id="kvg:065bf-g3" kvg:position="bottom"><path id="kvg:065bf-s3" kvg:type="㇆a" d="m31.104078,45.768851c4.303296,1.088488,6.913037,2.544342,12.257454,3.047768,2.290464,0.217698,4.233887,3.129405,3.664742,5.959476-2.08224,10.544735-9.953108,31.021931-12.896006,36.505193-3.067835,5.673748-6.191194,2.108947-8.453895,-2.313039"><animate attributeName="d" begin="2.0s" dur="1.0s" from="m31.104078,45.768851C31.104078,45.768851,31.104078,45.768851,31.104078,45.768851" to="m31.104078,45.768851c4.303296,1.088488,6.913037,2.544342,12.257454,3.047768,2.290464,0.217698,4.233887,3.129405,3.664742,5.959476-2.08224,10.544735-9.953108,31.021931-12.896006,36.505193-3.067835,5.673748-6.191194,2.108947-8.453895,-2.313039" />
<animate attributeName="d" begin="0s" dur="2.0s" from="M-100,-100" to="M-100,-100" />
</path>
<path id="kvg:065bf-s4" kvg:type="㇒" d="m29.826972,33.849899c0.652435,0.693911,1.277106,2.571554,0.999474,4.095439-2.359871,12.735319-9.300672,34.001668-22.4881916,47.771051"><animate attributeName="d" begin="3.0s" dur="1.0s" from="m29.826972,33.849899C29.826972,33.849899,29.826972,33.849899,29.826972,33.849899" to="m29.826972,33.849899c0.652435,0.693911,1.277106,2.571554,0.999474,4.095439-2.359871,12.735319-9.300672,34.001668-22.4881916,47.771051" />
<animate attributeName="d" begin="0s" dur="3.0s" from="M-100,-100" to="M-100,-100" />
</path>
</g>
</g>
<path id="kvg:065bf-s5" kvg:type="㇒" d="m64.4338,7.0050432c0.485856,0.9932467,0.555264,2.2586141,0.277632,3.2790718-2.221055,8.095637-6.218957,18.123339-14.117587,28.110223"><animate attributeName="d" begin="4.0s" dur="1.0s" from="m64.4338,7.0050432C64.4338,7.0050432,64.4338,7.0050432,64.4338,7.0050432" to="m64.4338,7.0050432c0.485856,0.9932467,0.555264,2.2586141,0.277632,3.2790718-2.221055,8.095637-6.218957,18.123339-14.117587,28.110223" />
<animate attributeName="d" begin="0s" dur="4.0s" from="M-100,-100" to="M-100,-100" />
</path>
<path id="kvg:065bf-s6" kvg:type="㇐" d="m64.392156,23.69974c1.041119,0.122455,2.984545,0.435396,4.011782,0.258516,7.412775,-1.251762,14.381337,-2.843677,20.239373,-3.673649,1.540858,-0.217699,2.817965,-0.204092,4.553165,-0.204092"><animate attributeName="d" begin="5.0s" dur="1.0s" from="m64.392156,23.69974C64.392156,23.69974,64.392156,23.69974,64.392156,23.69974" to="m64.392156,23.69974c1.041119,0.122455,2.984545,0.435396,4.011782,0.258516,7.412775,-1.251762,14.381337,-2.843677,20.239373,-3.673649,1.540858,-0.217699,2.817965,-0.204092,4.553165,-0.204092" />
<animate attributeName="d" begin="0s" dur="5.0s" from="M-100,-100" to="M-100,-100" />
</path>
<g id="kvg:065bf-g4" kvg:element="子"><path id="kvg:065bf-s7" kvg:type="㇖" d="m60.172149,42.244868c1.624148,0.285728,3.942375,0.380971,5.28889,0.149668,6.218957,-1.061277,14.381338,-2.925314,20.628059,-4.870988,2.387634,-0.73473,3.234412,1.197337,1.679672,2.93892-2.734675,3.088587-8.106854,8.871183-14.367455,14.993933"><animate attributeName="d" begin="6.0s" dur="1.0s" from="m60.172149,42.244868C60.172149,42.244868,60.172149,42.244868,60.172149,42.244868" to="m60.172149,42.244868c1.624148,0.285728,3.942375,0.380971,5.28889,0.149668,6.218957,-1.061277,14.381338,-2.925314,20.628059,-4.870988,2.387634,-0.73473,3.234412,1.197337,1.679672,2.93892-2.734675,3.088587-8.106854,8.871183-14.367455,14.993933" />
<animate attributeName="d" begin="0s" dur="6.0s" from="M-100,-100" to="M-100,-100" />
</path>
<path id="kvg:065bf-s8" kvg:type="㇕v" d="m72.013154,56.068676c9.203501,10.952918,11.285741,26.259791,4.636455,41.036028-2.929018,6.490106-7.579354,-0.462608-8.578829,-1.210944"><animate attributeName="d" begin="7.0s" dur="1.0s" from="m72.013154,56.068676C72.013154,56.068676,72.013154,56.068676,72.013154,56.068676" to="m72.013154,56.068676c9.203501,10.952918,11.285741,26.259791,4.636455,41.036028-2.929018,6.490106-7.579354,-0.462608-8.578829,-1.210944" />
<animate attributeName="d" begin="0s" dur="7.0s" from="M-100,-100" to="M-100,-100" />
</path>
<path id="kvg:065bf-s9" kvg:type="㇐" d="m51.843189,68.43663c2.915136,1.129306,6.760339,0.517031,9.786527,0.190485,8.190145,-0.884398,22.80747,-3.224648,31.9138,-3.564801,2.623622,-0.09524,5.677575,-0.258515,8.231794,0.557851"><animate attributeName="d" begin="8.0s" dur="1.0s" from="m51.843189,68.43663C51.843189,68.43663,51.843189,68.43663,51.843189,68.43663" to="m51.843189,68.43663c2.915136,1.129306,6.760339,0.517031,9.786527,0.190485,8.190145,-0.884398,22.80747,-3.224648,31.9138,-3.564801,2.623622,-0.09524,5.677575,-0.258515,8.231794,0.557851" />
<animate attributeName="d" begin="0s" dur="8.0s" from="M-100,-100" to="M-100,-100" />
</path>
</g>
</g>
</svg>