<?xml version="1.0" encoding="UTF-8"?>
<!--
AniKanjiVG is licensed by CC-BY-SA Paul C. Sommerhoff (https://bitbucket.org/sommerhoff/anikanjivg).
AniKanjiVG uses KanjiVG which is licensed by CC-BY-SA Ulrich Apel (http://kanjivg.tagaini.net).
See also http://creativecommons.org/licenses/by-sa/3.0/
-->
<svg xmlns:kvg='http://kanjivg.tagaini.net' xmlns='http://www.w3.org/2000/svg' width='109' height='109' viewBox='0 0 109 109' style='fill:none;stroke:#000000;stroke-width:3;stroke-linecap:round;stroke-linejoin:round;' id="kvg:kanji_0691b"><g id="kvg:0691b" kvg:element="椛"><g id="kvg:0691b-g1" kvg:element="木" kvg:position="left" kvg:radical="general"><path id="kvg:0691b-s1" kvg:type="㇐" d="M 15.53,37.67 c 1.76,0.35 3.51,0.34 5.25,-0.01 4.47,-0.62 12.18,-1.65 17.35,-2.44 1.12,-0.27 2.25,-0.36 3.39,-0.28"><animate attributeName="d" begin="0.0s" dur="1.0s" from="M 15.53,37.67 C 15.53,37.67 , 15.53,37.67 , 15.53,37.67 " to="M 15.53,37.67 c 1.76,0.35 3.51,0.34 5.25,-0.01 4.47,-0.62 12.18,-1.65 17.35,-2.44 1.12,-0.27 2.25,-0.36 3.39,-0.28" />
</path>
<path id="kvg:0691b-s2" kvg:type="㇑" d="M 29.86,18 c 1.01,1.01 1.54,3 1.54,5.92 0,2.56 0,41.82 -0.02,61.08 0,4.8 -0.01,8.38 -0.01,9.88"><animate attributeName="d" begin="1.0s" dur="1.0s" from="M 29.86,18 C 29.86,18 , 29.86,18 , 29.86,18 " to="M 29.86,18 c 1.01,1.01 1.54,3 1.54,5.92 0,2.56 0,41.82 -0.02,61.08 0,4.8 -0.01,8.38 -0.01,9.88" />
<animate attributeName="d" begin="0s" dur="1.0s" from="M-100,-100" to="M-100,-100" />
</path>
<path id="kvg:0691b-s3" kvg:type="㇒" d="M 30.94,37.78 c 0,1.97 -0.69,3.59 -1.5,5.66 -5.06,12.87 -8.49,19.46 -16.83,31.9"><animate attributeName="d" begin="2.0s" dur="1.0s" from="M 30.94,37.78 C 30.94,37.78 , 30.94,37.78 , 30.94,37.78 " to="M 30.94,37.78 c 0,1.97 -0.69,3.59 -1.5,5.66 -5.06,12.87 -8.49,19.46 -16.83,31.9" />
<animate attributeName="d" begin="0s" dur="2.0s" from="M-100,-100" to="M-100,-100" />
</path>
<path id="kvg:0691b-s4" kvg:type="㇔/㇏" d="M 34.5,48.88 c 2,1.03 5,5.47 7.13,8.41"><animate attributeName="d" begin="3.0s" dur="1.0s" from="M 34.5,48.88 C 34.5,48.88 , 34.5,48.88 , 34.5,48.88 " to="M 34.5,48.88 c 2,1.03 5,5.47 7.13,8.41" />
<animate attributeName="d" begin="0s" dur="3.0s" from="M-100,-100" to="M-100,-100" />
</path>
</g>
<g id="kvg:0691b-g2" kvg:element="花" kvg:position="right"><g id="kvg:0691b-g3" kvg:element="艹" kvg:variant="true" kvg:original="艸" kvg:position="top"><path id="kvg:0691b-s5" kvg:type="㇐" d="M 44.25,30.83 c 2.07,0.51 4.15,0.57 6.25,0.18 10.72,-1.18 22.26,-3.1 36.38,-3.47 2.11,-0.19 4.2,-0.07 6.28,0.36"><animate attributeName="d" begin="4.0s" dur="1.0s" from="M 44.25,30.83 C 44.25,30.83 , 44.25,30.83 , 44.25,30.83 " to="M 44.25,30.83 c 2.07,0.51 4.15,0.57 6.25,0.18 10.72,-1.18 22.26,-3.1 36.38,-3.47 2.11,-0.19 4.2,-0.07 6.28,0.36" />
<animate attributeName="d" begin="0s" dur="4.0s" from="M-100,-100" to="M-100,-100" />
</path>
<path id="kvg:0691b-s6" kvg:type="㇑a" d="M 55.27,17.98 c 0.9,0.9 1.38,1.94 1.45,3.12 0.92,6.98 2.02,14.38 2.28,16.9"><animate attributeName="d" begin="5.0s" dur="1.0s" from="M 55.27,17.98 C 55.27,17.98 , 55.27,17.98 , 55.27,17.98 " to="M 55.27,17.98 c 0.9,0.9 1.38,1.94 1.45,3.12 0.92,6.98 2.02,14.38 2.28,16.9" />
<animate attributeName="d" begin="0s" dur="5.0s" from="M-100,-100" to="M-100,-100" />
</path>
<path id="kvg:0691b-s7" kvg:type="㇑a" d="M 78.66,14.91 c 0.59,0.84 0.55,1.84 0.29,3.13 -1.58,7.6 -2.3,11.85 -4.02,19.01"><animate attributeName="d" begin="6.0s" dur="1.0s" from="M 78.66,14.91 C 78.66,14.91 , 78.66,14.91 , 78.66,14.91 " to="M 78.66,14.91 c 0.59,0.84 0.55,1.84 0.29,3.13 -1.58,7.6 -2.3,11.85 -4.02,19.01" />
<animate attributeName="d" begin="0s" dur="6.0s" from="M-100,-100" to="M-100,-100" />
</path>
</g>
<g id="kvg:0691b-g4" kvg:element="化" kvg:position="bottom"><g id="kvg:0691b-g5" kvg:element="亻" kvg:variant="true" kvg:original="人"><path id="kvg:0691b-s8" kvg:type="㇒" d="M 56.36,44.69 c 0,1.39 -0.54,3.27 -1.08,4.46 -3.51,7.76 -10.47,17.5 -15.11,22.63"><animate attributeName="d" begin="7.0s" dur="1.0s" from="M 56.36,44.69 C 56.36,44.69 , 56.36,44.69 , 56.36,44.69 " to="M 56.36,44.69 c 0,1.39 -0.54,3.27 -1.08,4.46 -3.51,7.76 -10.47,17.5 -15.11,22.63" />
<animate attributeName="d" begin="0s" dur="7.0s" from="M-100,-100" to="M-100,-100" />
</path>
<path id="kvg:0691b-s9" kvg:type="㇑" d="M 51.38,59.38 c 0.81,0.81 1.15,2.03 1.15,3.15 0,6.63 -0.01,17.6 -0.02,25.1 0,2.94 -0.01,5.34 -0.01,6.75"><animate attributeName="d" begin="8.0s" dur="1.0s" from="M 51.38,59.38 C 51.38,59.38 , 51.38,59.38 , 51.38,59.38 " to="M 51.38,59.38 c 0.81,0.81 1.15,2.03 1.15,3.15 0,6.63 -0.01,17.6 -0.02,25.1 0,2.94 -0.01,5.34 -0.01,6.75" />
<animate attributeName="d" begin="0s" dur="8.0s" from="M-100,-100" to="M-100,-100" />
</path>
</g>
<g id="kvg:0691b-g6" kvg:element="匕"><path id="kvg:0691b-s10" kvg:type="㇒" d="M 89.16,52.6 c -3.193536,5.853194 -9.295906,9.86996 -16.381513,13.460665"><animate attributeName="d" begin="9.0s" dur="1.0s" from="M 89.16,52.6 C 89.16,52.6 , 89.16,52.6 , 89.16,52.6 " to="M 89.16,52.6 c -3.193536,5.853194 -9.295906,9.86996 -16.381513,13.460665" />
<animate attributeName="d" begin="0s" dur="9.0s" from="M-100,-100" to="M-100,-100" />
</path>
<path id="kvg:0691b-s11" kvg:type="㇟" d="M 71.62,44.21 c 0.96,0.96 1.15,2.16 1.15,3.64 0,3.25 -0.07,25.94 -0.07,34.91 0,6.49 0.8,9.87 11.3,9.87 11.5,-0.01 12,-1.88 12,-9.37"><animate attributeName="d" begin="10.0s" dur="1.0s" from="M 71.62,44.21 C 71.62,44.21 , 71.62,44.21 , 71.62,44.21 " to="M 71.62,44.21 c 0.96,0.96 1.15,2.16 1.15,3.64 0,3.25 -0.07,25.94 -0.07,34.91 0,6.49 0.8,9.87 11.3,9.87 11.5,-0.01 12,-1.88 12,-9.37" />
<animate attributeName="d" begin="0s" dur="10.0s" from="M-100,-100" to="M-100,-100" />
</path>
</g>
</g>
</g>
</g>
</svg>