<?xml version="1.0" encoding="UTF-8"?>
<!--
AniKanjiVG is licensed by CC-BY-SA Paul C. Sommerhoff (https://bitbucket.org/sommerhoff/anikanjivg).
AniKanjiVG uses KanjiVG which is licensed by CC-BY-SA Ulrich Apel (http://kanjivg.tagaini.net).
See also http://creativecommons.org/licenses/by-sa/3.0/
-->
<svg xmlns:kvg='http://kanjivg.tagaini.net' xmlns='http://www.w3.org/2000/svg' width='109' height='109' viewBox='0 0 109 109' style='fill:none;stroke:#000000;stroke-width:3;stroke-linecap:round;stroke-linejoin:round;' id="kvg:kanji_06e80"><g id="kvg:06e80" kvg:element="満"><g id="kvg:06e80-g1" kvg:element="氵" kvg:variant="true" kvg:original="水" kvg:position="left" kvg:radical="general"><path id="kvg:06e80-s1" kvg:type="㇔" d="M 19.88,17 c 3.31,1.47 8.12,5.38 10.37,8.34"><animate attributeName="d" begin="0.0s" dur="1.0s" from="M 19.88,17 C 19.88,17 , 19.88,17 , 19.88,17 " to="M 19.88,17 c 3.31,1.47 8.12,5.38 10.37,8.34" />
</path>
<path id="kvg:06e80-s2" kvg:type="㇔" d="M 15.5,38.75 c 3.71,1.41 8.5,5.12 10.5,8"><animate attributeName="d" begin="1.0s" dur="1.0s" from="M 15.5,38.75 C 15.5,38.75 , 15.5,38.75 , 15.5,38.75 " to="M 15.5,38.75 c 3.71,1.41 8.5,5.12 10.5,8" />
<animate attributeName="d" begin="0s" dur="1.0s" from="M-100,-100" to="M-100,-100" />
</path>
<path id="kvg:06e80-s3" kvg:type="㇀" d="M 12.62,90.48 c 1.3,0.38 2.57,0 3.35,-1.29 3.32,-5.52 6.64,-12.27 9.65,-19.31"><animate attributeName="d" begin="2.0s" dur="1.0s" from="M 12.62,90.48 C 12.62,90.48 , 12.62,90.48 , 12.62,90.48 " to="M 12.62,90.48 c 1.3,0.38 2.57,0 3.35,-1.29 3.32,-5.52 6.64,-12.27 9.65,-19.31" />
<animate attributeName="d" begin="0s" dur="2.0s" from="M-100,-100" to="M-100,-100" />
</path>
</g>
<g id="kvg:06e80-g2" kvg:element="廿" kvg:position="right" kvg:phon="廿+両"><g id="kvg:06e80-g3" kvg:element="十"><path id="kvg:06e80-s4" kvg:type="㇐" d="M 37.93726,29.02 c 1.76,0.53 5.09,0.47 6.84,0.28 14.78,-1.67 28.692576,-3.42 41.792576,-4.03 2.93,-0.14 4.69,0.25 6.15,0.51"><animate attributeName="d" begin="3.0s" dur="1.0s" from="M 37.93726,29.02 C 37.93726,29.02 , 37.93726,29.02 , 37.93726,29.02 " to="M 37.93726,29.02 c 1.76,0.53 5.09,0.47 6.84,0.28 14.78,-1.67 28.692576,-3.42 41.792576,-4.03 2.93,-0.14 4.69,0.25 6.15,0.51" />
<animate attributeName="d" begin="0s" dur="3.0s" from="M-100,-100" to="M-100,-100" />
</path>
<path id="kvg:06e80-s5" kvg:type="㇑a" d="M 51.67,15.5 c 1.04,1.04 1.92,2.36 1.99,3.25 0.84,10.25 1.59,15.75 2,22.25"><animate attributeName="d" begin="4.0s" dur="1.0s" from="M 51.67,15.5 C 51.67,15.5 , 51.67,15.5 , 51.67,15.5 " to="M 51.67,15.5 c 1.04,1.04 1.92,2.36 1.99,3.25 0.84,10.25 1.59,15.75 2,22.25" />
<animate attributeName="d" begin="0s" dur="4.0s" from="M-100,-100" to="M-100,-100" />
</path>
</g>
<path id="kvg:06e80-s6" kvg:type="㇑a" d="M 76.25,13.55 c 0.78,0.79 1.03,1.94 0.85,3.42 -1.06,8.72 -1.67,14.31 -3,22.55"><animate attributeName="d" begin="5.0s" dur="1.0s" from="M 76.25,13.55 C 76.25,13.55 , 76.25,13.55 , 76.25,13.55 " to="M 76.25,13.55 c 0.78,0.79 1.03,1.94 0.85,3.42 -1.06,8.72 -1.67,14.31 -3,22.55" />
<animate attributeName="d" begin="0s" dur="5.0s" from="M-100,-100" to="M-100,-100" />
</path>
<g id="kvg:06e80-g4" kvg:element="両" kvg:part="1"><g id="kvg:06e80-g5" kvg:element="一"><path id="kvg:06e80-s7" kvg:type="㇐" d="M 36.151595,43.43 c 1.55,0.42 4.402969,0.609834 5.94,0.42 9.752306,-1.204476 35.042963,-2.762866 47.628262,-3.84 2.573863,-0.220289 4.13,0.2 5.42,0.42"><animate attributeName="d" begin="6.0s" dur="1.0s" from="M 36.151595,43.43 C 36.151595,43.43 , 36.151595,43.43 , 36.151595,43.43 " to="M 36.151595,43.43 c 1.55,0.42 4.402969,0.609834 5.94,0.42 9.752306,-1.204476 35.042963,-2.762866 47.628262,-3.84 2.573863,-0.220289 4.13,0.2 5.42,0.42" />
<animate attributeName="d" begin="0s" dur="6.0s" from="M-100,-100" to="M-100,-100" />
</path>
</g>
</g>
<g id="kvg:06e80-g6" kvg:element="両" kvg:part="2"><g id="kvg:06e80-g7" kvg:element="冂"><path id="kvg:06e80-s8" kvg:type="㇑" d="M 39.82,55.91 c 0.88,0.88 1.24,2.21 1.28,3.43 0.27,7.71 0.11,20.47 -0.02,28.29 -0.06,3.5 -0.11,6.01 -0.11,6.62"><animate attributeName="d" begin="7.0s" dur="1.0s" from="M 39.82,55.91 C 39.82,55.91 , 39.82,55.91 , 39.82,55.91 " to="M 39.82,55.91 c 0.88,0.88 1.24,2.21 1.28,3.43 0.27,7.71 0.11,20.47 -0.02,28.29 -0.06,3.5 -0.11,6.01 -0.11,6.62" />
<animate attributeName="d" begin="0s" dur="7.0s" from="M-100,-100" to="M-100,-100" />
</path>
<path id="kvg:06e80-s9" kvg:type="㇆a" d="M 41.75,57.27 C 49.19,56.74 86.6,52 88.07,51.9 c 4.18,-0.28 5.87,1.59 5.87,6.37 0,2.77 -0.31,21.4 -1.28,33.31 -0.66,8.04 -5.41,1.29 -7.15,-0.78"><animate attributeName="d" begin="8.0s" dur="0.5s" from="M 41.75,57.27 C 41.75,57.27 , 41.75,57.27 , 41.75,57.27 " to="M 41.75,57.27 C 49.19,56.74 86.6,52 88.07,51.9 " />
<animate attributeName="d" begin="8.5s" dur="0.5s" from="M 41.75,57.27 C 49.19,56.74 86.6,52 88.07,51.9 c0,0,0,0,0,0,0" to="M 41.75,57.27 C 49.19,56.74 86.6,52 88.07,51.9 c 4.18,-0.28 5.87,1.59 5.87,6.37 0,2.77 -0.31,21.4 -1.28,33.31 -0.66,8.04 -5.41,1.29 -7.15,-0.78" />
<animate attributeName="d" begin="0s" dur="8.0s" from="M-100,-100" to="M-100,-100" />
</path>
</g>
</g>
<g id="kvg:06e80-g8" kvg:element="山"><path id="kvg:06e80-s10" kvg:type="㇑a" d="M 64.8,43.91 c 0.83,0.83 1.25,1.96 1.25,3.33 0,0.71 -0.06,26.44 -0.15,30.82"><animate attributeName="d" begin="9.0s" dur="1.0s" from="M 64.8,43.91 C 64.8,43.91 , 64.8,43.91 , 64.8,43.91 " to="M 64.8,43.91 c 0.83,0.83 1.25,1.96 1.25,3.33 0,0.71 -0.06,26.44 -0.15,30.82" />
<animate attributeName="d" begin="0s" dur="9.0s" from="M-100,-100" to="M-100,-100" />
</path>
<path id="kvg:06e80-s11" kvg:type="㇄a" d="M 53.41,67.46 c 0.82,0.82 1.09,2.04 0.95,3.29 -0.34,3.13 -0.49,4.75 -0.78,7.25 -0.2,1.73 0.84,3.19 2.12,2.94 6.55,-1.32 15.17,-2.57 21.97,-3.41"><animate attributeName="d" begin="10.0s" dur="1.0s" from="M 53.41,67.46 C 53.41,67.46 , 53.41,67.46 , 53.41,67.46 " to="M 53.41,67.46 c 0.82,0.82 1.09,2.04 0.95,3.29 -0.34,3.13 -0.49,4.75 -0.78,7.25 -0.2,1.73 0.84,3.19 2.12,2.94 6.55,-1.32 15.17,-2.57 21.97,-3.41" />
<animate attributeName="d" begin="0s" dur="10.0s" from="M-100,-100" to="M-100,-100" />
</path>
<path id="kvg:06e80-s12" kvg:type="㇑" d="M 78.22,64.99 c 0.83,0.83 1.03,2.14 0.96,3.33 -0.18,2.96 -0.31,5.85 -0.43,8.93 -0.06,1.53 -0.11,3.11 -0.17,4.77"><animate attributeName="d" begin="11.0s" dur="1.0s" from="M 78.22,64.99 C 78.22,64.99 , 78.22,64.99 , 78.22,64.99 " to="M 78.22,64.99 c 0.83,0.83 1.03,2.14 0.96,3.33 -0.18,2.96 -0.31,5.85 -0.43,8.93 -0.06,1.53 -0.11,3.11 -0.17,4.77" />
<animate attributeName="d" begin="0s" dur="11.0s" from="M-100,-100" to="M-100,-100" />
</path>
</g>
</g>
</g>
</svg>