<?xml version="1.0" encoding="UTF-8"?>
<!--
AniKanjiVG is licensed by CC-BY-SA Paul C. Sommerhoff (https://bitbucket.org/sommerhoff/anikanjivg).
AniKanjiVG uses KanjiVG which is licensed by CC-BY-SA Ulrich Apel (http://kanjivg.tagaini.net).
See also http://creativecommons.org/licenses/by-sa/3.0/
-->
<svg xmlns:kvg='http://kanjivg.tagaini.net' xmlns='http://www.w3.org/2000/svg' width='109' height='109' viewBox='0 0 109 109' style='fill:none;stroke:#000000;stroke-width:3;stroke-linecap:round;stroke-linejoin:round;' id="kvg:kanji_06f13"><g id="kvg:06f13" kvg:element="漓"><g id="kvg:06f13-g1" kvg:element="氵" kvg:variant="true" kvg:original="水" kvg:position="left" kvg:radical="general"><path id="kvg:06f13-s1" kvg:type="㇔" d="M 16.63,17.5 c 4.45,1.52 11.5,6.23 12.62,8.59"><animate attributeName="d" begin="0.0s" dur="1.0s" from="M 16.63,17.5 C 16.63,17.5 , 16.63,17.5 , 16.63,17.5 " to="M 16.63,17.5 c 4.45,1.52 11.5,6.23 12.62,8.59" />
</path>
<path id="kvg:06f13-s2" kvg:type="㇔" d="M 13.75,41 c 4.5,1.59 11.62,6.53 12.75,9"><animate attributeName="d" begin="1.0s" dur="1.0s" from="M 13.75,41 C 13.75,41 , 13.75,41 , 13.75,41 " to="M 13.75,41 c 4.5,1.59 11.62,6.53 12.75,9" />
<animate attributeName="d" begin="0s" dur="1.0s" from="M-100,-100" to="M-100,-100" />
</path>
<path id="kvg:06f13-s3" kvg:type="㇀" d="M 13.25,89.73 c 1.71,1.27 3.78,1.32 4.86,-0.25 3.14,-4.57 8.79,-16.66 11.64,-22.49"><animate attributeName="d" begin="2.0s" dur="1.0s" from="M 13.25,89.73 C 13.25,89.73 , 13.25,89.73 , 13.25,89.73 " to="M 13.25,89.73 c 1.71,1.27 3.78,1.32 4.86,-0.25 3.14,-4.57 8.79,-16.66 11.64,-22.49" />
<animate attributeName="d" begin="0s" dur="2.0s" from="M-100,-100" to="M-100,-100" />
</path>
</g>
<g id="kvg:06f13-g2" kvg:position="right"><g id="kvg:06f13-g3" kvg:element="亠"><path id="kvg:06f13-s4" kvg:type="㇑a" d="M 64.69,10.25 c 0.74,0.34 1.96,1.67 1.96,2.36 0,2.52 -0.23,8.49 -0.1,10.62"><animate attributeName="d" begin="3.0s" dur="1.0s" from="M 64.69,10.25 C 64.69,10.25 , 64.69,10.25 , 64.69,10.25 " to="M 64.69,10.25 c 0.74,0.34 1.96,1.67 1.96,2.36 0,2.52 -0.23,8.49 -0.1,10.62" />
<animate attributeName="d" begin="0s" dur="3.0s" from="M-100,-100" to="M-100,-100" />
</path>
<path id="kvg:06f13-s5" kvg:type="㇐" d="M 40.42,24.01 c 2.09,0.33 3.92,0.56 6.33,0.47 C 59.5,24 71.38,22.77 88.04,22.1 c 2.45,-0.1 3.7,0.04 5.53,0.6"><animate attributeName="d" begin="4.0s" dur="0.3333333333333333s" from="M 40.42,24.01 C 40.42,24.01 , 40.42,24.01 , 40.42,24.01 " to="M 40.42,24.01 c 2.09,0.33 3.92,0.56 6.33,0.47 " />
<animate attributeName="d" begin="4.333333333333333s" dur="0.3333333333333333s" from="M 40.42,24.01 c 2.09,0.33 3.92,0.56 6.33,0.47 c0,0,0,0,0,0,0" to="M 40.42,24.01 c 2.09,0.33 3.92,0.56 6.33,0.47 C 59.5,24 71.38,22.77 88.04,22.1 " />
<animate attributeName="d" begin="4.666666666666667s" dur="0.3333333333333333s" from="M 40.42,24.01 c 2.09,0.33 3.92,0.56 6.33,0.47 C 59.5,24 71.38,22.77 88.04,22.1 c0,0,0,0,0,0,0" to="M 40.42,24.01 c 2.09,0.33 3.92,0.56 6.33,0.47 C 59.5,24 71.38,22.77 88.04,22.1 c 2.45,-0.1 3.7,0.04 5.53,0.6" />
<animate attributeName="d" begin="0s" dur="4.0s" from="M-100,-100" to="M-100,-100" />
</path>
</g>
<g id="kvg:06f13-g4" kvg:element="凶"><g id="kvg:06f13-g5" kvg:element="乂"><g id="kvg:06f13-g6" kvg:element="丿"><path id="kvg:06f13-s6" kvg:type="㇒" d="M 75.96,27.93 c 0.35,0.45 0.7,0.81 0.18,1.61 -4.71,7.16 -10.89,11.71 -21.87,16.9"><animate attributeName="d" begin="5.0s" dur="1.0s" from="M 75.96,27.93 C 75.96,27.93 , 75.96,27.93 , 75.96,27.93 " to="M 75.96,27.93 c 0.35,0.45 0.7,0.81 0.18,1.61 -4.71,7.16 -10.89,11.71 -21.87,16.9" />
<animate attributeName="d" begin="0s" dur="5.0s" from="M-100,-100" to="M-100,-100" />
</path>
</g>
<path id="kvg:06f13-s7" kvg:type="㇔/㇏" d="M 56.56,31.35 c 7.37,2.18 17.98,9.26 21.83,14.45"><animate attributeName="d" begin="6.0s" dur="1.0s" from="M 56.56,31.35 C 56.56,31.35 , 56.56,31.35 , 56.56,31.35 " to="M 56.56,31.35 c 7.37,2.18 17.98,9.26 21.83,14.45" />
<animate attributeName="d" begin="0s" dur="6.0s" from="M-100,-100" to="M-100,-100" />
</path>
</g>
<g id="kvg:06f13-g7" kvg:element="凵" kvg:position="kamae"><path id="kvg:06f13-s8" kvg:type="㇄a" d="M 47.67,31.3 c 0.42,0.2 1.3,1.47 1.38,1.86 0.61,2.87 -0.54,16.6 -0.58,17.53 -0.04,0.93 0.91,1.41 1.73,1.33 13.05,-1.27 31.65,-2.36 35.97,-2.55"><animate attributeName="d" begin="7.0s" dur="1.0s" from="M 47.67,31.3 C 47.67,31.3 , 47.67,31.3 , 47.67,31.3 " to="M 47.67,31.3 c 0.42,0.2 1.3,1.47 1.38,1.86 0.61,2.87 -0.54,16.6 -0.58,17.53 -0.04,0.93 0.91,1.41 1.73,1.33 13.05,-1.27 31.65,-2.36 35.97,-2.55" />
<animate attributeName="d" begin="0s" dur="7.0s" from="M-100,-100" to="M-100,-100" />
</path>
<path id="kvg:06f13-s9" kvg:type="㇑" d="M 86.88,28.08 c 0.42,0.2 1.3,1.47 1.38,1.86 0.08,0.39 -1.31,14.7 -1.68,22.42"><animate attributeName="d" begin="8.0s" dur="1.0s" from="M 86.88,28.08 C 86.88,28.08 , 86.88,28.08 , 86.88,28.08 " to="M 86.88,28.08 c 0.42,0.2 1.3,1.47 1.38,1.86 0.08,0.39 -1.31,14.7 -1.68,22.42" />
<animate attributeName="d" begin="0s" dur="8.0s" from="M-100,-100" to="M-100,-100" />
</path>
</g>
</g>
<g id="kvg:06f13-g8" kvg:element="禸"><g id="kvg:06f13-g9" kvg:element="冂"><path id="kvg:06f13-s10" kvg:type="㇑" d="M 42.9,61.73 c 0.75,0.9 0.88,2.34 1.01,3.98 0.34,4.29 1.75,30.58 1.75,33.29"><animate attributeName="d" begin="9.0s" dur="1.0s" from="M 42.9,61.73 C 42.9,61.73 , 42.9,61.73 , 42.9,61.73 " to="M 42.9,61.73 c 0.75,0.9 0.88,2.34 1.01,3.98 0.34,4.29 1.75,30.58 1.75,33.29" />
<animate attributeName="d" begin="0s" dur="9.0s" from="M-100,-100" to="M-100,-100" />
</path>
<path id="kvg:06f13-s11" kvg:type="㇆" d="M 44.13,63.46 c 6.68,-0.76 46.19,-2.96 47.52,-2.96 1.93,0 3.16,0.57 3.16,2.27 0,3.59 -2.07,23.36 -3.35,28.72 -2.06,8.65 -5.45,3.74 -7.24,1.94"><animate attributeName="d" begin="10.0s" dur="1.0s" from="M 44.13,63.46 C 44.13,63.46 , 44.13,63.46 , 44.13,63.46 " to="M 44.13,63.46 c 6.68,-0.76 46.19,-2.96 47.52,-2.96 1.93,0 3.16,0.57 3.16,2.27 0,3.59 -2.07,23.36 -3.35,28.72 -2.06,8.65 -5.45,3.74 -7.24,1.94" />
<animate attributeName="d" begin="0s" dur="10.0s" from="M-100,-100" to="M-100,-100" />
</path>
</g>
<path id="kvg:06f13-s12" kvg:type="㇜" d="M 66.54,53.25 c 0.29,0.5 0.37,2.46 0.1,3.08 -3.545644,11.817751 -4.500634,16.741616 -5.805787,22.015808"><animate attributeName="d" begin="11.0s" dur="1.0s" from="M 66.54,53.25 C 66.54,53.25 , 66.54,53.25 , 66.54,53.25 " to="M 66.54,53.25 c 0.29,0.5 0.37,2.46 0.1,3.08 -3.545644,11.817751 -4.500634,16.741616 -5.805787,22.015808" />
<animate attributeName="d" begin="0s" dur="11.0s" from="M-100,-100" to="M-100,-100" />
</path>
<path id="kvg:06f13-s13" kvg:type="㇜" d="M 53.824029,80.456421 c 8.3,-2.46 15.55,-4.46 22.99,-6.56"><animate attributeName="d" begin="12.0s" dur="1.0s" from="M 53.824029,80.456421 C 53.824029,80.456421 , 53.824029,80.456421 , 53.824029,80.456421 " to="M 53.824029,80.456421 c 8.3,-2.46 15.55,-4.46 22.99,-6.56" />
<animate attributeName="d" begin="0s" dur="12.0s" from="M-100,-100" to="M-100,-100" />
</path>
<path id="kvg:06f13-s14" kvg:type="㇔" d="M 73.08,66.81 c 3.08,2.76 7.96,11.36 8.73,15.66"><animate attributeName="d" begin="13.0s" dur="1.0s" from="M 73.08,66.81 C 73.08,66.81 , 73.08,66.81 , 73.08,66.81 " to="M 73.08,66.81 c 3.08,2.76 7.96,11.36 8.73,15.66" />
<animate attributeName="d" begin="0s" dur="13.0s" from="M-100,-100" to="M-100,-100" />
</path>
</g>
</g>
</g>
</svg>