<?xml version="1.0" encoding="UTF-8"?>
<!--
AniKanjiVG is licensed by CC-BY-SA Paul C. Sommerhoff (https://bitbucket.org/sommerhoff/anikanjivg).
AniKanjiVG uses KanjiVG which is licensed by CC-BY-SA Ulrich Apel (http://kanjivg.tagaini.net).
See also http://creativecommons.org/licenses/by-sa/3.0/
-->
<svg xmlns:kvg='http://kanjivg.tagaini.net' xmlns='http://www.w3.org/2000/svg' width='109' height='109' viewBox='0 0 109 109' style='fill:none;stroke:#000000;stroke-width:3;stroke-linecap:round;stroke-linejoin:round;' id="kvg:kanji_07483"><g id="kvg:07483" kvg:element="璃"><g id="kvg:07483-g1" kvg:element="王" kvg:original="玉" kvg:partial="true" kvg:position="left" kvg:radical="general"><path id="kvg:07483-s1" kvg:type="㇐" d="M 11.35,24.75 c 1.24,0.68 3.63,0.46 4.99,0.34 4.96,-0.45 10.35,-1.04 17.44,-2.02 1.45,-0.2 3.25,-0.59 4.67,-0.07"><animate attributeName="d" begin="0.0s" dur="1.0s" from="M 11.35,24.75 C 11.35,24.75 , 11.35,24.75 , 11.35,24.75 " to="M 11.35,24.75 c 1.24,0.68 3.63,0.46 4.99,0.34 4.96,-0.45 10.35,-1.04 17.44,-2.02 1.45,-0.2 3.25,-0.59 4.67,-0.07" />
</path>
<path id="kvg:07483-s2" kvg:type="㇑a" d="M 25.05,27.77 c 1.09,1.09 1.33,2.36 1.33,3.98 0,5.95 -0.01,38.8 -0.01,45.12"><animate attributeName="d" begin="1.0s" dur="1.0s" from="M 25.05,27.77 C 25.05,27.77 , 25.05,27.77 , 25.05,27.77 " to="M 25.05,27.77 c 1.09,1.09 1.33,2.36 1.33,3.98 0,5.95 -0.01,38.8 -0.01,45.12" />
<animate attributeName="d" begin="0s" dur="1.0s" from="M-100,-100" to="M-100,-100" />
</path>
<path id="kvg:07483-s3" kvg:type="㇐" d="M 12.27,51.25 c 1.86,0.38 3.32,0.42 5.15,0.1 4.7,-0.83 12.24,-2.75 16.46,-3.55 1.36,-0.26 2.48,-0.47 3.87,-0.21"><animate attributeName="d" begin="2.0s" dur="1.0s" from="M 12.27,51.25 C 12.27,51.25 , 12.27,51.25 , 12.27,51.25 " to="M 12.27,51.25 c 1.86,0.38 3.32,0.42 5.15,0.1 4.7,-0.83 12.24,-2.75 16.46,-3.55 1.36,-0.26 2.48,-0.47 3.87,-0.21" />
<animate attributeName="d" begin="0s" dur="2.0s" from="M-100,-100" to="M-100,-100" />
</path>
<path id="kvg:07483-s4" kvg:type="㇐" d="M 11,82.75 c 1.38,1.38 2.62,1.62 4.49,0.75 C 21.14,80.85 27.5,77.25 37.41,72"><animate attributeName="d" begin="3.0s" dur="0.5s" from="M 11,82.75 C 11,82.75 , 11,82.75 , 11,82.75 " to="M 11,82.75 c 1.38,1.38 2.62,1.62 4.49,0.75 " />
<animate attributeName="d" begin="3.5s" dur="0.5s" from="M 11,82.75 c 1.38,1.38 2.62,1.62 4.49,0.75 c0,0,0,0,0,0,0" to="M 11,82.75 c 1.38,1.38 2.62,1.62 4.49,0.75 C 21.14,80.85 27.5,77.25 37.41,72" />
<animate attributeName="d" begin="0s" dur="3.0s" from="M-100,-100" to="M-100,-100" />
</path>
</g>
<g id="kvg:07483-g2" kvg:position="right"><g id="kvg:07483-g3" kvg:element="亠"><path id="kvg:07483-s5" kvg:type="㇑a" d="M 66.04,10.03 c 0.96,0.96 1.21,2.12 1.21,3.47 0,2.37 0.05,4.75 0.05,7.48"><animate attributeName="d" begin="4.0s" dur="1.0s" from="M 66.04,10.03 C 66.04,10.03 , 66.04,10.03 , 66.04,10.03 " to="M 66.04,10.03 c 0.96,0.96 1.21,2.12 1.21,3.47 0,2.37 0.05,4.75 0.05,7.48" />
<animate attributeName="d" begin="0s" dur="4.0s" from="M-100,-100" to="M-100,-100" />
</path>
<path id="kvg:07483-s6" kvg:type="㇐" d="M 45.17,23.9 c 3.01,0.48 5.82,0.11 8.83,-0.21 8.95,-0.94 23.18,-2.7 32.49,-3.33 2.48,-0.17 5.16,-0.59 7.58,0.14"><animate attributeName="d" begin="5.0s" dur="1.0s" from="M 45.17,23.9 C 45.17,23.9 , 45.17,23.9 , 45.17,23.9 " to="M 45.17,23.9 c 3.01,0.48 5.82,0.11 8.83,-0.21 8.95,-0.94 23.18,-2.7 32.49,-3.33 2.48,-0.17 5.16,-0.59 7.58,0.14" />
<animate attributeName="d" begin="0s" dur="5.0s" from="M-100,-100" to="M-100,-100" />
</path>
</g>
<g id="kvg:07483-g4" kvg:element="凶"><g id="kvg:07483-g5" kvg:element="乂"><g id="kvg:07483-g6" kvg:element="丿"><path id="kvg:07483-s7" kvg:type="㇒" d="M 76.28,27.18 c 0.1,0.82 0.17,1.68 -0.35,2.51 -3.68,5.94 -8.8,11.81 -17.66,17.99"><animate attributeName="d" begin="6.0s" dur="1.0s" from="M 76.28,27.18 C 76.28,27.18 , 76.28,27.18 , 76.28,27.18 " to="M 76.28,27.18 c 0.1,0.82 0.17,1.68 -0.35,2.51 -3.68,5.94 -8.8,11.81 -17.66,17.99" />
<animate attributeName="d" begin="0s" dur="6.0s" from="M-100,-100" to="M-100,-100" />
</path>
</g>
<path id="kvg:07483-s8" kvg:type="㇔/㇏" d="M 60.31,31.6 C 66.5,34 75.16,40.58 78.4,45.05"><animate attributeName="d" begin="7.0s" dur="1.0s" from="M 60.31,31.6 C 60.31,31.6 , 60.31,31.6 , 60.31,31.6 " to="M 60.31,31.6 C 66.5,34 75.16,40.58 78.4,45.05" />
<animate attributeName="d" begin="0s" dur="7.0s" from="M-100,-100" to="M-100,-100" />
</path>
</g>
<g id="kvg:07483-g7" kvg:element="凵" kvg:position="kamae"><path id="kvg:07483-s9" kvg:type="㇄a" d="M 50.42,31.3 c 0.7,0.7 1.13,1.7 1.13,2.86 0,2.2 0.09,10.03 -0.01,14.34 -0.07,2.85 -0.02,4.25 3.12,3.81 6.16,-0.87 28.63,-3.43 32.26,-3.6"><animate attributeName="d" begin="8.0s" dur="1.0s" from="M 50.42,31.3 C 50.42,31.3 , 50.42,31.3 , 50.42,31.3 " to="M 50.42,31.3 c 0.7,0.7 1.13,1.7 1.13,2.86 0,2.2 0.09,10.03 -0.01,14.34 -0.07,2.85 -0.02,4.25 3.12,3.81 6.16,-0.87 28.63,-3.43 32.26,-3.6" />
<animate attributeName="d" begin="0s" dur="8.0s" from="M-100,-100" to="M-100,-100" />
</path>
<path id="kvg:07483-s10" kvg:type="㇑" d="M 87.38,27.08 c 0.96,0.96 1.39,2.02 1.34,3.17 -0.13,2.84 -0.29,10.01 -0.62,15.99 -0.11,1.95 -0.2,3.8 -0.28,5.37"><animate attributeName="d" begin="9.0s" dur="1.0s" from="M 87.38,27.08 C 87.38,27.08 , 87.38,27.08 , 87.38,27.08 " to="M 87.38,27.08 c 0.96,0.96 1.39,2.02 1.34,3.17 -0.13,2.84 -0.29,10.01 -0.62,15.99 -0.11,1.95 -0.2,3.8 -0.28,5.37" />
<animate attributeName="d" begin="0s" dur="9.0s" from="M-100,-100" to="M-100,-100" />
</path>
</g>
</g>
<g id="kvg:07483-g8" kvg:element="禸"><g id="kvg:07483-g9" kvg:element="冂"><path id="kvg:07483-s11" kvg:type="㇑" d="M 44.77,64.23 c 0.94,0.94 1.34,2.37 1.46,4.04 0.23,3.11 0.99,15.5 1.4,23.36 0.17,3.16 0.28,5.58 0.28,6.38"><animate attributeName="d" begin="10.0s" dur="1.0s" from="M 44.77,64.23 C 44.77,64.23 , 44.77,64.23 , 44.77,64.23 " to="M 44.77,64.23 c 0.94,0.94 1.34,2.37 1.46,4.04 0.23,3.11 0.99,15.5 1.4,23.36 0.17,3.16 0.28,5.58 0.28,6.38" />
<animate attributeName="d" begin="0s" dur="10.0s" from="M-100,-100" to="M-100,-100" />
</path>
<path id="kvg:07483-s12" kvg:type="㇆" d="M 46.88,65.96 c 5.89,-0.67 35.91,-4.21 43.88,-5.04 3.63,-0.38 5.3,0.33 4.91,4.21 -0.62,6.14 -3.09,20.95 -4.2,25.6 -2.06,8.65 -5.59,4.14 -8.24,0.94"><animate attributeName="d" begin="11.0s" dur="1.0s" from="M 46.88,65.96 C 46.88,65.96 , 46.88,65.96 , 46.88,65.96 " to="M 46.88,65.96 c 5.89,-0.67 35.91,-4.21 43.88,-5.04 3.63,-0.38 5.3,0.33 4.91,4.21 -0.62,6.14 -3.09,20.95 -4.2,25.6 -2.06,8.65 -5.59,4.14 -8.24,0.94" />
<animate attributeName="d" begin="0s" dur="11.0s" from="M-100,-100" to="M-100,-100" />
</path>
</g>
<path id="kvg:07483-s13" kvg:type="㇜" d="M 68.29,53.5 c 0.34,1.12 0.34,1.88 -0.15,3.08 -1.696769,8.965808 -3.522249,15.503892 -4.878855,23.216796"><animate attributeName="d" begin="12.0s" dur="1.0s" from="M 68.29,53.5 C 68.29,53.5 , 68.29,53.5 , 68.29,53.5 " to="M 68.29,53.5 c 0.34,1.12 0.34,1.88 -0.15,3.08 -1.696769,8.965808 -3.522249,15.503892 -4.878855,23.216796" />
<animate attributeName="d" begin="0s" dur="12.0s" from="M-100,-100" to="M-100,-100" />
</path>
<path id="kvg:07483-s14" kvg:type="㇜" d="M 58.589836,81.261554 c 4.84,-1.45 13.11,-4.14 18.82,-6.21"><animate attributeName="d" begin="13.0s" dur="1.0s" from="M 58.589836,81.261554 C 58.589836,81.261554 , 58.589836,81.261554 , 58.589836,81.261554 " to="M 58.589836,81.261554 c 4.84,-1.45 13.11,-4.14 18.82,-6.21" />
<animate attributeName="d" begin="0s" dur="13.0s" from="M-100,-100" to="M-100,-100" />
</path>
<path id="kvg:07483-s15" kvg:type="㇔" d="M 74.12,69 c 2.89,2.29 7.47,9.41 8.19,12.97"><animate attributeName="d" begin="14.0s" dur="1.0s" from="M 74.12,69 C 74.12,69 , 74.12,69 , 74.12,69 " to="M 74.12,69 c 2.89,2.29 7.47,9.41 8.19,12.97" />
<animate attributeName="d" begin="0s" dur="14.0s" from="M-100,-100" to="M-100,-100" />
</path>
</g>
</g>
</g>
</svg>