<?xml version="1.0" encoding="UTF-8"?>
<!--
AniKanjiVG is licensed by CC-BY-SA Paul C. Sommerhoff (https://bitbucket.org/sommerhoff/anikanjivg).
AniKanjiVG uses KanjiVG which is licensed by CC-BY-SA Ulrich Apel (http://kanjivg.tagaini.net).
See also http://creativecommons.org/licenses/by-sa/3.0/
-->
<svg xmlns:kvg='http://kanjivg.tagaini.net' xmlns='http://www.w3.org/2000/svg' width='109' height='109' viewBox='0 0 109 109' style='fill:none;stroke:#000000;stroke-width:3;stroke-linecap:round;stroke-linejoin:round;' id="kvg:kanji_079bd"><g id="kvg:079bd" kvg:element="禽"><g id="kvg:079bd-g1" kvg:element="人" kvg:position="top" kvg:radical="nelson"><path id="kvg:079bd-s1" kvg:type="㇒" d="M 52.75,9 c 0.11,0.85 -0.1,2.27 -0.72,3.41 C 48,19.75 33.25,35.5 12,44.75"><animate attributeName="d" begin="0.0s" dur="0.5s" from="M 52.75,9 C 52.75,9 , 52.75,9 , 52.75,9 " to="M 52.75,9 c 0.11,0.85 -0.1,2.27 -0.72,3.41 " />
<animate attributeName="d" begin="0.5s" dur="0.5s" from="M 52.75,9 c 0.11,0.85 -0.1,2.27 -0.72,3.41 c0,0,0,0,0,0,0" to="M 52.75,9 c 0.11,0.85 -0.1,2.27 -0.72,3.41 C 48,19.75 33.25,35.5 12,44.75" />
</path>
<path id="kvg:079bd-s2" kvg:type="㇏" d="M 53.38,13 c 5.38,4.88 21,15.75 30.04,22.24 3.29,2.37 6.7,4.64 10.58,5.76"><animate attributeName="d" begin="1.0s" dur="1.0s" from="M 53.38,13 C 53.38,13 , 53.38,13 , 53.38,13 " to="M 53.38,13 c 5.38,4.88 21,15.75 30.04,22.24 3.29,2.37 6.7,4.64 10.58,5.76" />
<animate attributeName="d" begin="0s" dur="1.0s" from="M-100,-100" to="M-100,-100" />
</path>
</g>
<g id="kvg:079bd-g2" kvg:position="bottom"><g id="kvg:079bd-g3" kvg:element="亠"><path id="kvg:079bd-s3" kvg:type="㇑a" d="M 52.97,25 c 0.83,0.83 1.04,2.02 1.04,2.75 0,2.67 -0.01,4.88 -0.01,7.5"><animate attributeName="d" begin="2.0s" dur="1.0s" from="M 52.97,25 C 52.97,25 , 52.97,25 , 52.97,25 " to="M 52.97,25 c 0.83,0.83 1.04,2.02 1.04,2.75 0,2.67 -0.01,4.88 -0.01,7.5" />
<animate attributeName="d" begin="0s" dur="2.0s" from="M-100,-100" to="M-100,-100" />
</path>
<path id="kvg:079bd-s4" kvg:type="㇐" d="M 32.75,37.45 c 2.66,0.52 5.44,0.35 8.11,0.06 C 49,36.62 60.09,35.69 68,35.19 c 2.52,-0.22 5.02,-0.1 7.5,0.36"><animate attributeName="d" begin="3.0s" dur="0.3333333333333333s" from="M 32.75,37.45 C 32.75,37.45 , 32.75,37.45 , 32.75,37.45 " to="M 32.75,37.45 c 2.66,0.52 5.44,0.35 8.11,0.06 " />
<animate attributeName="d" begin="3.3333333333333335s" dur="0.3333333333333333s" from="M 32.75,37.45 c 2.66,0.52 5.44,0.35 8.11,0.06 c0,0,0,0,0,0,0" to="M 32.75,37.45 c 2.66,0.52 5.44,0.35 8.11,0.06 C 49,36.62 60.09,35.69 68,35.19 " />
<animate attributeName="d" begin="3.6666666666666665s" dur="0.3333333333333333s" from="M 32.75,37.45 c 2.66,0.52 5.44,0.35 8.11,0.06 C 49,36.62 60.09,35.69 68,35.19 c0,0,0,0,0,0,0" to="M 32.75,37.45 c 2.66,0.52 5.44,0.35 8.11,0.06 C 49,36.62 60.09,35.69 68,35.19 c 2.52,-0.22 5.02,-0.1 7.5,0.36" />
<animate attributeName="d" begin="0s" dur="3.0s" from="M-100,-100" to="M-100,-100" />
</path>
</g>
<g id="kvg:079bd-g4" kvg:element="凶"><g id="kvg:079bd-g5" kvg:element="乂"><g id="kvg:079bd-g6" kvg:element="丿"><path id="kvg:079bd-s5" kvg:type="㇒" d="M 62.8,38.93 c -0.08,1.18 -0.43,2.23 -1.21,3.02 C 55.62,48 48.5,53 39.34,56.19"><animate attributeName="d" begin="4.0s" dur="0.5s" from="M 62.8,38.93 C 62.8,38.93 , 62.8,38.93 , 62.8,38.93 " to="M 62.8,38.93 c -0.08,1.18 -0.43,2.23 -1.21,3.02 " />
<animate attributeName="d" begin="4.5s" dur="0.5s" from="M 62.8,38.93 c -0.08,1.18 -0.43,2.23 -1.21,3.02 c0,0,0,0,0,0,0" to="M 62.8,38.93 c -0.08,1.18 -0.43,2.23 -1.21,3.02 C 55.62,48 48.5,53 39.34,56.19" />
<animate attributeName="d" begin="0s" dur="4.0s" from="M-100,-100" to="M-100,-100" />
</path>
</g>
<path id="kvg:079bd-s6" kvg:type="㇔/㇏" d="M 42.39,43.09 C 50.5,44.7 62.16,49.7 66.4,53.54"><animate attributeName="d" begin="5.0s" dur="1.0s" from="M 42.39,43.09 C 42.39,43.09 , 42.39,43.09 , 42.39,43.09 " to="M 42.39,43.09 C 50.5,44.7 62.16,49.7 66.4,53.54" />
<animate attributeName="d" begin="0s" dur="5.0s" from="M-100,-100" to="M-100,-100" />
</path>
</g>
<g id="kvg:079bd-g7" kvg:element="凵" kvg:position="kamae"><path id="kvg:079bd-s7" kvg:type="㇄a" d="M 32.32,43.22 c 0.85,0.85 0.74,1.74 0.62,2.86 -0.5,4.53 -1,8.76 -1.27,10.93 -0.28,2.34 0.71,3.99 3.22,3.77 C 48.12,59.62 61,58.49 75,58.25"><animate attributeName="d" begin="6.0s" dur="0.5s" from="M 32.32,43.22 C 32.32,43.22 , 32.32,43.22 , 32.32,43.22 " to="M 32.32,43.22 c 0.85,0.85 0.74,1.74 0.62,2.86 -0.5,4.53 -1,8.76 -1.27,10.93 -0.28,2.34 0.71,3.99 3.22,3.77 " />
<animate attributeName="d" begin="6.5s" dur="0.5s" from="M 32.32,43.22 c 0.85,0.85 0.74,1.74 0.62,2.86 -0.5,4.53 -1,8.76 -1.27,10.93 -0.28,2.34 0.71,3.99 3.22,3.77 c0,0,0,0,0,0,0" to="M 32.32,43.22 c 0.85,0.85 0.74,1.74 0.62,2.86 -0.5,4.53 -1,8.76 -1.27,10.93 -0.28,2.34 0.71,3.99 3.22,3.77 C 48.12,59.62 61,58.49 75,58.25" />
<animate attributeName="d" begin="0s" dur="6.0s" from="M-100,-100" to="M-100,-100" />
</path>
<path id="kvg:079bd-s8" kvg:type="㇑" d="M 76.31,39.74 c 0.72,0.72 0.66,1.63 0.66,2.5 0,0.29 -0.27,6.82 -0.5,13.12 -0.07,1.92 -0.14,3.82 -0.2,5.52"><animate attributeName="d" begin="7.0s" dur="1.0s" from="M 76.31,39.74 C 76.31,39.74 , 76.31,39.74 , 76.31,39.74 " to="M 76.31,39.74 c 0.72,0.72 0.66,1.63 0.66,2.5 0,0.29 -0.27,6.82 -0.5,13.12 -0.07,1.92 -0.14,3.82 -0.2,5.52" />
<animate attributeName="d" begin="0s" dur="7.0s" from="M-100,-100" to="M-100,-100" />
</path>
</g>
</g>
<g id="kvg:079bd-g8" kvg:element="禸" kvg:radical="tradit"><path id="kvg:079bd-s9" kvg:type="㇑" d="M 24.77,67.95 c 1.08,1.08 1.29,2.71 1.41,3.65 0.44,3.56 1.13,12.68 1.74,21.03 0.18,2.5 0.36,4.93 0.51,7.12"><animate attributeName="d" begin="8.0s" dur="1.0s" from="M 24.77,67.95 C 24.77,67.95 , 24.77,67.95 , 24.77,67.95 " to="M 24.77,67.95 c 1.08,1.08 1.29,2.71 1.41,3.65 0.44,3.56 1.13,12.68 1.74,21.03 0.18,2.5 0.36,4.93 0.51,7.12" />
<animate attributeName="d" begin="0s" dur="8.0s" from="M-100,-100" to="M-100,-100" />
</path>
<path id="kvg:079bd-s10" kvg:type="㇆" d="M 26.89,70.54 c 7.97,-0.5 44.64,-3.2 53,-3.89 4.61,-0.38 6.57,0.9 5.86,5.75 -0.9,6.2 -3.37,17.35 -5.4,23.01 -2.38,6.64 -4.56,3.82 -7.57,-0.05"><animate attributeName="d" begin="9.0s" dur="1.0s" from="M 26.89,70.54 C 26.89,70.54 , 26.89,70.54 , 26.89,70.54 " to="M 26.89,70.54 c 7.97,-0.5 44.64,-3.2 53,-3.89 4.61,-0.38 6.57,0.9 5.86,5.75 -0.9,6.2 -3.37,17.35 -5.4,23.01 -2.38,6.64 -4.56,3.82 -7.57,-0.05" />
<animate attributeName="d" begin="0s" dur="9.0s" from="M-100,-100" to="M-100,-100" />
</path>
<path id="kvg:079bd-s11" kvg:type="㇜" d="M 53.63,62 c -0.13,1.38 -0.57,2.21 -1.13,3.2 -1.848221,5.99726 -3.36499,10.535808 -4.993047,15.264519"><animate attributeName="d" begin="10.0s" dur="1.0s" from="M 53.63,62 C 53.63,62 , 53.63,62 , 53.63,62 " to="M 53.63,62 c -0.13,1.38 -0.57,2.21 -1.13,3.2 -1.848221,5.99726 -3.36499,10.535808 -4.993047,15.264519" />
<animate attributeName="d" begin="0s" dur="10.0s" from="M-100,-100" to="M-100,-100" />
</path>
<path id="kvg:079bd-s12" kvg:type="㇜" d="M 43.29,82.84 C 50,81.5 56,80.38 65.75,78.62"><animate attributeName="d" begin="11.0s" dur="1.0s" from="M 43.29,82.84 C 43.29,82.84 , 43.29,82.84 , 43.29,82.84 " to="M 43.29,82.84 C 50,81.5 56,80.38 65.75,78.62" />
<animate attributeName="d" begin="0s" dur="11.0s" from="M-100,-100" to="M-100,-100" />
</path>
<path id="kvg:079bd-s13" kvg:type="㇔" d="M 61.54,71.34 c 3.72,2.36 9.12,9.96 10.05,13.63"><animate attributeName="d" begin="12.0s" dur="1.0s" from="M 61.54,71.34 C 61.54,71.34 , 61.54,71.34 , 61.54,71.34 " to="M 61.54,71.34 c 3.72,2.36 9.12,9.96 10.05,13.63" />
<animate attributeName="d" begin="0s" dur="12.0s" from="M-100,-100" to="M-100,-100" />
</path>
</g>
</g>
</g>
</svg>