<?xml version="1.0" encoding="UTF-8"?>
<!--
AniKanjiVG is licensed by CC-BY-SA Paul C. Sommerhoff (https://bitbucket.org/sommerhoff/anikanjivg).
AniKanjiVG uses KanjiVG which is licensed by CC-BY-SA Ulrich Apel (http://kanjivg.tagaini.net).
See also http://creativecommons.org/licenses/by-sa/3.0/
-->
<svg xmlns:kvg='http://kanjivg.tagaini.net' xmlns='http://www.w3.org/2000/svg' width='109' height='109' viewBox='0 0 109 109' style='fill:none;stroke:#000000;stroke-width:3;stroke-linecap:round;stroke-linejoin:round;' id="kvg:kanji_07c6c"><g id="kvg:07c6c" kvg:element="籬"><g id="kvg:07c6c-g1" kvg:element="竹" kvg:variant="true" kvg:position="top" kvg:radical="general"><g id="kvg:07c6c-g2" kvg:position="left"><path id="kvg:07c6c-s1" kvg:type="㇒" d="M 27,9.25 c 0.04,0.54 0.08,1.4 -0.08,2.18 C 25.96,16.01 20.49,26.08 13,32.25"><animate attributeName="d" begin="0.0s" dur="0.5s" from="M 27,9.25 C 27,9.25 , 27,9.25 , 27,9.25 " to="M 27,9.25 c 0.04,0.54 0.08,1.4 -0.08,2.18 " />
<animate attributeName="d" begin="0.5s" dur="0.5s" from="M 27,9.25 c 0.04,0.54 0.08,1.4 -0.08,2.18 c0,0,0,0,0,0,0" to="M 27,9.25 c 0.04,0.54 0.08,1.4 -0.08,2.18 C 25.96,16.01 20.49,26.08 13,32.25" />
</path>
<path id="kvg:07c6c-s2" kvg:type="㇐b" d="M 26.98,20.02 c 4.04,0 18.49,-2.26 23.02,-2.26"><animate attributeName="d" begin="1.0s" dur="1.0s" from="M 26.98,20.02 C 26.98,20.02 , 26.98,20.02 , 26.98,20.02 " to="M 26.98,20.02 c 4.04,0 18.49,-2.26 23.02,-2.26" />
<animate attributeName="d" begin="0s" dur="1.0s" from="M-100,-100" to="M-100,-100" />
</path>
<path id="kvg:07c6c-s3" kvg:type="㇔/㇑" d="M 33.27,21.33 c 2.29,1.53 5.91,6.29 6.48,8.67"><animate attributeName="d" begin="2.0s" dur="1.0s" from="M 33.27,21.33 C 33.27,21.33 , 33.27,21.33 , 33.27,21.33 " to="M 33.27,21.33 c 2.29,1.53 5.91,6.29 6.48,8.67" />
<animate attributeName="d" begin="0s" dur="2.0s" from="M-100,-100" to="M-100,-100" />
</path>
</g>
<g id="kvg:07c6c-g3" kvg:position="right"><path id="kvg:07c6c-s4" kvg:type="㇒" d="M 60.49,9.5 c 0.03,0.45 0.13,1.18 -0.06,1.82 -1.47,4.77 -5.54,11.57 -10.93,17.43"><animate attributeName="d" begin="3.0s" dur="1.0s" from="M 60.49,9.5 C 60.49,9.5 , 60.49,9.5 , 60.49,9.5 " to="M 60.49,9.5 c 0.03,0.45 0.13,1.18 -0.06,1.82 -1.47,4.77 -5.54,11.57 -10.93,17.43" />
<animate attributeName="d" begin="0s" dur="3.0s" from="M-100,-100" to="M-100,-100" />
</path>
<path id="kvg:07c6c-s5" kvg:type="㇐b" d="M 59.98,19.16 c 5.17,0 25.6,-3.57 31.4,-3.57"><animate attributeName="d" begin="4.0s" dur="1.0s" from="M 59.98,19.16 C 59.98,19.16 , 59.98,19.16 , 59.98,19.16 " to="M 59.98,19.16 c 5.17,0 25.6,-3.57 31.4,-3.57" />
<animate attributeName="d" begin="0s" dur="4.0s" from="M-100,-100" to="M-100,-100" />
</path>
<path id="kvg:07c6c-s6" kvg:type="㇒/㇚" d="M 71.75,18.75 c 0.03,0.28 0.06,0.71 -0.06,1.11 -0.7,2.35 -4.71,7.49 -10.2,10.64"><animate attributeName="d" begin="5.0s" dur="1.0s" from="M 71.75,18.75 C 71.75,18.75 , 71.75,18.75 , 71.75,18.75 " to="M 71.75,18.75 c 0.03,0.28 0.06,0.71 -0.06,1.11 -0.7,2.35 -4.71,7.49 -10.2,10.64" />
<animate attributeName="d" begin="0s" dur="5.0s" from="M-100,-100" to="M-100,-100" />
</path>
</g>
</g>
<g id="kvg:07c6c-g4" kvg:element="離" kvg:position="bottom"><g id="kvg:07c6c-g5" kvg:position="left"><g id="kvg:07c6c-g6" kvg:element="亠"><path id="kvg:07c6c-s7" kvg:type="㇑a" d="M 31.82,29.5 c 0.41,0.22 1.09,1.06 1.09,1.49 0,1.6 -0.13,3.37 -0.05,4.72"><animate attributeName="d" begin="6.0s" dur="1.0s" from="M 31.82,29.5 C 31.82,29.5 , 31.82,29.5 , 31.82,29.5 " to="M 31.82,29.5 c 0.41,0.22 1.09,1.06 1.09,1.49 0,1.6 -0.13,3.37 -0.05,4.72" />
<animate attributeName="d" begin="0s" dur="6.0s" from="M-100,-100" to="M-100,-100" />
</path>
<path id="kvg:07c6c-s8" kvg:type="㇐" d="M 12.98,39.36 c 0.98,0.16 1.84,0.35 2.96,0.22 6.68,-0.73 25.23,-3.21 33.01,-3.59 1.14,-0.06 1.73,0.01 2.58,0.28"><animate attributeName="d" begin="7.0s" dur="1.0s" from="M 12.98,39.36 C 12.98,39.36 , 12.98,39.36 , 12.98,39.36 " to="M 12.98,39.36 c 0.98,0.16 1.84,0.35 2.96,0.22 6.68,-0.73 25.23,-3.21 33.01,-3.59 1.14,-0.06 1.73,0.01 2.58,0.28" />
<animate attributeName="d" begin="0s" dur="7.0s" from="M-100,-100" to="M-100,-100" />
</path>
</g>
<g id="kvg:07c6c-g7" kvg:element="凶"><g id="kvg:07c6c-g8" kvg:element="乂"><g id="kvg:07c6c-g9" kvg:element="丿"><path id="kvg:07c6c-s9" kvg:type="㇒" d="M 38.81,40.91 c 0.22,0.35 0.45,0.63 0.11,1.24 -3.01,5.53 -7.5,10.16 -13.99,13.06"><animate attributeName="d" begin="8.0s" dur="1.0s" from="M 38.81,40.91 C 38.81,40.91 , 38.81,40.91 , 38.81,40.91 " to="M 38.81,40.91 c 0.22,0.35 0.45,0.63 0.11,1.24 -3.01,5.53 -7.5,10.16 -13.99,13.06" />
<animate attributeName="d" begin="0s" dur="8.0s" from="M-100,-100" to="M-100,-100" />
</path>
</g>
<path id="kvg:07c6c-s10" kvg:type="㇔/㇏" d="M 26.36,44.36 c 4.86,1.34 11.85,5.7 14.39,8.89"><animate attributeName="d" begin="9.0s" dur="1.0s" from="M 26.36,44.36 C 26.36,44.36 , 26.36,44.36 , 26.36,44.36 " to="M 26.36,44.36 c 4.86,1.34 11.85,5.7 14.39,8.89" />
<animate attributeName="d" begin="0s" dur="9.0s" from="M-100,-100" to="M-100,-100" />
</path>
</g>
<g id="kvg:07c6c-g10" kvg:element="凵" kvg:position="kamae"><path id="kvg:07c6c-s11" kvg:type="㇄a" d="M 17.98,46.13 c 0.32,0.11 1.17,1.44 1.18,1.73 0.09,4.9 -0.94,11.7 -0.9,12.38 0.04,0.67 0.76,0.6 1.36,0.45 8.84,-2.18 24.52,-2.8 27.87,-3.32"><animate attributeName="d" begin="10.0s" dur="1.0s" from="M 17.98,46.13 C 17.98,46.13 , 17.98,46.13 , 17.98,46.13 " to="M 17.98,46.13 c 0.32,0.11 1.17,1.44 1.18,1.73 0.09,4.9 -0.94,11.7 -0.9,12.38 0.04,0.67 0.76,0.6 1.36,0.45 8.84,-2.18 24.52,-2.8 27.87,-3.32" />
<animate attributeName="d" begin="0s" dur="10.0s" from="M-100,-100" to="M-100,-100" />
</path>
<path id="kvg:07c6c-s12" kvg:type="㇑" d="M 47.97,42.67 c 0.34,0.16 1.05,1.23 1.12,1.56 0.07,0.33 -1.26,9.03 -1.56,15.48"><animate attributeName="d" begin="11.0s" dur="1.0s" from="M 47.97,42.67 C 47.97,42.67 , 47.97,42.67 , 47.97,42.67 " to="M 47.97,42.67 c 0.34,0.16 1.05,1.23 1.12,1.56 0.07,0.33 -1.26,9.03 -1.56,15.48" />
<animate attributeName="d" begin="0s" dur="11.0s" from="M-100,-100" to="M-100,-100" />
</path>
</g>
</g>
<g id="kvg:07c6c-g11" kvg:element="禸"><path id="kvg:07c6c-s13" kvg:type="㇑" d="M 14.86,69.24 c 0.39,1.26 1.16,2.49 1.16,3.86 -0.02,3.9 1.7,23.27 1.68,25.64"><animate attributeName="d" begin="12.0s" dur="1.0s" from="M 14.86,69.24 C 14.86,69.24 , 14.86,69.24 , 14.86,69.24 " to="M 14.86,69.24 c 0.39,1.26 1.16,2.49 1.16,3.86 -0.02,3.9 1.7,23.27 1.68,25.64" />
<animate attributeName="d" begin="0s" dur="12.0s" from="M-100,-100" to="M-100,-100" />
</path>
<path id="kvg:07c6c-s14" kvg:type="㇆" d="M 15.51,71.37 c 4.74,-0.68 33.54,-4.89 34.49,-4.89 1.37,0 2.25,0.5 2.25,2.03 0,3.21 -2.23,19.97 -3.13,24.76 -1.45,7.75 -4.87,2.85 -6.14,1.25"><animate attributeName="d" begin="13.0s" dur="1.0s" from="M 15.51,71.37 C 15.51,71.37 , 15.51,71.37 , 15.51,71.37 " to="M 15.51,71.37 c 4.74,-0.68 33.54,-4.89 34.49,-4.89 1.37,0 2.25,0.5 2.25,2.03 0,3.21 -2.23,19.97 -3.13,24.76 -1.45,7.75 -4.87,2.85 -6.14,1.25" />
<animate attributeName="d" begin="0s" dur="13.0s" from="M-100,-100" to="M-100,-100" />
</path>
<path id="kvg:07c6c-s15" kvg:type="㇑" d="M 33.631452,62.979673 C 33.216993,68.060618 31.650451,75.68444 28.707566,82.533231"><animate attributeName="d" begin="14.0s" dur="1.0s" from="M 33.631452,62.979673 C 33.631452,62.979673 , 33.631452,62.979673 , 33.631452,62.979673 " to="M 33.631452,62.979673 C 33.216993,68.060618 31.650451,75.68444 28.707566,82.533231" />
<animate attributeName="d" begin="0s" dur="14.0s" from="M-100,-100" to="M-100,-100" />
</path>
<path id="kvg:07c6c-s16" kvg:type="㇐" d="M 25.72,84.65 C 30.25,83 32.89,82.25 40.75,79.92"><animate attributeName="d" begin="15.0s" dur="1.0s" from="M 25.72,84.65 C 25.72,84.65 , 25.72,84.65 , 25.72,84.65 " to="M 25.72,84.65 C 30.25,83 32.89,82.25 40.75,79.92" />
<animate attributeName="d" begin="0s" dur="15.0s" from="M-100,-100" to="M-100,-100" />
</path>
<path id="kvg:07c6c-s17" kvg:type="㇔" d="M 37.51,73.85 c 2.02,2.01 5.23,8.27 5.74,11.4"><animate attributeName="d" begin="16.0s" dur="1.0s" from="M 37.51,73.85 C 37.51,73.85 , 37.51,73.85 , 37.51,73.85 " to="M 37.51,73.85 c 2.02,2.01 5.23,8.27 5.74,11.4" />
<animate attributeName="d" begin="0s" dur="16.0s" from="M-100,-100" to="M-100,-100" />
</path>
</g>
</g>
<g id="kvg:07c6c-g12" kvg:element="隹" kvg:position="right"><g id="kvg:07c6c-g13" kvg:element="亻" kvg:variant="true" kvg:original="人"><path id="kvg:07c6c-s18" kvg:type="㇒" d="M 66.88,30.73 c 0.15,1.38 -0.04,3.19 -0.51,4.38 -2.99,7.55 -6.77,13.95 -13.62,23.14"><animate attributeName="d" begin="17.0s" dur="1.0s" from="M 66.88,30.73 C 66.88,30.73 , 66.88,30.73 , 66.88,30.73 " to="M 66.88,30.73 c 0.15,1.38 -0.04,3.19 -0.51,4.38 -2.99,7.55 -6.77,13.95 -13.62,23.14" />
<animate attributeName="d" begin="0s" dur="17.0s" from="M-100,-100" to="M-100,-100" />
</path>
<path id="kvg:07c6c-s19" kvg:type="㇑" d="M 61.88,47.9 c 0.18,0.74 0.31,2.36 0.33,3.5 0.1,10.2 -0.14,42.29 -0.06,47.6"><animate attributeName="d" begin="18.0s" dur="1.0s" from="M 61.88,47.9 C 61.88,47.9 , 61.88,47.9 , 61.88,47.9 " to="M 61.88,47.9 c 0.18,0.74 0.31,2.36 0.33,3.5 0.1,10.2 -0.14,42.29 -0.06,47.6" />
<animate attributeName="d" begin="0s" dur="18.0s" from="M-100,-100" to="M-100,-100" />
</path>
</g>
<path id="kvg:07c6c-s20" kvg:type="㇒" d="M 83.2,30.16 c 0.06,0.7 -0.02,1.62 -0.21,2.22 -1.23,3.83 -2.78,6.78 -5.6,11.44"><animate attributeName="d" begin="19.0s" dur="1.0s" from="M 83.2,30.16 C 83.2,30.16 , 83.2,30.16 , 83.2,30.16 " to="M 83.2,30.16 c 0.06,0.7 -0.02,1.62 -0.21,2.22 -1.23,3.83 -2.78,6.78 -5.6,11.44" />
<animate attributeName="d" begin="0s" dur="19.0s" from="M-100,-100" to="M-100,-100" />
</path>
<path id="kvg:07c6c-s21" kvg:type="㇐b" d="M 60.71,46.69 c 9.26,-0.89 31,-2.84 34.28,-3.22"><animate attributeName="d" begin="20.0s" dur="1.0s" from="M 60.71,46.69 C 60.71,46.69 , 60.71,46.69 , 60.71,46.69 " to="M 60.71,46.69 c 9.26,-0.89 31,-2.84 34.28,-3.22" />
<animate attributeName="d" begin="0s" dur="20.0s" from="M-100,-100" to="M-100,-100" />
</path>
<path id="kvg:07c6c-s22" kvg:type="㇑a" d="M 77.98,47.52 c 0.35,0.42 0.63,0.98 0.63,1.7 0,7.3 0.04,32.5 -0.17,43.99"><animate attributeName="d" begin="21.0s" dur="1.0s" from="M 77.98,47.52 C 77.98,47.52 , 77.98,47.52 , 77.98,47.52 " to="M 77.98,47.52 c 0.35,0.42 0.63,0.98 0.63,1.7 0,7.3 0.04,32.5 -0.17,43.99" />
<animate attributeName="d" begin="0s" dur="21.0s" from="M-100,-100" to="M-100,-100" />
</path>
<path id="kvg:07c6c-s23" kvg:type="㇐b" d="M 63.18,62.94 c 6.53,-0.71 25.58,-2.27 28.38,-2.63"><animate attributeName="d" begin="22.0s" dur="1.0s" from="M 63.18,62.94 C 63.18,62.94 , 63.18,62.94 , 63.18,62.94 " to="M 63.18,62.94 c 6.53,-0.71 25.58,-2.27 28.38,-2.63" />
<animate attributeName="d" begin="0s" dur="22.0s" from="M-100,-100" to="M-100,-100" />
</path>
<path id="kvg:07c6c-s24" kvg:type="㇐b" d="M 62.32,78.04 c 7.2,-0.56 27.4,-1.79 30.49,-2.09"><animate attributeName="d" begin="23.0s" dur="1.0s" from="M 62.32,78.04 C 62.32,78.04 , 62.32,78.04 , 62.32,78.04 " to="M 62.32,78.04 c 7.2,-0.56 27.4,-1.79 30.49,-2.09" />
<animate attributeName="d" begin="0s" dur="23.0s" from="M-100,-100" to="M-100,-100" />
</path>
<path id="kvg:07c6c-s25" kvg:type="㇐b" d="M 62.77,95.63 c 6.91,-0.84 30.3,-1.7 33.27,-2.18"><animate attributeName="d" begin="24.0s" dur="1.0s" from="M 62.77,95.63 C 62.77,95.63 , 62.77,95.63 , 62.77,95.63 " to="M 62.77,95.63 c 6.91,-0.84 30.3,-1.7 33.27,-2.18" />
<animate attributeName="d" begin="0s" dur="24.0s" from="M-100,-100" to="M-100,-100" />
</path>
</g>
</g>
</g>
</svg>