<?xml version="1.0" encoding="UTF-8"?>
<!--
AniKanjiVG is licensed by CC-BY-SA Paul C. Sommerhoff (https://bitbucket.org/sommerhoff/anikanjivg).
AniKanjiVG uses KanjiVG which is licensed by CC-BY-SA Ulrich Apel (http://kanjivg.tagaini.net).
See also http://creativecommons.org/licenses/by-sa/3.0/
-->
<svg xmlns:kvg='http://kanjivg.tagaini.net' xmlns='http://www.w3.org/2000/svg' width='109' height='109' viewBox='0 0 109 109' style='fill:none;stroke:#000000;stroke-width:3;stroke-linecap:round;stroke-linejoin:round;' id="kvg:kanji_081a8"><g id="kvg:081a8" kvg:element="膨"><g id="kvg:081a8-g1" kvg:element="月" kvg:variant="true" kvg:original="肉" kvg:position="left" kvg:radical="general"><path id="kvg:081a8-s1" kvg:type="㇒" d="M 17.65,17.77 c 0.85,0.85 0.99,2.07 1,3.1 0.6,45.88 -1.93,62.23 -9.1,76.24"><animate attributeName="d" begin="0.0s" dur="1.0s" from="M 17.65,17.77 C 17.65,17.77 , 17.65,17.77 , 17.65,17.77 " to="M 17.65,17.77 c 0.85,0.85 0.99,2.07 1,3.1 0.6,45.88 -1.93,62.23 -9.1,76.24" />
</path>
<path id="kvg:081a8-s2" kvg:type="㇆a" d="M 19.58,19.37 c 2.92,-0.49 10.73,-2.39 12.11,-2.52 2.47,-0.23 3.09,1.34 3.09,2.73 0,3.31 0.04,49.31 0.04,68.08 0,11.34 -4.97,3.89 -6.55,2.34"><animate attributeName="d" begin="1.0s" dur="1.0s" from="M 19.58,19.37 C 19.58,19.37 , 19.58,19.37 , 19.58,19.37 " to="M 19.58,19.37 c 2.92,-0.49 10.73,-2.39 12.11,-2.52 2.47,-0.23 3.09,1.34 3.09,2.73 0,3.31 0.04,49.31 0.04,68.08 0,11.34 -4.97,3.89 -6.55,2.34" />
<animate attributeName="d" begin="0s" dur="1.0s" from="M-100,-100" to="M-100,-100" />
</path>
<path id="kvg:081a8-s3" kvg:type="㇐a" d="M 19.58,39.21 C 23.65,38.85 30.25,38 34.66,37.59"><animate attributeName="d" begin="2.0s" dur="1.0s" from="M 19.58,39.21 C 19.58,39.21 , 19.58,39.21 , 19.58,39.21 " to="M 19.58,39.21 C 23.65,38.85 30.25,38 34.66,37.59" />
<animate attributeName="d" begin="0s" dur="2.0s" from="M-100,-100" to="M-100,-100" />
</path>
<path id="kvg:081a8-s4" kvg:type="㇐a" d="M 19.54,57.59 C 23.88,57.25 29.82,56.53 34.36,56.1"><animate attributeName="d" begin="3.0s" dur="1.0s" from="M 19.54,57.59 C 19.54,57.59 , 19.54,57.59 , 19.54,57.59 " to="M 19.54,57.59 C 23.88,57.25 29.82,56.53 34.36,56.1" />
<animate attributeName="d" begin="0s" dur="3.0s" from="M-100,-100" to="M-100,-100" />
</path>
</g>
<g id="kvg:081a8-g2" kvg:element="彭" kvg:position="right" kvg:phon="彭"><g id="kvg:081a8-g3" kvg:position="left"><g id="kvg:081a8-g4" kvg:element="吉" kvg:part="1"><g id="kvg:081a8-g5" kvg:element="士"><path id="kvg:081a8-s5" kvg:type="㇐" d="M 39.550982,24.16 c 0.81,0.32 2.29,0.84 3.09,0.69 6.29,-1.1 17.85,-1.85 24.61,-2.3 1.34,-0.09 2.15,0.06 2.82,0.2"><animate attributeName="d" begin="4.0s" dur="1.0s" from="M 39.550982,24.16 C 39.550982,24.16 , 39.550982,24.16 , 39.550982,24.16 " to="M 39.550982,24.16 c 0.81,0.32 2.29,0.84 3.09,0.69 6.29,-1.1 17.85,-1.85 24.61,-2.3 1.34,-0.09 2.15,0.06 2.82,0.2" />
<animate attributeName="d" begin="0s" dur="4.0s" from="M-100,-100" to="M-100,-100" />
</path>
<path id="kvg:081a8-s6" kvg:type="㇑a" d="M 53.790982,11.26 c 1.14,0.52 2.05,2.49 2.05,3.69 0,4.05 0.17,10.55 0.17,22.64"><animate attributeName="d" begin="5.0s" dur="1.0s" from="M 53.790982,11.26 C 53.790982,11.26 , 53.790982,11.26 , 53.790982,11.26 " to="M 53.790982,11.26 c 1.14,0.52 2.05,2.49 2.05,3.69 0,4.05 0.17,10.55 0.17,22.64" />
<animate attributeName="d" begin="0s" dur="5.0s" from="M-100,-100" to="M-100,-100" />
</path>
<g id="kvg:081a8-g6" kvg:element="豆" kvg:part="1"><path id="kvg:081a8-s7" kvg:type="㇐" d="M 41.96953,38.531534 c 0.58,0.21 1.64,0.12 2.23,0.11 7.87,-0.14 14.25,-1.14 22.2,-2.26 0.96,-0.14 1.55,0.02 2.04,0.12"><animate attributeName="d" begin="6.0s" dur="1.0s" from="M 41.96953,38.531534 C 41.96953,38.531534 , 41.96953,38.531534 , 41.96953,38.531534 " to="M 41.96953,38.531534 c 0.58,0.21 1.64,0.12 2.23,0.11 7.87,-0.14 14.25,-1.14 22.2,-2.26 0.96,-0.14 1.55,0.02 2.04,0.12" />
<animate attributeName="d" begin="0s" dur="6.0s" from="M-100,-100" to="M-100,-100" />
</path>
</g>
</g>
<g id="kvg:081a8-g7" kvg:element="豆" kvg:part="2"><g id="kvg:081a8-g8" kvg:element="吉" kvg:part="2"><g id="kvg:081a8-g9" kvg:element="口"><path id="kvg:081a8-s8" kvg:type="㇑" d="M 43.96,49.22 c 0.66,0.66 0.92,1.53 1.2,2.52 0.56,1.96 1.36,4.49 1.76,7.24 0.2,1.41 0.64,2.79 0.79,3.98"><animate attributeName="d" begin="7.0s" dur="1.0s" from="M 43.96,49.22 C 43.96,49.22 , 43.96,49.22 , 43.96,49.22 " to="M 43.96,49.22 c 0.66,0.66 0.92,1.53 1.2,2.52 0.56,1.96 1.36,4.49 1.76,7.24 0.2,1.41 0.64,2.79 0.79,3.98" />
<animate attributeName="d" begin="0s" dur="7.0s" from="M-100,-100" to="M-100,-100" />
</path>
<path id="kvg:081a8-s9" kvg:type="㇕b" d="M 45.83,50.44 c 4.56,-0.82 13.22,-2.71 17.45,-3.39 2.12,-0.34 3.64,0.17 3.11,2.72 -0.52,2.56 -0.96,4.19 -2.13,7.96"><animate attributeName="d" begin="8.0s" dur="1.0s" from="M 45.83,50.44 C 45.83,50.44 , 45.83,50.44 , 45.83,50.44 " to="M 45.83,50.44 c 4.56,-0.82 13.22,-2.71 17.45,-3.39 2.12,-0.34 3.64,0.17 3.11,2.72 -0.52,2.56 -0.96,4.19 -2.13,7.96" />
<animate attributeName="d" begin="0s" dur="8.0s" from="M-100,-100" to="M-100,-100" />
</path>
<path id="kvg:081a8-s10" kvg:type="㇐b" d="M 48.67,60.94 c 2.48,-0.28 8.44,-1.02 13.34,-1.65 1.55,-0.2 2.93,-0.36 3.93,-0.45"><animate attributeName="d" begin="9.0s" dur="1.0s" from="M 48.67,60.94 C 48.67,60.94 , 48.67,60.94 , 48.67,60.94 " to="M 48.67,60.94 c 2.48,-0.28 8.44,-1.02 13.34,-1.65 1.55,-0.2 2.93,-0.36 3.93,-0.45" />
<animate attributeName="d" begin="0s" dur="9.0s" from="M-100,-100" to="M-100,-100" />
</path>
</g>
</g>
</g>
</g>
<g id="kvg:081a8-g10" kvg:element="豆" kvg:part="3"><path id="kvg:081a8-s11" kvg:type="㇔" d="M 44.75,70.12 c 1.99,1.7 5.14,7 5.63,9.64"><animate attributeName="d" begin="10.0s" dur="1.0s" from="M 44.75,70.12 C 44.75,70.12 , 44.75,70.12 , 44.75,70.12 " to="M 44.75,70.12 c 1.99,1.7 5.14,7 5.63,9.64" />
<animate attributeName="d" begin="0s" dur="10.0s" from="M-100,-100" to="M-100,-100" />
</path>
<path id="kvg:081a8-s12" kvg:type="㇒" d="M 65.52,66.89 c 0.12,0.92 0,1.81 -0.34,2.66 -1.22,3.87 -3.02,8.12 -7.06,14.07"><animate attributeName="d" begin="11.0s" dur="1.0s" from="M 65.52,66.89 C 65.52,66.89 , 65.52,66.89 , 65.52,66.89 " to="M 65.52,66.89 c 0.12,0.92 0,1.81 -0.34,2.66 -1.22,3.87 -3.02,8.12 -7.06,14.07" />
<animate attributeName="d" begin="0s" dur="11.0s" from="M-100,-100" to="M-100,-100" />
</path>
<path id="kvg:081a8-s13" kvg:type="㇀/㇐" d="M 43.18,89.15 c 0.51,1.15 1.73,1.58 3.43,0.98 C 52.65,88 59.62,85.12 68.13,82"><animate attributeName="d" begin="12.0s" dur="0.5s" from="M 43.18,89.15 C 43.18,89.15 , 43.18,89.15 , 43.18,89.15 " to="M 43.18,89.15 c 0.51,1.15 1.73,1.58 3.43,0.98 " />
<animate attributeName="d" begin="12.5s" dur="0.5s" from="M 43.18,89.15 c 0.51,1.15 1.73,1.58 3.43,0.98 c0,0,0,0,0,0,0" to="M 43.18,89.15 c 0.51,1.15 1.73,1.58 3.43,0.98 C 52.65,88 59.62,85.12 68.13,82" />
<animate attributeName="d" begin="0s" dur="12.0s" from="M-100,-100" to="M-100,-100" />
</path>
</g>
</g>
<g id="kvg:081a8-g11" kvg:element="彡" kvg:position="right"><g id="kvg:081a8-g12" kvg:element="丿"><path id="kvg:081a8-s14" kvg:type="㇒" d="M 92.21,16.5 c 0.09,0.86 0.11,1.53 -0.41,2.23 C 89,22.5 84.38,27.5 75.83,32.92"><animate attributeName="d" begin="13.0s" dur="0.5s" from="M 92.21,16.5 C 92.21,16.5 , 92.21,16.5 , 92.21,16.5 " to="M 92.21,16.5 c 0.09,0.86 0.11,1.53 -0.41,2.23 " />
<animate attributeName="d" begin="13.5s" dur="0.5s" from="M 92.21,16.5 c 0.09,0.86 0.11,1.53 -0.41,2.23 c0,0,0,0,0,0,0" to="M 92.21,16.5 c 0.09,0.86 0.11,1.53 -0.41,2.23 C 89,22.5 84.38,27.5 75.83,32.92" />
<animate attributeName="d" begin="0s" dur="13.0s" from="M-100,-100" to="M-100,-100" />
</path>
</g>
<g id="kvg:081a8-g13" kvg:element="丿"><path id="kvg:081a8-s15" kvg:type="㇒" d="M 94.05,42.43 c 0.13,1 0.02,1.64 -0.55,2.48 -2.8,4.11 -10.98,11.48 -20.52,15.99"><animate attributeName="d" begin="14.0s" dur="1.0s" from="M 94.05,42.43 C 94.05,42.43 , 94.05,42.43 , 94.05,42.43 " to="M 94.05,42.43 c 0.13,1 0.02,1.64 -0.55,2.48 -2.8,4.11 -10.98,11.48 -20.52,15.99" />
<animate attributeName="d" begin="0s" dur="14.0s" from="M-100,-100" to="M-100,-100" />
</path>
</g>
<g id="kvg:081a8-g14" kvg:element="丿"><path id="kvg:081a8-s16" kvg:type="㇒" d="M 97.29,68.59 c 0.1,0.67 -0.06,2.19 -0.62,3.07 C 92.94,77.51 81.88,88.5 63.44,97"><animate attributeName="d" begin="15.0s" dur="0.5s" from="M 97.29,68.59 C 97.29,68.59 , 97.29,68.59 , 97.29,68.59 " to="M 97.29,68.59 c 0.1,0.67 -0.06,2.19 -0.62,3.07 " />
<animate attributeName="d" begin="15.5s" dur="0.5s" from="M 97.29,68.59 c 0.1,0.67 -0.06,2.19 -0.62,3.07 c0,0,0,0,0,0,0" to="M 97.29,68.59 c 0.1,0.67 -0.06,2.19 -0.62,3.07 C 92.94,77.51 81.88,88.5 63.44,97" />
<animate attributeName="d" begin="0s" dur="15.0s" from="M-100,-100" to="M-100,-100" />
</path>
</g>
</g>
</g>
</g>
</svg>