<?xml version="1.0" encoding="UTF-8"?>
<!--
AniKanjiVG is licensed by CC-BY-SA Paul C. Sommerhoff (https://bitbucket.org/sommerhoff/anikanjivg).
AniKanjiVG uses KanjiVG which is licensed by CC-BY-SA Ulrich Apel (http://kanjivg.tagaini.net).
See also http://creativecommons.org/licenses/by-sa/3.0/
-->
<svg xmlns:kvg='http://kanjivg.tagaini.net' xmlns='http://www.w3.org/2000/svg' width='109' height='109' viewBox='0 0 109 109' style='fill:none;stroke:#000000;stroke-width:3;stroke-linecap:round;stroke-linejoin:round;' id="kvg:kanji_08521"><g id="kvg:08521" kvg:element="蔡"><g id="kvg:08521-g1" kvg:element="艹" kvg:variant="true" kvg:original="艸" kvg:position="top" kvg:radical="general"><path id="kvg:08521-s1" kvg:type="㇐" d="M 19.5,20.27 c 1.67,0.53 3.61,0.63 5.29,0.53 15.36,-0.96 41.16,-3.46 58.86,-3.53 2.79,-0.01 4.46,0.25 5.85,0.51"><animate attributeName="d" begin="0.0s" dur="1.0s" from="M 19.5,20.27 C 19.5,20.27 , 19.5,20.27 , 19.5,20.27 " to="M 19.5,20.27 c 1.67,0.53 3.61,0.63 5.29,0.53 15.36,-0.96 41.16,-3.46 58.86,-3.53 2.79,-0.01 4.46,0.25 5.85,0.51" />
</path>
<path id="kvg:08521-s2" kvg:type="㇑a" d="M 38.23,11 c 1.43,1.17 1.88,1.52 2.04,2.24 1.42,6.72 2.33,12.82 2.74,15.26"><animate attributeName="d" begin="1.0s" dur="1.0s" from="M 38.23,11 C 38.23,11 , 38.23,11 , 38.23,11 " to="M 38.23,11 c 1.43,1.17 1.88,1.52 2.04,2.24 1.42,6.72 2.33,12.82 2.74,15.26" />
<animate attributeName="d" begin="0s" dur="1.0s" from="M-100,-100" to="M-100,-100" />
</path>
<path id="kvg:08521-s3" kvg:type="㇑a" d="M 66.47,8.75 c 1.02,0.91 1.7,2.29 1.36,3.63 -1.02,4.09 -2.61,10.9 -4.09,16.12"><animate attributeName="d" begin="2.0s" dur="1.0s" from="M 66.47,8.75 C 66.47,8.75 , 66.47,8.75 , 66.47,8.75 " to="M 66.47,8.75 c 1.02,0.91 1.7,2.29 1.36,3.63 -1.02,4.09 -2.61,10.9 -4.09,16.12" />
<animate attributeName="d" begin="0s" dur="2.0s" from="M-100,-100" to="M-100,-100" />
</path>
</g>
<g id="kvg:08521-g2" kvg:element="祭" kvg:position="bottom"><g id="kvg:08521-g3" kvg:position="top"><g id="kvg:08521-g4" kvg:element="月"><path id="kvg:08521-s4" kvg:type="㇒" d="M 34.86,28.5 c 0.83,1.09 1.12,2.85 0.36,4.25 C 31,40.5 24.75,46.5 20.86,50.95"><animate attributeName="d" begin="3.0s" dur="0.5s" from="M 34.86,28.5 C 34.86,28.5 , 34.86,28.5 , 34.86,28.5 " to="M 34.86,28.5 c 0.83,1.09 1.12,2.85 0.36,4.25 " />
<animate attributeName="d" begin="3.5s" dur="0.5s" from="M 34.86,28.5 c 0.83,1.09 1.12,2.85 0.36,4.25 c0,0,0,0,0,0,0" to="M 34.86,28.5 c 0.83,1.09 1.12,2.85 0.36,4.25 C 31,40.5 24.75,46.5 20.86,50.95" />
<animate attributeName="d" begin="0s" dur="3.0s" from="M-100,-100" to="M-100,-100" />
</path>
<path id="kvg:08521-s5" kvg:type="㇇" d="M 35.61,36.52 c 0.79,-0.08 2.89,-0.27 4.14,-0.52 2.68,-0.54 5.03,-1.31 7.48,-1.64 3.58,-0.48 3.72,0.77 2.86,3.14 -3.58,9.92 -16.1,25.64 -34.57,35.08"><animate attributeName="d" begin="4.0s" dur="1.0s" from="M 35.61,36.52 C 35.61,36.52 , 35.61,36.52 , 35.61,36.52 " to="M 35.61,36.52 c 0.79,-0.08 2.89,-0.27 4.14,-0.52 2.68,-0.54 5.03,-1.31 7.48,-1.64 3.58,-0.48 3.72,0.77 2.86,3.14 -3.58,9.92 -16.1,25.64 -34.57,35.08" />
<animate attributeName="d" begin="0s" dur="4.0s" from="M-100,-100" to="M-100,-100" />
</path>
<path id="kvg:08521-s6" kvg:type="㇐" d="M 33.97,42.76 c 0.76,0.54 3.82,3.76 5.35,6.98"><animate attributeName="d" begin="5.0s" dur="1.0s" from="M 33.97,42.76 C 33.97,42.76 , 33.97,42.76 , 33.97,42.76 " to="M 33.97,42.76 c 0.76,0.54 3.82,3.76 5.35,6.98" />
<animate attributeName="d" begin="0s" dur="5.0s" from="M-100,-100" to="M-100,-100" />
</path>
<path id="kvg:08521-s7" kvg:type="㇐" d="M 26.01,50.96 c 0.98,1.17 3.9,6.12 4.71,8.74"><animate attributeName="d" begin="6.0s" dur="1.0s" from="M 26.01,50.96 C 26.01,50.96 , 26.01,50.96 , 26.01,50.96 " to="M 26.01,50.96 c 0.98,1.17 3.9,6.12 4.71,8.74" />
<animate attributeName="d" begin="0s" dur="6.0s" from="M-100,-100" to="M-100,-100" />
</path>
</g>
<path id="kvg:08521-s8" kvg:type="㇇" d="M 66.66,32.99 c 1.68,0.52 1.47,1.04 2.73,0.69 1.26,-0.35 9.31,-1.98 12.27,-2.93 1.59,-0.51 2.84,1.49 1.77,2.75 -2.17,2.57 -10.357914,10.860654 -15.207914,14.910654"><animate attributeName="d" begin="7.0s" dur="1.0s" from="M 66.66,32.99 C 66.66,32.99 , 66.66,32.99 , 66.66,32.99 " to="M 66.66,32.99 c 1.68,0.52 1.47,1.04 2.73,0.69 1.26,-0.35 9.31,-1.98 12.27,-2.93 1.59,-0.51 2.84,1.49 1.77,2.75 -2.17,2.57 -10.357914,10.860654 -15.207914,14.910654" />
<animate attributeName="d" begin="0s" dur="7.0s" from="M-100,-100" to="M-100,-100" />
</path>
<path id="kvg:08521-s9" kvg:type="㇏" d="M 54.99,31.1 c 3.4,-0.36 18.76,20.15 25.43,26.7 2.12,2.08 6.08,5.44 9.97,7.54"><animate attributeName="d" begin="8.0s" dur="1.0s" from="M 54.99,31.1 C 54.99,31.1 , 54.99,31.1 , 54.99,31.1 " to="M 54.99,31.1 c 3.4,-0.36 18.76,20.15 25.43,26.7 2.12,2.08 6.08,5.44 9.97,7.54" />
<animate attributeName="d" begin="0s" dur="8.0s" from="M-100,-100" to="M-100,-100" />
</path>
</g>
<g id="kvg:08521-g5" kvg:element="示" kvg:position="bottom"><path id="kvg:08521-s10" kvg:type="㇐" d="M 42.19,59.5 c 0.87,0.29 2.47,0.37 3.33,0.29 5.55,-0.51 15.38,-2.34 20.75,-2 1.45,0.09 2.32,0.14 3.05,0.29"><animate attributeName="d" begin="9.0s" dur="1.0s" from="M 42.19,59.5 C 42.19,59.5 , 42.19,59.5 , 42.19,59.5 " to="M 42.19,59.5 c 0.87,0.29 2.47,0.37 3.33,0.29 5.55,-0.51 15.38,-2.34 20.75,-2 1.45,0.09 2.32,0.14 3.05,0.29" />
<animate attributeName="d" begin="0s" dur="9.0s" from="M-100,-100" to="M-100,-100" />
</path>
<path id="kvg:08521-s11" kvg:type="㇐" d="M 30.33,72.83 c 1.51,0.33 4.3,0.42 5.8,0.33 10.48,-0.66 25,-2.41 38.85,-2.66 2.52,-0.04 4.04,0.16 5.3,0.32"><animate attributeName="d" begin="10.0s" dur="1.0s" from="M 30.33,72.83 C 30.33,72.83 , 30.33,72.83 , 30.33,72.83 " to="M 30.33,72.83 c 1.51,0.33 4.3,0.42 5.8,0.33 10.48,-0.66 25,-2.41 38.85,-2.66 2.52,-0.04 4.04,0.16 5.3,0.32" />
<animate attributeName="d" begin="0s" dur="10.0s" from="M-100,-100" to="M-100,-100" />
</path>
<path id="kvg:08521-s12" kvg:type="㇑" d="M 54.99,73.91 c 0.08,0.38 1.2,1.96 1.2,4.34 0,3.7 -0.24,11.82 -0.24,15.72 0,8.63 -6.98,1.1 -8.29,0.2"><animate attributeName="d" begin="11.0s" dur="1.0s" from="M 54.99,73.91 C 54.99,73.91 , 54.99,73.91 , 54.99,73.91 " to="M 54.99,73.91 c 0.08,0.38 1.2,1.96 1.2,4.34 0,3.7 -0.24,11.82 -0.24,15.72 0,8.63 -6.98,1.1 -8.29,0.2" />
<animate attributeName="d" begin="0s" dur="11.0s" from="M-100,-100" to="M-100,-100" />
</path>
<path id="kvg:08521-s13" kvg:type="㇒" d="M 38.15,79.86 c 0.05,0.4 0.11,1.05 -0.1,1.63 -1.2,3.42 -9.93,10.12 -19.39,14.72"><animate attributeName="d" begin="12.0s" dur="1.0s" from="M 38.15,79.86 C 38.15,79.86 , 38.15,79.86 , 38.15,79.86 " to="M 38.15,79.86 c 0.05,0.4 0.11,1.05 -0.1,1.63 -1.2,3.42 -9.93,10.12 -19.39,14.72" />
<animate attributeName="d" begin="0s" dur="12.0s" from="M-100,-100" to="M-100,-100" />
</path>
<path id="kvg:08521-s14" kvg:type="㇔" d="M 69.43,77.9 c 6.26,3.3 16.48,13.2 18.04,18.33"><animate attributeName="d" begin="13.0s" dur="1.0s" from="M 69.43,77.9 C 69.43,77.9 , 69.43,77.9 , 69.43,77.9 " to="M 69.43,77.9 c 6.26,3.3 16.48,13.2 18.04,18.33" />
<animate attributeName="d" begin="0s" dur="13.0s" from="M-100,-100" to="M-100,-100" />
</path>
</g>
</g>
</g>
</svg>