<?xml version="1.0" encoding="UTF-8"?>
<!--
AniKanjiVG is licensed by CC-BY-SA Paul C. Sommerhoff (https://bitbucket.org/sommerhoff/anikanjivg).
AniKanjiVG uses KanjiVG which is licensed by CC-BY-SA Ulrich Apel (http://kanjivg.tagaini.net).
See also http://creativecommons.org/licenses/by-sa/3.0/
-->
<svg xmlns:kvg='http://kanjivg.tagaini.net' xmlns='http://www.w3.org/2000/svg' width='109' height='109' viewBox='0 0 109 109' style='fill:none;stroke:#000000;stroke-width:3;stroke-linecap:round;stroke-linejoin:round;' id="kvg:kanji_0969b"><g id="kvg:0969b" kvg:element="際"><g id="kvg:0969b-g1" kvg:element="⻖" kvg:variant="true" kvg:original="阜" kvg:position="left" kvg:radical="general"><path id="kvg:0969b-s1" kvg:type="㇇" d="M 13.17,17.17 c 1.08,0.33 2.39,0.38 3.6,0.19 5.26,-0.81 10.21,-2.13 12.65,-2.94 3,-1 4.53,1.14 3.42,3.58 -1.58,3.5 -6.5,13.17 -8.83,16.5"><animate attributeName="d" begin="0.0s" dur="1.0s" from="M 13.17,17.17 C 13.17,17.17 , 13.17,17.17 , 13.17,17.17 " to="M 13.17,17.17 c 1.08,0.33 2.39,0.38 3.6,0.19 5.26,-0.81 10.21,-2.13 12.65,-2.94 3,-1 4.53,1.14 3.42,3.58 -1.58,3.5 -6.5,13.17 -8.83,16.5" />
</path>
<path id="kvg:0969b-s2" kvg:type="㇕va" d="M 24,34.5 c 11.75,10.5 9,32.75 -1.83,24"><animate attributeName="d" begin="1.0s" dur="1.0s" from="M 24,34.5 C 24,34.5 , 24,34.5 , 24,34.5 " to="M 24,34.5 c 11.75,10.5 9,32.75 -1.83,24" />
<animate attributeName="d" begin="0s" dur="1.0s" from="M-100,-100" to="M-100,-100" />
</path>
<path id="kvg:0969b-s3" kvg:type="㇑" d="M 14.12,17.75 c 0.75,0.75 1.21,1.75 1.21,3 0,0.87 -0.12,48.62 -0.12,67.25 0,3.26 -0.06,5.57 -0.1,6.5"><animate attributeName="d" begin="2.0s" dur="1.0s" from="M 14.12,17.75 C 14.12,17.75 , 14.12,17.75 , 14.12,17.75 " to="M 14.12,17.75 c 0.75,0.75 1.21,1.75 1.21,3 0,0.87 -0.12,48.62 -0.12,67.25 0,3.26 -0.06,5.57 -0.1,6.5" />
<animate attributeName="d" begin="0s" dur="2.0s" from="M-100,-100" to="M-100,-100" />
</path>
</g>
<g id="kvg:0969b-g2" kvg:element="祭" kvg:position="right" kvg:phon="祭"><g id="kvg:0969b-g3" kvg:position="top"><g id="kvg:0969b-g4" kvg:element="月"><path id="kvg:0969b-s4" kvg:type="㇒" d="M 46.15,13.25 c 0.47,1.25 0.21,2.75 -0.36,4 -2.52,5.5 -7.79,12.12 -10.54,15"><animate attributeName="d" begin="3.0s" dur="1.0s" from="M 46.15,13.25 C 46.15,13.25 , 46.15,13.25 , 46.15,13.25 " to="M 46.15,13.25 c 0.47,1.25 0.21,2.75 -0.36,4 -2.52,5.5 -7.79,12.12 -10.54,15" />
<animate attributeName="d" begin="0s" dur="3.0s" from="M-100,-100" to="M-100,-100" />
</path>
<path id="kvg:0969b-s5" kvg:type="㇇a" d="M 49.26,16.1 c 2.75,-0.35 8.05,-1.71 10.04,-2.1 2.52,-0.5 3.71,1.09 2.97,3.5 -3.52,11.38 -13.02,25.25 -24.05,32.75"><animate attributeName="d" begin="4.0s" dur="1.0s" from="M 49.26,16.1 C 49.26,16.1 , 49.26,16.1 , 49.26,16.1 " to="M 49.26,16.1 c 2.75,-0.35 8.05,-1.71 10.04,-2.1 2.52,-0.5 3.71,1.09 2.97,3.5 -3.52,11.38 -13.02,25.25 -24.05,32.75" />
<animate attributeName="d" begin="0s" dur="4.0s" from="M-100,-100" to="M-100,-100" />
</path>
<path id="kvg:0969b-s6" kvg:type="㇔/㇐" d="M 46.38,23.88 c 1,0.43 4.99,3.03 6.99,5.62"><animate attributeName="d" begin="5.0s" dur="1.0s" from="M 46.38,23.88 C 46.38,23.88 , 46.38,23.88 , 46.38,23.88 " to="M 46.38,23.88 c 1,0.43 4.99,3.03 6.99,5.62" />
<animate attributeName="d" begin="0s" dur="5.0s" from="M-100,-100" to="M-100,-100" />
</path>
<path id="kvg:0969b-s7" kvg:type="㇔/㇐" d="M 39.25,32.12 c 1.46,0.95 5.85,4.99 7.07,7.12"><animate attributeName="d" begin="6.0s" dur="1.0s" from="M 39.25,32.12 C 39.25,32.12 , 39.25,32.12 , 39.25,32.12 " to="M 39.25,32.12 c 1.46,0.95 5.85,4.99 7.07,7.12" />
<animate attributeName="d" begin="0s" dur="6.0s" from="M-100,-100" to="M-100,-100" />
</path>
</g>
<path id="kvg:0969b-s8" kvg:type="㇇" d="M 70.59,17 c 1.41,0.38 2.79,0.27 4.02,0 2.88,-0.62 8.000654,-1.102904 11.130654,-1.722904 3.05,-0.61 5.21,1.05 3.75,3.75 -3.25,6 -9.102249,13.490798 -14.86773,18.35225"><animate attributeName="d" begin="7.0s" dur="1.0s" from="M 70.59,17 C 70.59,17 , 70.59,17 , 70.59,17 " to="M 70.59,17 c 1.41,0.38 2.79,0.27 4.02,0 2.88,-0.62 8.000654,-1.102904 11.130654,-1.722904 3.05,-0.61 5.21,1.05 3.75,3.75 -3.25,6 -9.102249,13.490798 -14.86773,18.35225" />
<animate attributeName="d" begin="0s" dur="7.0s" from="M-100,-100" to="M-100,-100" />
</path>
<path id="kvg:0969b-s9" kvg:type="㇏" d="M 64.25,25.5 c 2.92,-0.26 20.17,17.28 21.93,18.83 1.75,1.55 5.07,3.92 8.07,5.42"><animate attributeName="d" begin="8.0s" dur="1.0s" from="M 64.25,25.5 C 64.25,25.5 , 64.25,25.5 , 64.25,25.5 " to="M 64.25,25.5 c 2.92,-0.26 20.17,17.28 21.93,18.83 1.75,1.55 5.07,3.92 8.07,5.42" />
<animate attributeName="d" begin="0s" dur="8.0s" from="M-100,-100" to="M-100,-100" />
</path>
</g>
<g id="kvg:0969b-g5" kvg:element="示" kvg:position="bottom"><path id="kvg:0969b-s10" kvg:type="㇐" d="M 50.26,49.623701 c 1.16,0.44 2.94,0.5 4.12,0.47 5.11,-0.1 11.84,-1.18 16.38,-1.47 1.35,-0.09 2.65,-0.17 3.97,0.13"><animate attributeName="d" begin="9.0s" dur="1.0s" from="M 50.26,49.623701 C 50.26,49.623701 , 50.26,49.623701 , 50.26,49.623701 " to="M 50.26,49.623701 c 1.16,0.44 2.94,0.5 4.12,0.47 5.11,-0.1 11.84,-1.18 16.38,-1.47 1.35,-0.09 2.65,-0.17 3.97,0.13" />
<animate attributeName="d" begin="0s" dur="9.0s" from="M-100,-100" to="M-100,-100" />
</path>
<path id="kvg:0969b-s11" kvg:type="㇐" d="M 39.71,63.453701 c 3.16,0.51 5.45,0.07 7.79,-0.13 8.63,-0.75 21.85,-2.13 30.07,-2.63 2.37,-0.14 4.93,-0.23 7.41,0.23"><animate attributeName="d" begin="10.0s" dur="1.0s" from="M 39.71,63.453701 C 39.71,63.453701 , 39.71,63.453701 , 39.71,63.453701 " to="M 39.71,63.453701 c 3.16,0.51 5.45,0.07 7.79,-0.13 8.63,-0.75 21.85,-2.13 30.07,-2.63 2.37,-0.14 4.93,-0.23 7.41,0.23" />
<animate attributeName="d" begin="0s" dur="10.0s" from="M-100,-100" to="M-100,-100" />
</path>
<path id="kvg:0969b-s12" kvg:type="㇑" d="M 62.16,64.453701 c 0.74,0.74 1.09,2.14 1.09,3.73 0,12.49 0.08,18.301779 0.08,22.551779 0,9.15 -6.05,1.04 -7.05,-0.04"><animate attributeName="d" begin="11.0s" dur="1.0s" from="M 62.16,64.453701 C 62.16,64.453701 , 62.16,64.453701 , 62.16,64.453701 " to="M 62.16,64.453701 c 0.74,0.74 1.09,2.14 1.09,3.73 0,12.49 0.08,18.301779 0.08,22.551779 0,9.15 -6.05,1.04 -7.05,-0.04" />
<animate attributeName="d" begin="0s" dur="11.0s" from="M-100,-100" to="M-100,-100" />
</path>
<path id="kvg:0969b-s13" kvg:type="㇒" d="M 45,72.833701 c 0.04,0.42 0.08,1.09 -0.07,1.69 -0.89,3.56 -8.211616,11.300164 -15.191616,16.090164"><animate attributeName="d" begin="12.0s" dur="1.0s" from="M 45,72.833701 C 45,72.833701 , 45,72.833701 , 45,72.833701 " to="M 45,72.833701 c 0.04,0.42 0.08,1.09 -0.07,1.69 -0.89,3.56 -8.211616,11.300164 -15.191616,16.090164" />
<animate attributeName="d" begin="0s" dur="12.0s" from="M-100,-100" to="M-100,-100" />
</path>
<path id="kvg:0969b-s14" kvg:type="㇔" d="M 77.38,72.963701 c 5.25,3.5 12.114519,11.014683 14.634519,16.444683"><animate attributeName="d" begin="13.0s" dur="1.0s" from="M 77.38,72.963701 C 77.38,72.963701 , 77.38,72.963701 , 77.38,72.963701 " to="M 77.38,72.963701 c 5.25,3.5 12.114519,11.014683 14.634519,16.444683" />
<animate attributeName="d" begin="0s" dur="13.0s" from="M-100,-100" to="M-100,-100" />
</path>
</g>
</g>
</g>
</svg>