<?xml version="1.0" encoding="UTF-8"?>
<!--
AniKanjiVG is licensed by CC-BY-SA Paul C. Sommerhoff (https://bitbucket.org/sommerhoff/anikanjivg).
AniKanjiVG uses KanjiVG which is licensed by CC-BY-SA Ulrich Apel (http://kanjivg.tagaini.net).
See also http://creativecommons.org/licenses/by-sa/3.0/
-->
<svg xmlns:kvg='http://kanjivg.tagaini.net' xmlns='http://www.w3.org/2000/svg' width='109' height='109' viewBox='0 0 109 109' style='fill:none;stroke:#000000;stroke-width:3;stroke-linecap:round;stroke-linejoin:round;' id="kvg:kanji_096e2"><g id="kvg:096e2" kvg:element="離"><g id="kvg:096e2-g1" kvg:element="离" kvg:position="left" kvg:phon="离"><g id="kvg:096e2-g2" kvg:element="亠"><path id="kvg:096e2-s1" kvg:type="㇑a" d="M 33.04,13.53 c 0.84,0.84 1.09,2 1.09,3.22 0,2.37 0.08,4.38 0.08,6.23"><animate attributeName="d" begin="0.0s" dur="1.0s" from="M 33.04,13.53 C 33.04,13.53 , 33.04,13.53 , 33.04,13.53 " to="M 33.04,13.53 c 0.84,0.84 1.09,2 1.09,3.22 0,2.37 0.08,4.38 0.08,6.23" />
</path>
<path id="kvg:096e2-s2" kvg:type="㇐" d="M 12.42,26.15 c 2.46,0.48 5.1,0.31 7.58,-0.02 7.52,-1 19.19,-2.67 27.13,-3.41 2.27,-0.21 4.87,-0.35 7.19,0.04"><animate attributeName="d" begin="1.0s" dur="1.0s" from="M 12.42,26.15 C 12.42,26.15 , 12.42,26.15 , 12.42,26.15 " to="M 12.42,26.15 c 2.46,0.48 5.1,0.31 7.58,-0.02 7.52,-1 19.19,-2.67 27.13,-3.41 2.27,-0.21 4.87,-0.35 7.19,0.04" />
<animate attributeName="d" begin="0s" dur="1.0s" from="M-100,-100" to="M-100,-100" />
</path>
</g>
<g id="kvg:096e2-g3" kvg:element="凶"><g id="kvg:096e2-g4" kvg:element="乂"><g id="kvg:096e2-g5" kvg:element="丿"><path id="kvg:096e2-s3" kvg:type="㇒" d="M 39.17,29.93 c 0.08,0.95 -0.04,1.63 -0.58,2.43 -3.71,5.52 -7.65,10.01 -13.91,14.89"><animate attributeName="d" begin="2.0s" dur="1.0s" from="M 39.17,29.93 C 39.17,29.93 , 39.17,29.93 , 39.17,29.93 " to="M 39.17,29.93 c 0.08,0.95 -0.04,1.63 -0.58,2.43 -3.71,5.52 -7.65,10.01 -13.91,14.89" />
<animate attributeName="d" begin="0s" dur="2.0s" from="M-100,-100" to="M-100,-100" />
</path>
</g>
<path id="kvg:096e2-s4" kvg:type="㇔/㇏" d="M 27.36,34.87 c 4.55,1.33 11.09,5.67 13.47,8.84"><animate attributeName="d" begin="3.0s" dur="1.0s" from="M 27.36,34.87 C 27.36,34.87 , 27.36,34.87 , 27.36,34.87 " to="M 27.36,34.87 c 4.55,1.33 11.09,5.67 13.47,8.84" />
<animate attributeName="d" begin="0s" dur="3.0s" from="M-100,-100" to="M-100,-100" />
</path>
</g>
<g id="kvg:096e2-g6" kvg:element="凵" kvg:position="kamae"><path id="kvg:096e2-s5" kvg:type="㇄a" d="M 19.06,34.84 c 0.44,0.91 0.44,2.03 0.37,2.95 -0.15,1.99 -1.21,8.65 -1.87,12.22 -0.53,2.84 -0.23,3.41 2.7,2.75 6.75,-1.51 16.62,-3.26 26.85,-4.1"><animate attributeName="d" begin="4.0s" dur="1.0s" from="M 19.06,34.84 C 19.06,34.84 , 19.06,34.84 , 19.06,34.84 " to="M 19.06,34.84 c 0.44,0.91 0.44,2.03 0.37,2.95 -0.15,1.99 -1.21,8.65 -1.87,12.22 -0.53,2.84 -0.23,3.41 2.7,2.75 6.75,-1.51 16.62,-3.26 26.85,-4.1" />
<animate attributeName="d" begin="0s" dur="4.0s" from="M-100,-100" to="M-100,-100" />
</path>
<path id="kvg:096e2-s6" kvg:type="㇑" d="M 47.97,30.3 c 0.68,0.68 0.87,1.7 0.87,2.7 0,0.28 -0.6,9.75 -0.6,12.75 0,1.89 -0.13,3.72 -0.2,5.32"><animate attributeName="d" begin="5.0s" dur="1.0s" from="M 47.97,30.3 C 47.97,30.3 , 47.97,30.3 , 47.97,30.3 " to="M 47.97,30.3 c 0.68,0.68 0.87,1.7 0.87,2.7 0,0.28 -0.6,9.75 -0.6,12.75 0,1.89 -0.13,3.72 -0.2,5.32" />
<animate attributeName="d" begin="0s" dur="5.0s" from="M-100,-100" to="M-100,-100" />
</path>
</g>
</g>
<g id="kvg:096e2-g7" kvg:element="禸" kvg:variant="true"><path id="kvg:096e2-s7" kvg:type="㇑" d="M 15.51,65.73 c 0.94,0.94 1.11,2.25 0.98,3.8 -0.09,1.14 -0.1,14.38 -0.04,22.47 0.02,3 -0.08,4.67 -0.08,5.37"><animate attributeName="d" begin="6.0s" dur="1.0s" from="M 15.51,65.73 C 15.51,65.73 , 15.51,65.73 , 15.51,65.73 " to="M 15.51,65.73 c 0.94,0.94 1.11,2.25 0.98,3.8 -0.09,1.14 -0.1,14.38 -0.04,22.47 0.02,3 -0.08,4.67 -0.08,5.37" />
<animate attributeName="d" begin="0s" dur="6.0s" from="M-100,-100" to="M-100,-100" />
</path>
<path id="kvg:096e2-s8" kvg:type="㇆a" d="M 17.49,66.96 c 3.91,-0.59 21.02,-3.93 26.96,-4.93 3,-0.5 5.1,0.6 5.02,3.85 -0.14,5.43 -0.34,18.49 -1.09,23.77 -1.14,7.96 -4.26,3.42 -5.5,1.78"><animate attributeName="d" begin="7.0s" dur="1.0s" from="M 17.49,66.96 C 17.49,66.96 , 17.49,66.96 , 17.49,66.96 " to="M 17.49,66.96 c 3.91,-0.59 21.02,-3.93 26.96,-4.93 3,-0.5 5.1,0.6 5.02,3.85 -0.14,5.43 -0.34,18.49 -1.09,23.77 -1.14,7.96 -4.26,3.42 -5.5,1.78" />
<animate attributeName="d" begin="0s" dur="7.0s" from="M-100,-100" to="M-100,-100" />
</path>
<path id="kvg:096e2-s9" kvg:type="㇜" d="M 33.48,54 c 0.52,1.12 0.74,2.03 0.33,3.33 -1.288384,7.365808 -3.231125,13.166933 -4.809346,20.401288"><animate attributeName="d" begin="8.0s" dur="1.0s" from="M 33.48,54 C 33.48,54 , 33.48,54 , 33.48,54 " to="M 33.48,54 c 0.52,1.12 0.74,2.03 0.33,3.33 -1.288384,7.365808 -3.231125,13.166933 -4.809346,20.401288" />
<animate attributeName="d" begin="0s" dur="8.0s" from="M-100,-100" to="M-100,-100" />
</path>
<path id="kvg:096e2-s10" kvg:type="㇜" d="M 23.236278,82.064008 c 4.65,-2.45 8.743558,-4.398875 14.483558,-6.998875"><animate attributeName="d" begin="9.0s" dur="1.0s" from="M 23.236278,82.064008 C 23.236278,82.064008 , 23.236278,82.064008 , 23.236278,82.064008 " to="M 23.236278,82.064008 c 4.65,-2.45 8.743558,-4.398875 14.483558,-6.998875" />
<animate attributeName="d" begin="0s" dur="9.0s" from="M-100,-100" to="M-100,-100" />
</path>
<path id="kvg:096e2-s11" kvg:type="㇔" d="M 36.76,70.56 c 2.07,1.57 4.74,5.94 5.87,8.91"><animate attributeName="d" begin="10.0s" dur="1.0s" from="M 36.76,70.56 C 36.76,70.56 , 36.76,70.56 , 36.76,70.56 " to="M 36.76,70.56 c 2.07,1.57 4.74,5.94 5.87,8.91" />
<animate attributeName="d" begin="0s" dur="10.0s" from="M-100,-100" to="M-100,-100" />
</path>
</g>
</g>
<g id="kvg:096e2-g8" kvg:element="隹" kvg:position="right" kvg:radical="general"><g id="kvg:096e2-g9" kvg:element="亻" kvg:variant="true" kvg:original="人"><path id="kvg:096e2-s12" kvg:type="㇒" d="M 66.89,17.5 c 0.13,1.75 -0.04,2.55 -0.46,4.05 -2.67,9.57 -6.81,18.7 -12.93,29.32"><animate attributeName="d" begin="11.0s" dur="1.0s" from="M 66.89,17.5 C 66.89,17.5 , 66.89,17.5 , 66.89,17.5 " to="M 66.89,17.5 c 0.13,1.75 -0.04,2.55 -0.46,4.05 -2.67,9.57 -6.81,18.7 -12.93,29.32" />
<animate attributeName="d" begin="0s" dur="11.0s" from="M-100,-100" to="M-100,-100" />
</path>
<path id="kvg:096e2-s13" kvg:type="㇑" d="M 60.44,39.43 c 0.87,0.87 0.9,1.82 0.9,3.13 0,9.03 0,39.94 0,47.94 0,4.5 -0.09,5.88 -0.09,7.5"><animate attributeName="d" begin="12.0s" dur="1.0s" from="M 60.44,39.43 C 60.44,39.43 , 60.44,39.43 , 60.44,39.43 " to="M 60.44,39.43 c 0.87,0.87 0.9,1.82 0.9,3.13 0,9.03 0,39.94 0,47.94 0,4.5 -0.09,5.88 -0.09,7.5" />
<animate attributeName="d" begin="0s" dur="12.0s" from="M-100,-100" to="M-100,-100" />
</path>
</g>
<path id="kvg:096e2-s14" kvg:type="㇒" d="M 84.2,17.72 c 0.06,0.95 0.02,2.2 -0.21,2.99 -1.24,4.28 -3.03,8.91 -5.85,15.2"><animate attributeName="d" begin="13.0s" dur="1.0s" from="M 84.2,17.72 C 84.2,17.72 , 84.2,17.72 , 84.2,17.72 " to="M 84.2,17.72 c 0.06,0.95 0.02,2.2 -0.21,2.99 -1.24,4.28 -3.03,8.91 -5.85,15.2" />
<animate attributeName="d" begin="0s" dur="13.0s" from="M-100,-100" to="M-100,-100" />
</path>
<path id="kvg:096e2-s15" kvg:type="㇐b" d="M 61.41,38.94 C 67.77,38.11 80.3,36.7 88,35.74 c 3,-0.37 5.26,-0.68 6.14,-0.85"><animate attributeName="d" begin="14.0s" dur="0.5s" from="M 61.41,38.94 C 61.41,38.94 , 61.41,38.94 , 61.41,38.94 " to="M 61.41,38.94 C 67.77,38.11 80.3,36.7 88,35.74 " />
<animate attributeName="d" begin="14.5s" dur="0.5s" from="M 61.41,38.94 C 67.77,38.11 80.3,36.7 88,35.74 c0,0,0,0,0,0,0" to="M 61.41,38.94 C 67.77,38.11 80.3,36.7 88,35.74 c 3,-0.37 5.26,-0.68 6.14,-0.85" />
<animate attributeName="d" begin="0s" dur="14.0s" from="M-100,-100" to="M-100,-100" />
</path>
<path id="kvg:096e2-s16" kvg:type="㇑a" d="M 78.73,38.61 c 0.83,0.83 0.88,2.11 0.88,3.26 C 79.6,50.98 79.5,74.72 79.5,87"><animate attributeName="d" begin="15.0s" dur="0.5s" from="M 78.73,38.61 C 78.73,38.61 , 78.73,38.61 , 78.73,38.61 " to="M 78.73,38.61 c 0.83,0.83 0.88,2.11 0.88,3.26 " />
<animate attributeName="d" begin="15.5s" dur="0.5s" from="M 78.73,38.61 c 0.83,0.83 0.88,2.11 0.88,3.26 c0,0,0,0,0,0,0" to="M 78.73,38.61 c 0.83,0.83 0.88,2.11 0.88,3.26 C 79.6,50.98 79.5,74.72 79.5,87" />
<animate attributeName="d" begin="0s" dur="15.0s" from="M-100,-100" to="M-100,-100" />
</path>
<path id="kvg:096e2-s17" kvg:type="㇐b" d="M 62.39,55.45 c 5.99,-0.7 17.35,-1.81 24.62,-2.55 2.59,-0.27 4.55,-0.48 5.33,-0.62"><animate attributeName="d" begin="16.0s" dur="1.0s" from="M 62.39,55.45 C 62.39,55.45 , 62.39,55.45 , 62.39,55.45 " to="M 62.39,55.45 c 5.99,-0.7 17.35,-1.81 24.62,-2.55 2.59,-0.27 4.55,-0.48 5.33,-0.62" />
<animate attributeName="d" begin="0s" dur="16.0s" from="M-100,-100" to="M-100,-100" />
</path>
<path id="kvg:096e2-s18" kvg:type="㇐b" d="M 62.68,70.89 c 6.2,-0.64 18.68,-2.1 25.71,-2.91 2.01,-0.23 3.51,-0.42 4.19,-0.54"><animate attributeName="d" begin="17.0s" dur="1.0s" from="M 62.68,70.89 C 62.68,70.89 , 62.68,70.89 , 62.68,70.89 " to="M 62.68,70.89 c 6.2,-0.64 18.68,-2.1 25.71,-2.91 2.01,-0.23 3.51,-0.42 4.19,-0.54" />
<animate attributeName="d" begin="0s" dur="17.0s" from="M-100,-100" to="M-100,-100" />
</path>
<path id="kvg:096e2-s19" kvg:type="㇐b" d="M 62.55,89.97 c 7.7,-0.72 20.75,-2.07 29.2,-2.85 2.47,-0.23 4.29,-0.42 5,-0.56"><animate attributeName="d" begin="18.0s" dur="1.0s" from="M 62.55,89.97 C 62.55,89.97 , 62.55,89.97 , 62.55,89.97 " to="M 62.55,89.97 c 7.7,-0.72 20.75,-2.07 29.2,-2.85 2.47,-0.23 4.29,-0.42 5,-0.56" />
<animate attributeName="d" begin="0s" dur="18.0s" from="M-100,-100" to="M-100,-100" />
</path>
</g>
</g>
</svg>