<?xml version="1.0" encoding="UTF-8"?>
<!--
AniKanjiVG is licensed by CC-BY-SA Paul C. Sommerhoff (https://bitbucket.org/sommerhoff/anikanjivg).
AniKanjiVG uses KanjiVG which is licensed by CC-BY-SA Ulrich Apel (http://kanjivg.tagaini.net).
See also http://creativecommons.org/licenses/by-sa/3.0/
-->
<svg xmlns:kvg='http://kanjivg.tagaini.net' xmlns='http://www.w3.org/2000/svg' width='109' height='109' viewBox='0 0 109 109' style='fill:none;stroke:#000000;stroke-width:3;stroke-linecap:round;stroke-linejoin:round;' id="kvg:kanji_097f5"><g id="kvg:097f5" kvg:element="韵"><g id="kvg:097f5-g1" kvg:element="音" kvg:position="left" kvg:radical="tradit"><g id="kvg:097f5-g2" kvg:element="立" kvg:position="top"><g id="kvg:097f5-g3" kvg:element="亠" kvg:position="top"><path id="kvg:097f5-s1" kvg:type="㇑a" d="M 29.48,13.46 c 1.17,0.47 1.87,1.92 1.84,3.04 -0.12,4.27 -0.22,8.68 -0.09,12.3"><animate attributeName="d" begin="0.0s" dur="1.0s" from="M 29.48,13.46 C 29.48,13.46 , 29.48,13.46 , 29.48,13.46 " to="M 29.48,13.46 c 1.17,0.47 1.87,1.92 1.84,3.04 -0.12,4.27 -0.22,8.68 -0.09,12.3" />
</path>
<path id="kvg:097f5-s2" kvg:type="㇐" d="M 12.14,30.67 c 0.89,0.1 2.92,0.12 3.8,0.04 7.56,-0.7 17.29,-2.13 27.57,-2.67 1.48,-0.08 2.35,-0.18 3.09,-0.16"><animate attributeName="d" begin="1.0s" dur="1.0s" from="M 12.14,30.67 C 12.14,30.67 , 12.14,30.67 , 12.14,30.67 " to="M 12.14,30.67 c 0.89,0.1 2.92,0.12 3.8,0.04 7.56,-0.7 17.29,-2.13 27.57,-2.67 1.48,-0.08 2.35,-0.18 3.09,-0.16" />
<animate attributeName="d" begin="0s" dur="1.0s" from="M-100,-100" to="M-100,-100" />
</path>
</g>
<g id="kvg:097f5-g4" kvg:position="bottom"><path id="kvg:097f5-s3" kvg:type="㇔" d="M 18.86,33.89 c 2.35,2.49 4.55,9.76 5.09,12.56"><animate attributeName="d" begin="2.0s" dur="1.0s" from="M 18.86,33.89 C 18.86,33.89 , 18.86,33.89 , 18.86,33.89 " to="M 18.86,33.89 c 2.35,2.49 4.55,9.76 5.09,12.56" />
<animate attributeName="d" begin="0s" dur="2.0s" from="M-100,-100" to="M-100,-100" />
</path>
<path id="kvg:097f5-s4" kvg:type="㇒" d="M 40.69,30.86 c 0.31,0.89 0.72,2.14 0.61,2.52 -1.07,3.84 -2.73,8.54 -4.44,11.59"><animate attributeName="d" begin="3.0s" dur="1.0s" from="M 40.69,30.86 C 40.69,30.86 , 40.69,30.86 , 40.69,30.86 " to="M 40.69,30.86 c 0.31,0.89 0.72,2.14 0.61,2.52 -1.07,3.84 -2.73,8.54 -4.44,11.59" />
<animate attributeName="d" begin="0s" dur="3.0s" from="M-100,-100" to="M-100,-100" />
</path>
<path id="kvg:097f5-s5" kvg:type="㇐" d="M 9.88,50.75 c 1.12,0.25 2.51,0.41 3.63,0.39 6.65,-0.13 20.28,-2.63 31.17,-3.15 1.45,-0.1 3.07,0 3.95,0.49"><animate attributeName="d" begin="4.0s" dur="1.0s" from="M 9.88,50.75 C 9.88,50.75 , 9.88,50.75 , 9.88,50.75 " to="M 9.88,50.75 c 1.12,0.25 2.51,0.41 3.63,0.39 6.65,-0.13 20.28,-2.63 31.17,-3.15 1.45,-0.1 3.07,0 3.95,0.49" />
<animate attributeName="d" begin="0s" dur="4.0s" from="M-100,-100" to="M-100,-100" />
</path>
</g>
</g>
<g id="kvg:097f5-g5" kvg:element="日" kvg:position="bottom"><path id="kvg:097f5-s6" kvg:type="㇑" d="M 16.2,61.35 c 0.45,0.78 0.82,1.38 1.01,2.43 0.82,4.63 2.73,29.68 2.73,30.76"><animate attributeName="d" begin="5.0s" dur="1.0s" from="M 16.2,61.35 C 16.2,61.35 , 16.2,61.35 , 16.2,61.35 " to="M 16.2,61.35 c 0.45,0.78 0.82,1.38 1.01,2.43 0.82,4.63 2.73,29.68 2.73,30.76" />
<animate attributeName="d" begin="0s" dur="5.0s" from="M-100,-100" to="M-100,-100" />
</path>
<path id="kvg:097f5-s7" kvg:type="㇕a" d="M 18.52,62.76 c 2.57,-0.27 19.23,-2.01 23.38,-2.43 2.35,-0.24 3.33,0.93 3.33,2.76 0,3.06 -2.79,28.4 -3.18,29.72"><animate attributeName="d" begin="6.0s" dur="1.0s" from="M 18.52,62.76 C 18.52,62.76 , 18.52,62.76 , 18.52,62.76 " to="M 18.52,62.76 c 2.57,-0.27 19.23,-2.01 23.38,-2.43 2.35,-0.24 3.33,0.93 3.33,2.76 0,3.06 -2.79,28.4 -3.18,29.72" />
<animate attributeName="d" begin="0s" dur="6.0s" from="M-100,-100" to="M-100,-100" />
</path>
<path id="kvg:097f5-s8" kvg:type="㇐a" d="M 19.03,76.63 C 26.25,76 39.44,74.95 43.37,74.73"><animate attributeName="d" begin="7.0s" dur="1.0s" from="M 19.03,76.63 C 19.03,76.63 , 19.03,76.63 , 19.03,76.63 " to="M 19.03,76.63 C 26.25,76 39.44,74.95 43.37,74.73" />
<animate attributeName="d" begin="0s" dur="7.0s" from="M-100,-100" to="M-100,-100" />
</path>
<path id="kvg:097f5-s9" kvg:type="㇐a" d="M 20.81,93.15 c 5.14,-0.28 14.01,-1.11 20.66,-1.48"><animate attributeName="d" begin="8.0s" dur="1.0s" from="M 20.81,93.15 C 20.81,93.15 , 20.81,93.15 , 20.81,93.15 " to="M 20.81,93.15 c 5.14,-0.28 14.01,-1.11 20.66,-1.48" />
<animate attributeName="d" begin="0s" dur="8.0s" from="M-100,-100" to="M-100,-100" />
</path>
</g>
</g>
<g id="kvg:097f5-g6" kvg:element="匀" kvg:position="right" kvg:phon="匀"><g id="kvg:097f5-g7" kvg:element="勹"><g id="kvg:097f5-g8" kvg:element="丿"><path id="kvg:097f5-s10" kvg:type="㇒" d="M 65.8,14.75 c 0.04,0.79 0.07,2.04 -0.07,3.18 -0.86,6.71 -5.76,21.43 -12.48,30.45"><animate attributeName="d" begin="9.0s" dur="1.0s" from="M 65.8,14.75 C 65.8,14.75 , 65.8,14.75 , 65.8,14.75 " to="M 65.8,14.75 c 0.04,0.79 0.07,2.04 -0.07,3.18 -0.86,6.71 -5.76,21.43 -12.48,30.45" />
<animate attributeName="d" begin="0s" dur="9.0s" from="M-100,-100" to="M-100,-100" />
</path>
</g>
<path id="kvg:097f5-s11" kvg:type="㇆" d="M 64.54,29.92 c 1.46,0.33 3.1,0.17 4.6,-0.04 C 75.5,29 86,27.25 90.28,26.25 c 3.51,-0.82 5.12,0.3 4.78,5.19 -0.79,11.29 -2.75,44.6 -8.24,58.98 -2.32,6.08 -5.57,4.33 -8.76,-0.16"><animate attributeName="d" begin="10.0s" dur="0.3333333333333333s" from="M 64.54,29.92 C 64.54,29.92 , 64.54,29.92 , 64.54,29.92 " to="M 64.54,29.92 c 1.46,0.33 3.1,0.17 4.6,-0.04 " />
<animate attributeName="d" begin="10.333333333333334s" dur="0.3333333333333333s" from="M 64.54,29.92 c 1.46,0.33 3.1,0.17 4.6,-0.04 c0,0,0,0,0,0,0" to="M 64.54,29.92 c 1.46,0.33 3.1,0.17 4.6,-0.04 C 75.5,29 86,27.25 90.28,26.25 " />
<animate attributeName="d" begin="10.666666666666666s" dur="0.3333333333333333s" from="M 64.54,29.92 c 1.46,0.33 3.1,0.17 4.6,-0.04 C 75.5,29 86,27.25 90.28,26.25 c0,0,0,0,0,0,0" to="M 64.54,29.92 c 1.46,0.33 3.1,0.17 4.6,-0.04 C 75.5,29 86,27.25 90.28,26.25 c 3.51,-0.82 5.12,0.3 4.78,5.19 -0.79,11.29 -2.75,44.6 -8.24,58.98 -2.32,6.08 -5.57,4.33 -8.76,-0.16" />
<animate attributeName="d" begin="0s" dur="10.0s" from="M-100,-100" to="M-100,-100" />
</path>
</g>
<g id="kvg:097f5-g9" kvg:element="冫" kvg:original="二" kvg:variant="true"><g id="kvg:097f5-g10" kvg:element="二" kvg:variant="true" kvg:position="top"><path id="kvg:097f5-s12" kvg:type="㇐" d="M 59.09,51.08 c 0.49,0.24 2.13,0.36 2.63,0.32 4.56,-0.37 11.03,-1.91 15.41,-2.5 0.61,-0.08 1.97,-0.1 2.9,0.11"><animate attributeName="d" begin="11.0s" dur="1.0s" from="M 59.09,51.08 C 59.09,51.08 , 59.09,51.08 , 59.09,51.08 " to="M 59.09,51.08 c 0.49,0.24 2.13,0.36 2.63,0.32 4.56,-0.37 11.03,-1.91 15.41,-2.5 0.61,-0.08 1.97,-0.1 2.9,0.11" />
<animate attributeName="d" begin="0s" dur="11.0s" from="M-100,-100" to="M-100,-100" />
</path>
</g>
<g id="kvg:097f5-g11" kvg:position="bottom"><path id="kvg:097f5-s13" d="M 58.337267,72.911276 c 0.708054,0.522572 2.350289,0.413627 3.893151,-0.574141 4.257275,-2.725583 9.500253,-5.560258 18.958176,-10.561457"><animate attributeName="d" begin="12.0s" dur="1.0s" from="M 58.337267,72.911276 C 58.337267,72.911276 , 58.337267,72.911276 , 58.337267,72.911276 " to="M 58.337267,72.911276 c 0.708054,0.522572 2.350289,0.413627 3.893151,-0.574141 4.257275,-2.725583 9.500253,-5.560258 18.958176,-10.561457" />
<animate attributeName="d" begin="0s" dur="12.0s" from="M-100,-100" to="M-100,-100" />
</path>
</g>
</g>
</g>
</g>
</svg>