<?xml version="1.0" encoding="UTF-8"?>
<!--
AniKanjiVG is licensed by CC-BY-SA Paul C. Sommerhoff (https://bitbucket.org/sommerhoff/anikanjivg).
AniKanjiVG uses KanjiVG which is licensed by CC-BY-SA Ulrich Apel (http://kanjivg.tagaini.net).
See also http://creativecommons.org/licenses/by-sa/3.0/
-->
<svg xmlns:kvg='http://kanjivg.tagaini.net' xmlns='http://www.w3.org/2000/svg' width='109' height='109' viewBox='0 0 109 109' style='fill:none;stroke:#000000;stroke-width:3;stroke-linecap:round;stroke-linejoin:round;' id="kvg:kanji_09b51"><g id="kvg:09b51" kvg:element="魑"><g id="kvg:09b51-g1" kvg:element="鬼" kvg:position="nyo" kvg:radical="general"><g id="kvg:09b51-g2" kvg:element="丿"><path id="kvg:09b51-s1" kvg:type="㇒" d="M 31.11,12 c 0.03,0.34 0.1,0.97 -0.05,1.35 -1.88,4.74 -4.66,9.08 -9.56,12.9"><animate attributeName="d" begin="0.0s" dur="1.0s" from="M 31.11,12 C 31.11,12 , 31.11,12 , 31.11,12 " to="M 31.11,12 c 0.03,0.34 0.1,0.97 -0.05,1.35 -1.88,4.74 -4.66,9.08 -9.56,12.9" />
</path>
</g>
<g id="kvg:09b51-g3" kvg:element="田"><path id="kvg:09b51-s2" kvg:type="㇑" d="M 14.33,28.12 c 0.23,0.54 0.24,0.91 0.37,1.57 1.04,5.5 2.33,15.74 2.95,25.88"><animate attributeName="d" begin="1.0s" dur="1.0s" from="M 14.33,28.12 C 14.33,28.12 , 14.33,28.12 , 14.33,28.12 " to="M 14.33,28.12 c 0.23,0.54 0.24,0.91 0.37,1.57 1.04,5.5 2.33,15.74 2.95,25.88" />
<animate attributeName="d" begin="0s" dur="1.0s" from="M-100,-100" to="M-100,-100" />
</path>
<path id="kvg:09b51-s3" kvg:type="㇕a" d="M 15.43,29.45 C 23.73,28.89 38,25.96 44.2,25.42 46.48,25.22 47.41,27 47.16,29.29 46.59,34.67 45.5,46 44.14,53.63"><animate attributeName="d" begin="2.0s" dur="1.0s" from="M 15.43,29.45 C 15.43,29.45 , 15.43,29.45 , 15.43,29.45 " to="M 15.43,29.45 C 23.73,28.89 38,25.96 44.2,25.42 46.48,25.22 47.41,27 47.16,29.29 46.59,34.67 45.5,46 44.14,53.63" />
<animate attributeName="d" begin="0s" dur="2.0s" from="M-100,-100" to="M-100,-100" />
</path>
<path id="kvg:09b51-s4" kvg:type="㇑a" d="M 29.2,28.9 c 0.69,0.69 1.25,1.64 1.26,2.75 0.03,5.51 0.12,16.88 0.12,20"><animate attributeName="d" begin="3.0s" dur="1.0s" from="M 29.2,28.9 C 29.2,28.9 , 29.2,28.9 , 29.2,28.9 " to="M 29.2,28.9 c 0.69,0.69 1.25,1.64 1.26,2.75 0.03,5.51 0.12,16.88 0.12,20" />
<animate attributeName="d" begin="0s" dur="3.0s" from="M-100,-100" to="M-100,-100" />
</path>
<path id="kvg:09b51-s5" kvg:type="㇐a" d="M 16.91,41.07 C 19.61,40.8 36.25,38.5 45.64,37.7"><animate attributeName="d" begin="4.0s" dur="1.0s" from="M 16.91,41.07 C 16.91,41.07 , 16.91,41.07 , 16.91,41.07 " to="M 16.91,41.07 C 19.61,40.8 36.25,38.5 45.64,37.7" />
<animate attributeName="d" begin="0s" dur="4.0s" from="M-100,-100" to="M-100,-100" />
</path>
<path id="kvg:09b51-s6" kvg:type="㇐a" d="M 18.07,54.14 C 28.25,52.75 34,52.25 43.71,51.26"><animate attributeName="d" begin="5.0s" dur="1.0s" from="M 18.07,54.14 C 18.07,54.14 , 18.07,54.14 , 18.07,54.14 " to="M 18.07,54.14 C 28.25,52.75 34,52.25 43.71,51.26" />
<animate attributeName="d" begin="0s" dur="5.0s" from="M-100,-100" to="M-100,-100" />
</path>
</g>
<g id="kvg:09b51-g4" kvg:element="儿" kvg:variant="true" kvg:original="八"><g id="kvg:09b51-g5" kvg:element="丿" kvg:position="left"><path id="kvg:09b51-s7" kvg:type="㇒" d="M 23.62,58.75 c 0.17,0.67 0.47,1.96 0.25,3.05 C 22,71 19,83.25 11,92.5"><animate attributeName="d" begin="6.0s" dur="0.5s" from="M 23.62,58.75 C 23.62,58.75 , 23.62,58.75 , 23.62,58.75 " to="M 23.62,58.75 c 0.17,0.67 0.47,1.96 0.25,3.05 " />
<animate attributeName="d" begin="6.5s" dur="0.5s" from="M 23.62,58.75 c 0.17,0.67 0.47,1.96 0.25,3.05 c0,0,0,0,0,0,0" to="M 23.62,58.75 c 0.17,0.67 0.47,1.96 0.25,3.05 C 22,71 19,83.25 11,92.5" />
<animate attributeName="d" begin="0s" dur="6.0s" from="M-100,-100" to="M-100,-100" />
</path>
</g>
<g id="kvg:09b51-g6" kvg:position="right"><path id="kvg:09b51-s8" kvg:type="㇟" d="M 33.49,54.87 c 0.74,1.19 1.33,2.59 1.38,4.43 0.2,8.19 -0.42,18.64 -0.42,24.2 0,11 1.56,13.03 31.97,13.03 27.34,0 28.84,-1.53 28.84,-10.62"><animate attributeName="d" begin="7.0s" dur="1.0s" from="M 33.49,54.87 C 33.49,54.87 , 33.49,54.87 , 33.49,54.87 " to="M 33.49,54.87 c 0.74,1.19 1.33,2.59 1.38,4.43 0.2,8.19 -0.42,18.64 -0.42,24.2 0,11 1.56,13.03 31.97,13.03 27.34,0 28.84,-1.53 28.84,-10.62" />
<animate attributeName="d" begin="0s" dur="7.0s" from="M-100,-100" to="M-100,-100" />
</path>
</g>
</g>
<g id="kvg:09b51-g7" kvg:element="厶"><path id="kvg:09b51-s9" kvg:type="㇜" d="M 45.44,60.72 c 0.21,0.35 0.06,1.93 -0.07,2.38 -1.55,5.71 -3.12,10.39 -6.06,16.54 -0.67,1.41 -0.87,1.7 0.42,1.27 4.53,-1.51 6.66,-2.82 11.05,-4.41"><animate attributeName="d" begin="8.0s" dur="1.0s" from="M 45.44,60.72 C 45.44,60.72 , 45.44,60.72 , 45.44,60.72 " to="M 45.44,60.72 c 0.21,0.35 0.06,1.93 -0.07,2.38 -1.55,5.71 -3.12,10.39 -6.06,16.54 -0.67,1.41 -0.87,1.7 0.42,1.27 4.53,-1.51 6.66,-2.82 11.05,-4.41" />
<animate attributeName="d" begin="0s" dur="8.0s" from="M-100,-100" to="M-100,-100" />
</path>
<path id="kvg:09b51-s10" kvg:type="㇔" d="M 48.85,71.54 c 1.01,1.37 3.24,6.8 3.49,8.93"><animate attributeName="d" begin="9.0s" dur="1.0s" from="M 48.85,71.54 C 48.85,71.54 , 48.85,71.54 , 48.85,71.54 " to="M 48.85,71.54 c 1.01,1.37 3.24,6.8 3.49,8.93" />
<animate attributeName="d" begin="0s" dur="9.0s" from="M-100,-100" to="M-100,-100" />
</path>
</g>
</g>
<g id="kvg:09b51-g8" kvg:element="亠"><path id="kvg:09b51-s11" kvg:type="㇑a" d="M 71.56,11.5 c 0.56,0.27 1.48,1.33 1.48,1.87 0,2 -0.18,6.23 -0.07,7.92"><animate attributeName="d" begin="10.0s" dur="1.0s" from="M 71.56,11.5 C 71.56,11.5 , 71.56,11.5 , 71.56,11.5 " to="M 71.56,11.5 c 0.56,0.27 1.48,1.33 1.48,1.87 0,2 -0.18,6.23 -0.07,7.92" />
<animate attributeName="d" begin="0s" dur="10.0s" from="M-100,-100" to="M-100,-100" />
</path>
<path id="kvg:09b51-s12" kvg:type="㇐" d="M 55.17,23.21 c 1.22,0.22 2.31,0.46 3.71,0.3 8.38,-0.91 21.78,-2.99 31.55,-3.43 1.44,-0.06 2.17,0.03 3.24,0.39"><animate attributeName="d" begin="11.0s" dur="1.0s" from="M 55.17,23.21 C 55.17,23.21 , 55.17,23.21 , 55.17,23.21 " to="M 55.17,23.21 c 1.22,0.22 2.31,0.46 3.71,0.3 8.38,-0.91 21.78,-2.99 31.55,-3.43 1.44,-0.06 2.17,0.03 3.24,0.39" />
<animate attributeName="d" begin="0s" dur="11.0s" from="M-100,-100" to="M-100,-100" />
</path>
</g>
<g id="kvg:09b51-g9" kvg:element="凶"><g id="kvg:09b51-g10" kvg:element="乂"><g id="kvg:09b51-g11" kvg:element="丿"><path id="kvg:09b51-s13" kvg:type="㇒" d="M 79.27,25.86 c 0.24,0.36 0.49,0.65 0.12,1.29 -3.27,5.72 -8.13,10.5 -15.16,13.5"><animate attributeName="d" begin="12.0s" dur="1.0s" from="M 79.27,25.86 C 79.27,25.86 , 79.27,25.86 , 79.27,25.86 " to="M 79.27,25.86 c 0.24,0.36 0.49,0.65 0.12,1.29 -3.27,5.72 -8.13,10.5 -15.16,13.5" />
<animate attributeName="d" begin="0s" dur="12.0s" from="M-100,-100" to="M-100,-100" />
</path>
</g>
<path id="kvg:09b51-s14" kvg:type="㇔/㇏" d="M 65.53,27.3 c 5.12,1.88 12.5,7.99 15.17,12.47"><animate attributeName="d" begin="13.0s" dur="1.0s" from="M 65.53,27.3 C 65.53,27.3 , 65.53,27.3 , 65.53,27.3 " to="M 65.53,27.3 c 5.12,1.88 12.5,7.99 15.17,12.47" />
<animate attributeName="d" begin="0s" dur="13.0s" from="M-100,-100" to="M-100,-100" />
</path>
</g>
<g id="kvg:09b51-g12" kvg:element="凵" kvg:position="kamae"><path id="kvg:09b51-s15" kvg:type="㇄a" d="M 58.65,28.83 c 0.32,0.17 0.98,1.24 1.05,1.57 0.46,2.41 -0.41,14.38 -0.44,15.16 -0.03,0.78 0.69,1.21 1.31,1.12 9.27,-1.4 23.28,-2.66 26.56,-2.83"><animate attributeName="d" begin="14.0s" dur="1.0s" from="M 58.65,28.83 C 58.65,28.83 , 58.65,28.83 , 58.65,28.83 " to="M 58.65,28.83 c 0.32,0.17 0.98,1.24 1.05,1.57 0.46,2.41 -0.41,14.38 -0.44,15.16 -0.03,0.78 0.69,1.21 1.31,1.12 9.27,-1.4 23.28,-2.66 26.56,-2.83" />
<animate attributeName="d" begin="0s" dur="14.0s" from="M-100,-100" to="M-100,-100" />
</path>
<path id="kvg:09b51-s16" kvg:type="㇑" d="M 87.91,25.63 c 0.32,0.17 0.98,1.24 1.05,1.57 0.06,0.33 -0.62,12.02 -0.9,18.52"><animate attributeName="d" begin="15.0s" dur="1.0s" from="M 87.91,25.63 C 87.91,25.63 , 87.91,25.63 , 87.91,25.63 " to="M 87.91,25.63 c 0.32,0.17 0.98,1.24 1.05,1.57 0.06,0.33 -0.62,12.02 -0.9,18.52" />
<animate attributeName="d" begin="0s" dur="15.0s" from="M-100,-100" to="M-100,-100" />
</path>
</g>
</g>
<g id="kvg:09b51-g13" kvg:element="禸"><path id="kvg:09b51-s17" kvg:type="㇑" d="M 56.15,54.52 c 0.57,0.76 0.76,1.96 0.76,3.35 0,7.88 -0.17,26.35 -0.17,28.63"><animate attributeName="d" begin="16.0s" dur="1.0s" from="M 56.15,54.52 C 56.15,54.52 , 56.15,54.52 , 56.15,54.52 " to="M 56.15,54.52 c 0.57,0.76 0.76,1.96 0.76,3.35 0,7.88 -0.17,26.35 -0.17,28.63" />
<animate attributeName="d" begin="0s" dur="16.0s" from="M-100,-100" to="M-100,-100" />
</path>
<path id="kvg:09b51-s18" kvg:type="㇆" d="M 57.08,56.98 c 5.07,-0.64 29.81,-4.09 30.83,-4.09 1.47,0 2.4,0.48 2.4,1.91 0,3.02 0.19,19.96 0.2,25.31 0.01,7.44 -4.64,3.14 -6,1.63"><animate attributeName="d" begin="17.0s" dur="1.0s" from="M 57.08,56.98 C 57.08,56.98 , 57.08,56.98 , 57.08,56.98 " to="M 57.08,56.98 c 5.07,-0.64 29.81,-4.09 30.83,-4.09 1.47,0 2.4,0.48 2.4,1.91 0,3.02 0.19,19.96 0.2,25.31 0.01,7.44 -4.64,3.14 -6,1.63" />
<animate attributeName="d" begin="0s" dur="17.0s" from="M-100,-100" to="M-100,-100" />
</path>
<path id="kvg:09b51-s19" kvg:type="㇜" d="M 72.72,47.79 c 0.22,0.42 0.28,2.07 0.07,2.59 -2.083107,7.5 -3.347874,11.513832 -5.03813,16.954299"><animate attributeName="d" begin="18.0s" dur="1.0s" from="M 72.72,47.79 C 72.72,47.79 , 72.72,47.79 , 72.72,47.79 " to="M 72.72,47.79 c 0.22,0.42 0.28,2.07 0.07,2.59 -2.083107,7.5 -3.347874,11.513832 -5.03813,16.954299" />
<animate attributeName="d" begin="0s" dur="18.0s" from="M-100,-100" to="M-100,-100" />
</path>
<path id="kvg:09b51-s20" kvg:type="㇜" d="M 64.803107,68.29397 c 3.39,-1.12 9.84,-2.13 14.56,-4.01"><animate attributeName="d" begin="19.0s" dur="1.0s" from="M 64.803107,68.29397 C 64.803107,68.29397 , 64.803107,68.29397 , 64.803107,68.29397 " to="M 64.803107,68.29397 c 3.39,-1.12 9.84,-2.13 14.56,-4.01" />
<animate attributeName="d" begin="0s" dur="19.0s" from="M-100,-100" to="M-100,-100" />
</path>
<path id="kvg:09b51-s21" kvg:type="㇔" d="M 77,59.08 c 2.14,2.11 5.53,8.66 6.06,11.94"><animate attributeName="d" begin="20.0s" dur="1.0s" from="M 77,59.08 C 77,59.08 , 77,59.08 , 77,59.08 " to="M 77,59.08 c 2.14,2.11 5.53,8.66 6.06,11.94" />
<animate attributeName="d" begin="0s" dur="20.0s" from="M-100,-100" to="M-100,-100" />
</path>
</g>
</g>
</svg>