<?xml version="1.0" encoding="UTF-8"?>
<!--
AniKanjiVG is licensed by CC-BY-SA Paul C. Sommerhoff (https://bitbucket.org/sommerhoff/anikanjivg).
AniKanjiVG uses KanjiVG which is licensed by CC-BY-SA Ulrich Apel (http://kanjivg.tagaini.net).
See also http://creativecommons.org/licenses/by-sa/3.0/
-->
<svg xmlns:kvg='http://kanjivg.tagaini.net' xmlns='http://www.w3.org/2000/svg' width='109' height='109' viewBox='0 0 109 109' style='fill:none;stroke:#000000;stroke-width:3;stroke-linecap:round;stroke-linejoin:round;' id="kvg:kanji_09ea9"><g id="kvg:09ea9" kvg:element="麩"><g id="kvg:09ea9-g1" kvg:element="麥" kvg:position="nyo" kvg:radical="general"><g id="kvg:09ea9-g2" kvg:element="來" kvg:position="top"><g id="kvg:09ea9-g3" kvg:element="木" kvg:part="1"><path id="kvg:09ea9-s1" kvg:type="㇐" d="M 14.46,25.24 c 1.31,0.4 2.8,0.43 4.31,0.4 7.98,-0.14 17.32,-1.93 28.94,-2.7 1.5,-0.1 2.44,0.07 3.94,0.35"><animate attributeName="d" begin="0.0s" dur="1.0s" from="M 14.46,25.24 C 14.46,25.24 , 14.46,25.24 , 14.46,25.24 " to="M 14.46,25.24 c 1.31,0.4 2.8,0.43 4.31,0.4 7.98,-0.14 17.32,-1.93 28.94,-2.7 1.5,-0.1 2.44,0.07 3.94,0.35" />
</path>
</g>
<g id="kvg:09ea9-g4" kvg:element="从"><g id="kvg:09ea9-g5" kvg:element="人"><path id="kvg:09ea9-s2" kvg:type="㇒" d="M 22.13,29.52 c 0,0.45 0.05,0.83 -0.08,1.36 -1.19,4.92 -4.73,11.04 -9.93,16.47"><animate attributeName="d" begin="1.0s" dur="1.0s" from="M 22.13,29.52 C 22.13,29.52 , 22.13,29.52 , 22.13,29.52 " to="M 22.13,29.52 c 0,0.45 0.05,0.83 -0.08,1.36 -1.19,4.92 -4.73,11.04 -9.93,16.47" />
<animate attributeName="d" begin="0s" dur="1.0s" from="M-100,-100" to="M-100,-100" />
</path>
<path id="kvg:09ea9-s3" kvg:type="㇔" d="M 21.6,38.51 c 1.78,1.02 4.06,3.74 4.93,6.31"><animate attributeName="d" begin="2.0s" dur="1.0s" from="M 21.6,38.51 C 21.6,38.51 , 21.6,38.51 , 21.6,38.51 " to="M 21.6,38.51 c 1.78,1.02 4.06,3.74 4.93,6.31" />
<animate attributeName="d" begin="0s" dur="2.0s" from="M-100,-100" to="M-100,-100" />
</path>
</g>
<g id="kvg:09ea9-g6" kvg:element="人"><path id="kvg:09ea9-s4" kvg:type="㇒" d="M 46.29,29.11 c 0,0.38 0.06,0.7 -0.06,1.13 -1.03,3.69 -3.99,10.27 -7.5,14"><animate attributeName="d" begin="3.0s" dur="1.0s" from="M 46.29,29.11 C 46.29,29.11 , 46.29,29.11 , 46.29,29.11 " to="M 46.29,29.11 c 0,0.38 0.06,0.7 -0.06,1.13 -1.03,3.69 -3.99,10.27 -7.5,14" />
<animate attributeName="d" begin="0s" dur="3.0s" from="M-100,-100" to="M-100,-100" />
</path>
<path id="kvg:09ea9-s5" kvg:type="㇔" d="M 45.81,36.85 c 2.67,2.19 4.72,4.94 6.32,8.27"><animate attributeName="d" begin="4.0s" dur="1.0s" from="M 45.81,36.85 C 45.81,36.85 , 45.81,36.85 , 45.81,36.85 " to="M 45.81,36.85 c 2.67,2.19 4.72,4.94 6.32,8.27" />
<animate attributeName="d" begin="0s" dur="4.0s" from="M-100,-100" to="M-100,-100" />
</path>
</g>
</g>
<g id="kvg:09ea9-g7" kvg:element="木" kvg:part="2"><path id="kvg:09ea9-s6" kvg:type="㇑" d="M 31.94,12.25 c 1.1,0.44 1.99,1.96 1.99,2.87 0,9.27 -0.22,37.40454 -0.22,45.90454"><animate attributeName="d" begin="5.0s" dur="1.0s" from="M 31.94,12.25 C 31.94,12.25 , 31.94,12.25 , 31.94,12.25 " to="M 31.94,12.25 c 1.1,0.44 1.99,1.96 1.99,2.87 0,9.27 -0.22,37.40454 -0.22,45.90454" />
<animate attributeName="d" begin="0s" dur="5.0s" from="M-100,-100" to="M-100,-100" />
</path>
<path id="kvg:09ea9-s7" kvg:type="㇒" d="M 31.43,48.7 C 31.25,49.75 31.2,50.14 30.76,50.9 26.41,58.5 17.03,65.59 10,69.56"><animate attributeName="d" begin="6.0s" dur="1.0s" from="M 31.43,48.7 C 31.43,48.7 , 31.43,48.7 , 31.43,48.7 " to="M 31.43,48.7 C 31.25,49.75 31.2,50.14 30.76,50.9 26.41,58.5 17.03,65.59 10,69.56" />
<animate attributeName="d" begin="0s" dur="6.0s" from="M-100,-100" to="M-100,-100" />
</path>
<path id="kvg:09ea9-s8" kvg:type="㇏" d="M 34.12726,52.91 c 5.68,1.99 13.93,7.93 18.34,12.23"><animate attributeName="d" begin="7.0s" dur="1.0s" from="M 34.12726,52.91 C 34.12726,52.91 , 34.12726,52.91 , 34.12726,52.91 " to="M 34.12726,52.91 c 5.68,1.99 13.93,7.93 18.34,12.23" />
<animate attributeName="d" begin="0s" dur="7.0s" from="M-100,-100" to="M-100,-100" />
</path>
</g>
</g>
<g id="kvg:09ea9-g8" kvg:element="夂" kvg:position="bottom"><path id="kvg:09ea9-s9" kvg:type="㇒" d="M 29.88,61 c 0.05,0.53 0.1,1.37 -0.09,2.13 -1.15,4.5 -7.25,14.88 -16.28,20.92"><animate attributeName="d" begin="8.0s" dur="1.0s" from="M 29.88,61 C 29.88,61 , 29.88,61 , 29.88,61 " to="M 29.88,61 c 0.05,0.53 0.1,1.37 -0.09,2.13 -1.15,4.5 -7.25,14.88 -16.28,20.92" />
<animate attributeName="d" begin="0s" dur="8.0s" from="M-100,-100" to="M-100,-100" />
</path>
<path id="kvg:09ea9-s10" kvg:type="㇇" d="M 29.57,67.27 c 0.26,0.03 1.68,0.32 2.42,0.2 3.01,-0.47 6.22,-0.71 9.72,-1.62 2.4,-0.63 3.22,0.77 2.47,2.44 C 39.5,78.75 29.5,90.75 14.36,98"><animate attributeName="d" begin="9.0s" dur="0.5s" from="M 29.57,67.27 C 29.57,67.27 , 29.57,67.27 , 29.57,67.27 " to="M 29.57,67.27 c 0.26,0.03 1.68,0.32 2.42,0.2 3.01,-0.47 6.22,-0.71 9.72,-1.62 2.4,-0.63 3.22,0.77 2.47,2.44 " />
<animate attributeName="d" begin="9.5s" dur="0.5s" from="M 29.57,67.27 c 0.26,0.03 1.68,0.32 2.42,0.2 3.01,-0.47 6.22,-0.71 9.72,-1.62 2.4,-0.63 3.22,0.77 2.47,2.44 c0,0,0,0,0,0,0" to="M 29.57,67.27 c 0.26,0.03 1.68,0.32 2.42,0.2 3.01,-0.47 6.22,-0.71 9.72,-1.62 2.4,-0.63 3.22,0.77 2.47,2.44 C 39.5,78.75 29.5,90.75 14.36,98" />
<animate attributeName="d" begin="0s" dur="9.0s" from="M-100,-100" to="M-100,-100" />
</path>
<path id="kvg:09ea9-s11" kvg:type="㇔" d="M 24.39,73.78 c 8.25,4.04 42.11,19.22 55.77,22.61 3.39,0.84 6,1.64 9.23,1.97"><animate attributeName="d" begin="10.0s" dur="1.0s" from="M 24.39,73.78 C 24.39,73.78 , 24.39,73.78 , 24.39,73.78 " to="M 24.39,73.78 c 8.25,4.04 42.11,19.22 55.77,22.61 3.39,0.84 6,1.64 9.23,1.97" />
<animate attributeName="d" begin="0s" dur="10.0s" from="M-100,-100" to="M-100,-100" />
</path>
</g>
</g>
<g id="kvg:09ea9-g9" kvg:element="夫"><path id="kvg:09ea9-s12" kvg:type="㇐" d="M 59.06,31.96 c 0.87,0.16 2.45,0.18 3.32,0.16 4.7,-0.14 16.02,-2.7 24.63,-3.51 1.43,-0.13 2.31,0.08 3.04,0.15"><animate attributeName="d" begin="11.0s" dur="1.0s" from="M 59.06,31.96 C 59.06,31.96 , 59.06,31.96 , 59.06,31.96 " to="M 59.06,31.96 c 0.87,0.16 2.45,0.18 3.32,0.16 4.7,-0.14 16.02,-2.7 24.63,-3.51 1.43,-0.13 2.31,0.08 3.04,0.15" />
<animate attributeName="d" begin="0s" dur="11.0s" from="M-100,-100" to="M-100,-100" />
</path>
<g id="kvg:09ea9-g10" kvg:element="大"><path id="kvg:09ea9-s13" kvg:type="㇐" d="M 54.39,51.51 c 0.99,0.18 2.81,0.24 3.8,0.18 6.5,-0.35 23.14,-3.8 33.85,-4.18 1.65,-0.06 2.64,0.09 3.47,0.18"><animate attributeName="d" begin="12.0s" dur="1.0s" from="M 54.39,51.51 C 54.39,51.51 , 54.39,51.51 , 54.39,51.51 " to="M 54.39,51.51 c 0.99,0.18 2.81,0.24 3.8,0.18 6.5,-0.35 23.14,-3.8 33.85,-4.18 1.65,-0.06 2.64,0.09 3.47,0.18" />
<animate attributeName="d" begin="0s" dur="12.0s" from="M-100,-100" to="M-100,-100" />
</path>
<path id="kvg:09ea9-s14" kvg:type="㇒" d="M 75.1,12 c 0.31,1.08 0.43,2.09 0.44,4.18 C 75.66,54.84 69.75,72 56.79,82.25"><animate attributeName="d" begin="13.0s" dur="0.5s" from="M 75.1,12 C 75.1,12 , 75.1,12 , 75.1,12 " to="M 75.1,12 c 0.31,1.08 0.43,2.09 0.44,4.18 " />
<animate attributeName="d" begin="13.5s" dur="0.5s" from="M 75.1,12 c 0.31,1.08 0.43,2.09 0.44,4.18 c0,0,0,0,0,0,0" to="M 75.1,12 c 0.31,1.08 0.43,2.09 0.44,4.18 C 75.66,54.84 69.75,72 56.79,82.25" />
<animate attributeName="d" begin="0s" dur="13.0s" from="M-100,-100" to="M-100,-100" />
</path>
<path id="kvg:09ea9-s15" kvg:type="㇏" d="M 74.97,59.29 c 8.55,6.46 16.58,16.68 20.53,25.49"><animate attributeName="d" begin="14.0s" dur="1.0s" from="M 74.97,59.29 C 74.97,59.29 , 74.97,59.29 , 74.97,59.29 " to="M 74.97,59.29 c 8.55,6.46 16.58,16.68 20.53,25.49" />
<animate attributeName="d" begin="0s" dur="14.0s" from="M-100,-100" to="M-100,-100" />
</path>
</g>
</g>
</g>
</svg>