<?xml version="1.0" encoding="UTF-8"?>
<!--
AniKanjiVG is licensed by CC-BY-SA Paul C. Sommerhoff (https://bitbucket.org/sommerhoff/anikanjivg).
AniKanjiVG uses KanjiVG which is licensed by CC-BY-SA Ulrich Apel (http://kanjivg.tagaini.net).
See also http://creativecommons.org/licenses/by-sa/3.0/
-->
<svg xmlns:kvg='http://kanjivg.tagaini.net' xmlns='http://www.w3.org/2000/svg' width='109' height='109' viewBox='0 0 109 109' style='fill:none;stroke:#000000;stroke-width:3;stroke-linecap:round;stroke-linejoin:round;' id="kvg:kanji_09ed0"><g id="kvg:09ed0" kvg:element="黐"><g id="kvg:09ed0-g1" kvg:element="黍" kvg:position="left" kvg:radical="general"><g id="kvg:09ed0-g2" kvg:position="top"><g id="kvg:09ed0-g3" kvg:element="禾"><g id="kvg:09ed0-g4" kvg:element="丿" kvg:position="top"><path id="kvg:09ed0-s1" kvg:type="㇒" d="M 41.03,13.5 c 0.07,0.23 0.14,0.58 -0.13,0.9 -1.58,1.91 -10.64,6.09 -23.03,8.65"><animate attributeName="d" begin="0.0s" dur="1.0s" from="M 41.03,13.5 C 41.03,13.5 , 41.03,13.5 , 41.03,13.5 " to="M 41.03,13.5 c 0.07,0.23 0.14,0.58 -0.13,0.9 -1.58,1.91 -10.64,6.09 -23.03,8.65" />
</path>
</g>
<g id="kvg:09ed0-g5" kvg:element="木" kvg:position="bottom"><path id="kvg:09ed0-s2" kvg:type="㇐" d="M 15.1,30.9 c 0.42,0.18 2.1,0.54 3.22,0.55 5.43,0.05 17.72,-2.16 26.26,-2.66 1.12,-0.07 2.52,0.22 3.22,0.4"><animate attributeName="d" begin="1.0s" dur="1.0s" from="M 15.1,30.9 C 15.1,30.9 , 15.1,30.9 , 15.1,30.9 " to="M 15.1,30.9 c 0.42,0.18 2.1,0.54 3.22,0.55 5.43,0.05 17.72,-2.16 26.26,-2.66 1.12,-0.07 2.52,0.22 3.22,0.4" />
<animate attributeName="d" begin="0s" dur="1.0s" from="M-100,-100" to="M-100,-100" />
</path>
<path id="kvg:09ed0-s3" kvg:type="㇑" d="M 32.66,21.62 c 0.52,0.51 0.84,2.28 0.94,3.29 0.11,1.01 0,15.45 -0.11,21.78"><animate attributeName="d" begin="2.0s" dur="1.0s" from="M 32.66,21.62 C 32.66,21.62 , 32.66,21.62 , 32.66,21.62 " to="M 32.66,21.62 c 0.52,0.51 0.84,2.28 0.94,3.29 0.11,1.01 0,15.45 -0.11,21.78" />
<animate attributeName="d" begin="0s" dur="2.0s" from="M-100,-100" to="M-100,-100" />
</path>
<path id="kvg:09ed0-s4" kvg:type="㇒" d="M 31.95,31.43 C 28.28,36.45 21.9,43.8 13.85,46.76"><animate attributeName="d" begin="3.0s" dur="1.0s" from="M 31.95,31.43 C 31.95,31.43 , 31.95,31.43 , 31.95,31.43 " to="M 31.95,31.43 C 28.28,36.45 21.9,43.8 13.85,46.76" />
<animate attributeName="d" begin="0s" dur="3.0s" from="M-100,-100" to="M-100,-100" />
</path>
<path id="kvg:09ed0-s5" kvg:type="㇔" d="M 35.12,34.8 c 4.08,1.27 11.48,8.42 13.39,11.16"><animate attributeName="d" begin="4.0s" dur="1.0s" from="M 35.12,34.8 C 35.12,34.8 , 35.12,34.8 , 35.12,34.8 " to="M 35.12,34.8 c 4.08,1.27 11.48,8.42 13.39,11.16" />
<animate attributeName="d" begin="0s" dur="4.0s" from="M-100,-100" to="M-100,-100" />
</path>
</g>
</g>
<path id="kvg:09ed0-s6" kvg:type="㇒" d="M 31.07,49.2 c 0.05,0.43 -0.03,1.21 -0.34,1.72 C 28.23,55 22.75,61.5 12.25,67.86"><animate attributeName="d" begin="5.0s" dur="0.5s" from="M 31.07,49.2 C 31.07,49.2 , 31.07,49.2 , 31.07,49.2 " to="M 31.07,49.2 c 0.05,0.43 -0.03,1.21 -0.34,1.72 " />
<animate attributeName="d" begin="5.5s" dur="0.5s" from="M 31.07,49.2 c 0.05,0.43 -0.03,1.21 -0.34,1.72 c0,0,0,0,0,0,0" to="M 31.07,49.2 c 0.05,0.43 -0.03,1.21 -0.34,1.72 C 28.23,55 22.75,61.5 12.25,67.86" />
<animate attributeName="d" begin="0s" dur="5.0s" from="M-100,-100" to="M-100,-100" />
</path>
<path id="kvg:09ed0-s7" kvg:type="㇏" d="M 33.53,51.58 C 37,52.8 44.85,57.74 46.84,60.5"><animate attributeName="d" begin="6.0s" dur="1.0s" from="M 33.53,51.58 C 33.53,51.58 , 33.53,51.58 , 33.53,51.58 " to="M 33.53,51.58 C 37,52.8 44.85,57.74 46.84,60.5" />
<animate attributeName="d" begin="0s" dur="6.0s" from="M-100,-100" to="M-100,-100" />
</path>
</g>
<g id="kvg:09ed0-g6" kvg:element="氺" kvg:variant="true" kvg:original="水" kvg:position="bottom"><path id="kvg:09ed0-s8" kvg:type="㇚" d="M 32.49,60.64 c 0.06,0.4 0.9,2.09 0.9,4.64 0,15.27 -0.19,22.06 -0.19,26.23 0,8.86 -5.18,1.26 -6.25,0.21"><animate attributeName="d" begin="7.0s" dur="1.0s" from="M 32.49,60.64 C 32.49,60.64 , 32.49,60.64 , 32.49,60.64 " to="M 32.49,60.64 c 0.06,0.4 0.9,2.09 0.9,4.64 0,15.27 -0.19,22.06 -0.19,26.23 0,8.86 -5.18,1.26 -6.25,0.21" />
<animate attributeName="d" begin="0s" dur="7.0s" from="M-100,-100" to="M-100,-100" />
</path>
<path id="kvg:09ed0-s9" kvg:type="㇔" d="M 18.53,70.5 c 2.42,1.05 6.26,4.32 6.86,5.96"><animate attributeName="d" begin="8.0s" dur="1.0s" from="M 18.53,70.5 C 18.53,70.5 , 18.53,70.5 , 18.53,70.5 " to="M 18.53,70.5 c 2.42,1.05 6.26,4.32 6.86,5.96" />
<animate attributeName="d" begin="0s" dur="8.0s" from="M-100,-100" to="M-100,-100" />
</path>
<path id="kvg:09ed0-s10" kvg:type="㇀" d="M 13.17,87.83 c 1.35,1.07 2.48,1.53 3.83,0.61 0.8,-0.54 7.22,-5.34 10.6,-7.93"><animate attributeName="d" begin="9.0s" dur="1.0s" from="M 13.17,87.83 C 13.17,87.83 , 13.17,87.83 , 13.17,87.83 " to="M 13.17,87.83 c 1.35,1.07 2.48,1.53 3.83,0.61 0.8,-0.54 7.22,-5.34 10.6,-7.93" />
<animate attributeName="d" begin="0s" dur="9.0s" from="M-100,-100" to="M-100,-100" />
</path>
<path id="kvg:09ed0-s11" kvg:type="㇒" d="M 45.65,65.21 c 0.03,0.23 0.05,0.59 -0.05,0.92 -0.6,1.95 -4.04,6.22 -8.74,8.83"><animate attributeName="d" begin="10.0s" dur="1.0s" from="M 45.65,65.21 C 45.65,65.21 , 45.65,65.21 , 45.65,65.21 " to="M 45.65,65.21 c 0.03,0.23 0.05,0.59 -0.05,0.92 -0.6,1.95 -4.04,6.22 -8.74,8.83" />
<animate attributeName="d" begin="0s" dur="10.0s" from="M-100,-100" to="M-100,-100" />
</path>
<path id="kvg:09ed0-s12" kvg:type="㇔" d="M 36.51,79.09 c 2.54,1.2 9.49,6.98 11.71,11.47"><animate attributeName="d" begin="11.0s" dur="1.0s" from="M 36.51,79.09 C 36.51,79.09 , 36.51,79.09 , 36.51,79.09 " to="M 36.51,79.09 c 2.54,1.2 9.49,6.98 11.71,11.47" />
<animate attributeName="d" begin="0s" dur="11.0s" from="M-100,-100" to="M-100,-100" />
</path>
</g>
</g>
<g id="kvg:09ed0-g7" kvg:position="right"><g id="kvg:09ed0-g8" kvg:element="亠"><path id="kvg:09ed0-s13" kvg:type="㇑a" d="M 72,12.47 c 0.64,0.29 1.7,1.4 1.7,1.97 0,2.11 -0.2,7.1 -0.08,8.88"><animate attributeName="d" begin="12.0s" dur="1.0s" from="M 72,12.47 C 72,12.47 , 72,12.47 , 72,12.47 " to="M 72,12.47 c 0.64,0.29 1.7,1.4 1.7,1.97 0,2.11 -0.2,7.1 -0.08,8.88" />
<animate attributeName="d" begin="0s" dur="12.0s" from="M-100,-100" to="M-100,-100" />
</path>
<path id="kvg:09ed0-s14" kvg:type="㇐" d="M 52.92,24.85 c 1.55,0.25 2.91,0.53 4.69,0.35 10.6,-1.06 22.34,-2.72 34.7,-3.23 1.82,-0.07 2.74,0.03 4.1,0.45"><animate attributeName="d" begin="13.0s" dur="1.0s" from="M 52.92,24.85 C 52.92,24.85 , 52.92,24.85 , 52.92,24.85 " to="M 52.92,24.85 c 1.55,0.25 2.91,0.53 4.69,0.35 10.6,-1.06 22.34,-2.72 34.7,-3.23 1.82,-0.07 2.74,0.03 4.1,0.45" />
<animate attributeName="d" begin="0s" dur="13.0s" from="M-100,-100" to="M-100,-100" />
</path>
</g>
<g id="kvg:09ed0-g9" kvg:element="凶"><g id="kvg:09ed0-g10" kvg:element="乂"><g id="kvg:09ed0-g11" kvg:element="丿"><path id="kvg:09ed0-s15" kvg:type="㇒" d="M 80.88,27.65 c 0.28,0.35 0.56,0.62 0.14,1.24 -3.75,5.5 -9.34,10.1 -17.42,12.98"><animate attributeName="d" begin="14.0s" dur="1.0s" from="M 80.88,27.65 C 80.88,27.65 , 80.88,27.65 , 80.88,27.65 " to="M 80.88,27.65 c 0.28,0.35 0.56,0.62 0.14,1.24 -3.75,5.5 -9.34,10.1 -17.42,12.98" />
<animate attributeName="d" begin="0s" dur="14.0s" from="M-100,-100" to="M-100,-100" />
</path>
</g>
<path id="kvg:09ed0-s16" kvg:type="㇔/㇏" d="M 65.62,30.3 c 5.37,1.67 13.1,7.08 15.9,11.04"><animate attributeName="d" begin="15.0s" dur="1.0s" from="M 65.62,30.3 C 65.62,30.3 , 65.62,30.3 , 65.62,30.3 " to="M 65.62,30.3 c 5.37,1.67 13.1,7.08 15.9,11.04" />
<animate attributeName="d" begin="0s" dur="15.0s" from="M-100,-100" to="M-100,-100" />
</path>
</g>
<g id="kvg:09ed0-g12" kvg:element="凵" kvg:position="kamae"><path id="kvg:09ed0-s17" kvg:type="㇄a" d="M 56.47,31.81 c 0.36,0.17 1.12,1.31 1.19,1.65 0.53,2.55 -0.47,13.17 -0.5,13.99 -0.04,0.82 0.79,1.28 1.5,1.18 10.59,-1.48 27.09,-2.87 30.83,-3.04"><animate attributeName="d" begin="16.0s" dur="1.0s" from="M 56.47,31.81 C 56.47,31.81 , 56.47,31.81 , 56.47,31.81 " to="M 56.47,31.81 c 0.36,0.17 1.12,1.31 1.19,1.65 0.53,2.55 -0.47,13.17 -0.5,13.99 -0.04,0.82 0.79,1.28 1.5,1.18 10.59,-1.48 27.09,-2.87 30.83,-3.04" />
<animate attributeName="d" begin="0s" dur="16.0s" from="M-100,-100" to="M-100,-100" />
</path>
<path id="kvg:09ed0-s18" kvg:type="㇑" d="M 89.25,27.95 c 0.36,0.17 1.12,1.3 1.19,1.65 0.07,0.35 -0.71,12.15 -1.03,19"><animate attributeName="d" begin="17.0s" dur="1.0s" from="M 89.25,27.95 C 89.25,27.95 , 89.25,27.95 , 89.25,27.95 " to="M 89.25,27.95 c 0.36,0.17 1.12,1.3 1.19,1.65 0.07,0.35 -0.71,12.15 -1.03,19" />
<animate attributeName="d" begin="0s" dur="17.0s" from="M-100,-100" to="M-100,-100" />
</path>
</g>
</g>
<g id="kvg:09ed0-g13" kvg:element="禸"><path id="kvg:09ed0-s19" kvg:type="㇑" d="M 53.2,60.02 c 0.49,1.02 1.07,2.63 1.15,4.49 0.22,4.84 0.64,29.97 0.64,33.03"><animate attributeName="d" begin="18.0s" dur="1.0s" from="M 53.2,60.02 C 53.2,60.02 , 53.2,60.02 , 53.2,60.02 " to="M 53.2,60.02 c 0.49,1.02 1.07,2.63 1.15,4.49 0.22,4.84 0.64,29.97 0.64,33.03" />
<animate attributeName="d" begin="0s" dur="18.0s" from="M-100,-100" to="M-100,-100" />
</path>
<path id="kvg:09ed0-s20" kvg:type="㇆" d="M 54.47,62.06 c 5.79,-0.67 36.19,-4.35 37.36,-4.35 1.67,0 2.74,0.5 2.74,2.01 0,3.18 -0.27,25.03 -0.27,31.59 0,9.69 -4.72,3.32 -6.28,1.72"><animate attributeName="d" begin="19.0s" dur="1.0s" from="M 54.47,62.06 C 54.47,62.06 , 54.47,62.06 , 54.47,62.06 " to="M 54.47,62.06 c 5.79,-0.67 36.19,-4.35 37.36,-4.35 1.67,0 2.74,0.5 2.74,2.01 0,3.18 -0.27,25.03 -0.27,31.59 0,9.69 -4.72,3.32 -6.28,1.72" />
<animate attributeName="d" begin="0s" dur="19.0s" from="M-100,-100" to="M-100,-100" />
</path>
<g id="kvg:09ed0-g14" kvg:element="厶"><path id="kvg:09ed0-s21" kvg:type="㇜" d="M 73.97,49.78 c 0.25,0.51 0.32,2.49 0.08,3.11 -1.586769,9.57726 -1.639018,14.986605 -3.538691,23.107096"><animate attributeName="d" begin="20.0s" dur="1.0s" from="M 73.97,49.78 C 73.97,49.78 , 73.97,49.78 , 73.97,49.78 " to="M 73.97,49.78 c 0.25,0.51 0.32,2.49 0.08,3.11 -1.586769,9.57726 -1.639018,14.986605 -3.538691,23.107096" />
<animate attributeName="d" begin="0s" dur="20.0s" from="M-100,-100" to="M-100,-100" />
</path>
<path id="kvg:09ed0-s22" kvg:type="㇜" d="M 64.554029,78.531595 c 3.87,-1.35 10.89,-3.36 16.27,-5.63"><animate attributeName="d" begin="21.0s" dur="1.0s" from="M 64.554029,78.531595 C 64.554029,78.531595 , 64.554029,78.531595 , 64.554029,78.531595 " to="M 64.554029,78.531595 c 3.87,-1.35 10.89,-3.36 16.27,-5.63" />
<animate attributeName="d" begin="0s" dur="21.0s" from="M-100,-100" to="M-100,-100" />
</path>
<path id="kvg:09ed0-s23" kvg:type="㇔" d="M 78.43,66.55 c 2.44,2.43 6.31,9.98 6.92,13.76"><animate attributeName="d" begin="22.0s" dur="1.0s" from="M 78.43,66.55 C 78.43,66.55 , 78.43,66.55 , 78.43,66.55 " to="M 78.43,66.55 c 2.44,2.43 6.31,9.98 6.92,13.76" />
<animate attributeName="d" begin="0s" dur="22.0s" from="M-100,-100" to="M-100,-100" />
</path>
</g>
</g>
</g>
</g>
</svg>