<?xml version="1.0" encoding="UTF-8"?>
<!--
AniKanjiVG is licensed by CC-BY-SA Paul C. Sommerhoff (https://bitbucket.org/sommerhoff/anikanjivg).
AniKanjiVG uses KanjiVG which is licensed by CC-BY-SA Ulrich Apel (http://kanjivg.tagaini.net).
See also http://creativecommons.org/licenses/by-sa/3.0/
-->
<svg xmlns:kvg='http://kanjivg.tagaini.net' xmlns='http://www.w3.org/2000/svg' width='109' height='109' viewBox='0 0 109 109' style='fill:none;stroke:#000000;stroke-width:3;stroke-linecap:round;stroke-linejoin:round;' id="kvg:kanji_09f9d"><g id="kvg:09f9d" kvg:element="龝"><g id="kvg:09f9d-g1" kvg:element="禾" kvg:position="left" kvg:radical="general"><g id="kvg:09f9d-g2" kvg:element="丿" kvg:position="top"><path id="kvg:09f9d-s1" kvg:type="㇒" d="M 34.76,14.75 c 0.06,0.31 0.12,0.79 -0.12,1.23 -1.43,2.59 -9.65,8.29 -20.89,11.77"><animate attributeName="d" begin="0.0s" dur="1.0s" from="M 34.76,14.75 C 34.76,14.75 , 34.76,14.75 , 34.76,14.75 " to="M 34.76,14.75 c 0.06,0.31 0.12,0.79 -0.12,1.23 -1.43,2.59 -9.65,8.29 -20.89,11.77" />
</path>
</g>
<g id="kvg:09f9d-g3" kvg:element="木" kvg:position="bottom"><path id="kvg:09f9d-s2" kvg:type="㇐" d="M 9.12,40.87 c 0.32,0.13 1.17,0.34 2.03,0.39 2.35,0.13 21.56,-1.93 27.43,-2.58 0.85,-0.09 1.07,-0.13 1.6,0"><animate attributeName="d" begin="1.0s" dur="1.0s" from="M 9.12,40.87 C 9.12,40.87 , 9.12,40.87 , 9.12,40.87 " to="M 9.12,40.87 c 0.32,0.13 1.17,0.34 2.03,0.39 2.35,0.13 21.56,-1.93 27.43,-2.58 0.85,-0.09 1.07,-0.13 1.6,0" />
<animate attributeName="d" begin="0s" dur="1.0s" from="M-100,-100" to="M-100,-100" />
</path>
<path id="kvg:09f9d-s3" kvg:type="㇑" d="M 26.81,25.66 c 0.18,0.87 1.12,2.95 1.19,3.8 0.08,0.85 0,60.46 -0.07,65.79"><animate attributeName="d" begin="2.0s" dur="1.0s" from="M 26.81,25.66 C 26.81,25.66 , 26.81,25.66 , 26.81,25.66 " to="M 26.81,25.66 c 0.18,0.87 1.12,2.95 1.19,3.8 0.08,0.85 0,60.46 -0.07,65.79" />
<animate attributeName="d" begin="0s" dur="2.0s" from="M-100,-100" to="M-100,-100" />
</path>
<path id="kvg:09f9d-s4" kvg:type="㇒" d="M 27.5,45.25 C 23.95,56.64 18.03,70.69 10,80"><animate attributeName="d" begin="3.0s" dur="1.0s" from="M 27.5,45.25 C 27.5,45.25 , 27.5,45.25 , 27.5,45.25 " to="M 27.5,45.25 C 23.95,56.64 18.03,70.69 10,80" />
<animate attributeName="d" begin="0s" dur="3.0s" from="M-100,-100" to="M-100,-100" />
</path>
<path id="kvg:09f9d-s5" kvg:type="㇔/㇏" d="M 30.25,50.25 c 3.46,2.45 6.39,7.35 8.25,10.5"><animate attributeName="d" begin="4.0s" dur="1.0s" from="M 30.25,50.25 C 30.25,50.25 , 30.25,50.25 , 30.25,50.25 " to="M 30.25,50.25 c 3.46,2.45 6.39,7.35 8.25,10.5" />
<animate attributeName="d" begin="0s" dur="4.0s" from="M-100,-100" to="M-100,-100" />
</path>
</g>
</g>
<g id="kvg:09f9d-g4" kvg:element="龜" kvg:position="right"><g id="kvg:09f9d-g5" kvg:element="𠂊𠂊𠂊𠂊𠂊𠂊𠂊𠂊𠔉𠔉𠂊𠂊𠂊𠂊𤇾𠂊𠔉𠂊𠂊𠂊𠂤𠂊𠂊𠂊𦥯𦥑𠂊𦥑𠂊𠂊𠔉𠔉𠂊𠂊𠂊𠂊𠂊𠂊𠂊𠂊𠂊𠂊𦥑𦥑𠂊𠂊𠂊𠂊𠬝𠂊𤇾𠂊𤇾𠂊𠂊𠂊𠂊𦥑𦥑𠂊𠂊𠂢𠂢𠂊𠂊𦥑𠂊𦰩𠂊𠂊𠂊𠂊𤇾𦥑𠂊𠂊𠂊𠂊𠂊𠂊𠂊𦥑𠂊𠂊𠂊𠂊𠂊𠂊𠂊𠂊𠂊𠂊𠂊𠂢𠂢𦥑𠂊𦥑𦥑𦥑𦥑𦥑𦥑𠂊𠂊𠂊𠂊𠂊𦥑𠂊𠂊𠂊𠂊𤇾𠂊𠂊𠂊𠂊𦥑𦥯𦥑𠂊𠂊𠂊𠂊𠂊𠂊𠂊𠂊𠂊𠂊𠂊𠂊𠂊𦥑𦰌𠂊𦥑𠂊𠂊𠂊𠂊𠂊𠂊𠂊𠂊𠂤𠂤𠂊𠂊𦥑𦥑𠂊𠂤𠂊𠂊𠂊𩙿𠂊𠂊𠂊𠂊𠂊𠂊𠂊𠂊𠂊𠂊𠂊𠂊𠂊𠂊𠂊𠂊𠂊𠂊𠂊𠂊𠂊𠂊𠂊𠂊𠂊𠂊𠂊𠂊𠂊𠂊𠂊𠂊𠂊𠂊𠂊𠂊𠂊𠂊𠂊𠂊𠂊𠂊𠂊𠂊𠂊𠂊𠂊𠂊𠂊𠂊𠂊𠂊𠂊𠂊𠂊𠂊𠂊𠂊𠂊𠂊𠂊𠂊𠂊𠂊𠂊𠂊𠂊𠂊𠂊𠂊𠂊𠂊𠂊𠂊𠂊𠂊𠂊𦥑𠂊𦥑𠂊𠂊" kvg:variant="true" kvg:original="勹"><path id="kvg:09f9d-s6" kvg:type="㇒" d="M 57.53,11.13 c 0.05,0.37 0.1,0.94 -0.1,1.47 -1.18,3.09 -7.93,9.88 -17.17,14.03"><animate attributeName="d" begin="5.0s" dur="1.0s" from="M 57.53,11.13 C 57.53,11.13 , 57.53,11.13 , 57.53,11.13 " to="M 57.53,11.13 c 0.05,0.37 0.1,0.94 -0.1,1.47 -1.18,3.09 -7.93,9.88 -17.17,14.03" />
<animate attributeName="d" begin="0s" dur="5.0s" from="M-100,-100" to="M-100,-100" />
</path>
<path id="kvg:09f9d-s7" kvg:type="㇇" d="M 55.69,16.86 C 59.44,16.64 69,15.25 73.8,14.27 c 2.74,-0.56 3.8,0.21 1.83,2.47 -1.75,2 -3.36,3.65 -6.51,7.39"><animate attributeName="d" begin="6.0s" dur="0.5s" from="M 55.69,16.86 C 55.69,16.86 , 55.69,16.86 , 55.69,16.86 " to="M 55.69,16.86 C 59.44,16.64 69,15.25 73.8,14.27 " />
<animate attributeName="d" begin="6.5s" dur="0.5s" from="M 55.69,16.86 C 59.44,16.64 69,15.25 73.8,14.27 c0,0,0,0,0,0,0" to="M 55.69,16.86 C 59.44,16.64 69,15.25 73.8,14.27 c 2.74,-0.56 3.8,0.21 1.83,2.47 -1.75,2 -3.36,3.65 -6.51,7.39" />
<animate attributeName="d" begin="0s" dur="6.0s" from="M-100,-100" to="M-100,-100" />
</path>
</g>
<path id="kvg:09f9d-s8" kvg:type="㇑" d="M 47.77,26.43 c 0.41,0.57 0.47,0.94 0.65,1.69 0.61,2.57 1.02,6.56 1.31,10.12"><animate attributeName="d" begin="7.0s" dur="1.0s" from="M 47.77,26.43 C 47.77,26.43 , 47.77,26.43 , 47.77,26.43 " to="M 47.77,26.43 c 0.41,0.57 0.47,0.94 0.65,1.69 0.61,2.57 1.02,6.56 1.31,10.12" />
<animate attributeName="d" begin="0s" dur="7.0s" from="M-100,-100" to="M-100,-100" />
</path>
<path id="kvg:09f9d-s9" kvg:type="㇕" d="M 50.03,26.81 c 6.96,-1.29 34.07,-3.04 38.49,-3.91 1.62,-0.32 2.52,1.17 2.23,2.54 -1.22,5.57 -1.99,7.56 -3.63,10.5"><animate attributeName="d" begin="8.0s" dur="1.0s" from="M 50.03,26.81 C 50.03,26.81 , 50.03,26.81 , 50.03,26.81 " to="M 50.03,26.81 c 6.96,-1.29 34.07,-3.04 38.49,-3.91 1.62,-0.32 2.52,1.17 2.23,2.54 -1.22,5.57 -1.99,7.56 -3.63,10.5" />
<animate attributeName="d" begin="0s" dur="8.0s" from="M-100,-100" to="M-100,-100" />
</path>
<path id="kvg:09f9d-s10" kvg:type="㇐" d="M 50.28,37.41 c 1.83,0 11.34,-1.4 12.84,-1.4"><animate attributeName="d" begin="9.0s" dur="1.0s" from="M 50.28,37.41 C 50.28,37.41 , 50.28,37.41 , 50.28,37.41 " to="M 50.28,37.41 c 1.83,0 11.34,-1.4 12.84,-1.4" />
<animate attributeName="d" begin="0s" dur="9.0s" from="M-100,-100" to="M-100,-100" />
</path>
<path id="kvg:09f9d-s11" kvg:type="㇐" d="M 73.01,34.67 c 3.01,-0.03 11.9,-0.83 13.7,-0.71"><animate attributeName="d" begin="10.0s" dur="1.0s" from="M 73.01,34.67 C 73.01,34.67 , 73.01,34.67 , 73.01,34.67 " to="M 73.01,34.67 c 3.01,-0.03 11.9,-0.83 13.7,-0.71" />
<animate attributeName="d" begin="0s" dur="10.0s" from="M-100,-100" to="M-100,-100" />
</path>
<path id="kvg:09f9d-s12" kvg:type="㇑" d="M 72.39,26.78 c 0.16,0.82 0,62.069417 -0.16,67.159417"><animate attributeName="d" begin="11.0s" dur="1.0s" from="M 72.39,26.78 C 72.39,26.78 , 72.39,26.78 , 72.39,26.78 " to="M 72.39,26.78 c 0.16,0.82 0,62.069417 -0.16,67.159417" />
<animate attributeName="d" begin="0s" dur="11.0s" from="M-100,-100" to="M-100,-100" />
</path>
<path id="kvg:09f9d-s13" kvg:type="㇟" d="M 63.75,27.71 c 0,10.81 0.09,50.23 -0.02,55.06 C 63.5,92.25 65.86,94.5 81.42,94.5 97.7,94.5 97,93.11 97,85"><animate attributeName="d" begin="12.0s" dur="0.5s" from="M 63.75,27.71 C 63.75,27.71 , 63.75,27.71 , 63.75,27.71 " to="M 63.75,27.71 c 0,10.81 0.09,50.23 -0.02,55.06 " />
<animate attributeName="d" begin="12.5s" dur="0.5s" from="M 63.75,27.71 c 0,10.81 0.09,50.23 -0.02,55.06 c0,0,0,0,0,0,0" to="M 63.75,27.71 c 0,10.81 0.09,50.23 -0.02,55.06 C 63.5,92.25 65.86,94.5 81.42,94.5 97.7,94.5 97,93.11 97,85" />
<animate attributeName="d" begin="0s" dur="12.0s" from="M-100,-100" to="M-100,-100" />
</path>
<g id="kvg:09f9d-g6" kvg:element="⺕" kvg:variant="true" kvg:original="彑"><path id="kvg:09f9d-s14" kvg:type="㇕" d="M 41.6,46.55 c 1.21,0.58 1.38,1.04 2.45,0.8 4.42,-0.97 6.37,-1.72 11.71,-2.47 0.89,-0.13 1.83,1.26 1.59,2.78 -0.62,3.97 -1.07,6.42 -1.9,13.25"><animate attributeName="d" begin="13.0s" dur="1.0s" from="M 41.6,46.55 C 41.6,46.55 , 41.6,46.55 , 41.6,46.55 " to="M 41.6,46.55 c 1.21,0.58 1.38,1.04 2.45,0.8 4.42,-0.97 6.37,-1.72 11.71,-2.47 0.89,-0.13 1.83,1.26 1.59,2.78 -0.62,3.97 -1.07,6.42 -1.9,13.25" />
<animate attributeName="d" begin="0s" dur="13.0s" from="M-100,-100" to="M-100,-100" />
</path>
<path id="kvg:09f9d-s15" kvg:type="㇕" d="M 42.78,53.59 c 1.11,0.56 1.25,0.88 2.25,0.78 6.09,-0.59 40.44,-5.24 45.22,-5.24 1.42,0 2.65,1.68 2.68,3.17 0.08,4.58 -1.84,19.74 -2.6,26.36"><animate attributeName="d" begin="14.0s" dur="1.0s" from="M 42.78,53.59 C 42.78,53.59 , 42.78,53.59 , 42.78,53.59 " to="M 42.78,53.59 c 1.11,0.56 1.25,0.88 2.25,0.78 6.09,-0.59 40.44,-5.24 45.22,-5.24 1.42,0 2.65,1.68 2.68,3.17 0.08,4.58 -1.84,19.74 -2.6,26.36" />
<animate attributeName="d" begin="0s" dur="14.0s" from="M-100,-100" to="M-100,-100" />
</path>
<path id="kvg:09f9d-s16" kvg:type="㇐" d="M 41.92,63 c 0.56,0.09 1.58,0.4 2.25,0.28 7.85,-1.4 11.05,-2.39 11.72,-2.3"><animate attributeName="d" begin="15.0s" dur="1.0s" from="M 41.92,63 C 41.92,63 , 41.92,63 , 41.92,63 " to="M 41.92,63 c 0.56,0.09 1.58,0.4 2.25,0.28 7.85,-1.4 11.05,-2.39 11.72,-2.3" />
<animate attributeName="d" begin="0s" dur="15.0s" from="M-100,-100" to="M-100,-100" />
</path>
</g>
<g id="kvg:09f9d-g7" kvg:element="⺕" kvg:variant="true" kvg:original="彑"><path id="kvg:09f9d-s17" kvg:type="㇕" d="M 42.49,70.05 c 0.99,0.15 1.48,0.48 2.39,0.3 3.71,-0.72 5.99,-1.22 9.66,-1.97 1.28,-0.26 1.53,0.76 1.33,2.28 -0.52,3.97 -0.4,10.42 -1.09,17.25"><animate attributeName="d" begin="16.0s" dur="1.0s" from="M 42.49,70.05 C 42.49,70.05 , 42.49,70.05 , 42.49,70.05 " to="M 42.49,70.05 c 0.99,0.15 1.48,0.48 2.39,0.3 3.71,-0.72 5.99,-1.22 9.66,-1.97 1.28,-0.26 1.53,0.76 1.33,2.28 -0.52,3.97 -0.4,10.42 -1.09,17.25" />
<animate attributeName="d" begin="0s" dur="16.0s" from="M-100,-100" to="M-100,-100" />
</path>
<path id="kvg:09f9d-s18" kvg:type="㇐c" d="M 41.68,79.08 c 0.96,0.35 2.48,0.77 3.57,0.66 9.54,-1 36.12,-3.79 45.35,-4.74"><animate attributeName="d" begin="17.0s" dur="1.0s" from="M 41.68,79.08 C 41.68,79.08 , 41.68,79.08 , 41.68,79.08 " to="M 41.68,79.08 c 0.96,0.35 2.48,0.77 3.57,0.66 9.54,-1 36.12,-3.79 45.35,-4.74" />
<animate attributeName="d" begin="0s" dur="17.0s" from="M-100,-100" to="M-100,-100" />
</path>
<path id="kvg:09f9d-s19" kvg:type="㇐c" d="M 42.5,88.98 c 0.44,0.12 1.25,0.42 1.78,0.35 3.72,-0.5 8.4,-1.44 10.2,-1.74"><animate attributeName="d" begin="18.0s" dur="1.0s" from="M 42.5,88.98 C 42.5,88.98 , 42.5,88.98 , 42.5,88.98 " to="M 42.5,88.98 c 0.44,0.12 1.25,0.42 1.78,0.35 3.72,-0.5 8.4,-1.44 10.2,-1.74" />
<animate attributeName="d" begin="0s" dur="18.0s" from="M-100,-100" to="M-100,-100" />
</path>
</g>
<path id="kvg:09f9d-s20" kvg:type="㇒" d="M 86.38,54.02 c 0.03,0.42 0.06,1.08 -0.05,1.69 -0.64,3.56 -4.31,11.36 -9.33,16.14"><animate attributeName="d" begin="19.0s" dur="1.0s" from="M 86.38,54.02 C 86.38,54.02 , 86.38,54.02 , 86.38,54.02 " to="M 86.38,54.02 c 0.03,0.42 0.06,1.08 -0.05,1.69 -0.64,3.56 -4.31,11.36 -9.33,16.14" />
<animate attributeName="d" begin="0s" dur="19.0s" from="M-100,-100" to="M-100,-100" />
</path>
<path id="kvg:09f9d-s21" kvg:type="㇔" d="M 78.04,58.21 c 2.79,2.05 7.2,8.44 7.9,11.63"><animate attributeName="d" begin="20.0s" dur="1.0s" from="M 78.04,58.21 C 78.04,58.21 , 78.04,58.21 , 78.04,58.21 " to="M 78.04,58.21 c 2.79,2.05 7.2,8.44 7.9,11.63" />
<animate attributeName="d" begin="0s" dur="20.0s" from="M-100,-100" to="M-100,-100" />
</path>
</g>
</g>
</svg>