<?xml version="1.0" encoding="UTF-8"?>
<!--
AniKanjiVG is licensed by CC-BY-SA Paul C. Sommerhoff (https://bitbucket.org/sommerhoff/anikanjivg).
AniKanjiVG uses KanjiVG which is licensed by CC-BY-SA Ulrich Apel (http://kanjivg.tagaini.net).
See also http://creativecommons.org/licenses/by-sa/3.0/
-->
<svg xmlns:kvg='http://kanjivg.tagaini.net' xmlns='http://www.w3.org/2000/svg' width='109' height='109' viewBox='0 0 109 109' style='fill:none;stroke:#000000;stroke-width:3;stroke-linecap:round;stroke-linejoin:round;' id="kvg:kanji_0f9a8"><g id="kvg:0f9a8" kvg:element="令"><g id="kvg:0f9a8-g1" kvg:element="人" kvg:position="top" kvg:radical="general"><path id="kvg:0f9a8-s1" kvg:type="㇒" d="M49.62,13.25c0.11,0.94,0.38,2.48-0.22,3.77c-4.15,8.86-15.15,25.23-36.65,37.08"><animate attributeName="d" begin="0.0s" dur="0.5s" from="M49.62,13.25C49.62,13.25,49.62,13.25,49.62,13.25" to="M49.62,13.25c0.11,0.94,0.38,2.48-0.22,3.77" />
<animate attributeName="d" begin="0.5s" dur="0.5s" from="M49.62,13.25c0.11,0.94,0.38,2.48-0.22,3.77c0,0,0,0,0,0,0" to="M49.62,13.25c0.11,0.94,0.38,2.48-0.22,3.77c-4.15,8.86-15.15,25.23-36.65,37.08" />
</path>
<path id="kvg:0f9a8-s2" kvg:type="㇏" d="M50.54,16.55c6.13,4.35,24.99,20.22,33.98,27.33c3.22,2.54,5.6,4.12,9.73,5.37"><animate attributeName="d" begin="1.0s" dur="0.5s" from="M50.54,16.55C50.54,16.55,50.54,16.55,50.54,16.55" to="M50.54,16.55c6.13,4.35,24.99,20.22,33.98,27.33" />
<animate attributeName="d" begin="1.5s" dur="0.5s" from="M50.54,16.55c6.13,4.35,24.99,20.22,33.98,27.33c0,0,0,0,0,0,0" to="M50.54,16.55c6.13,4.35,24.99,20.22,33.98,27.33c3.22,2.54,5.6,4.12,9.73,5.37" />
<animate attributeName="d" begin="0s" dur="1.0s" from="M-100,-100" to="M-100,-100" />
</path>
</g>
<g id="kvg:0f9a8-g2" kvg:position="bottom"><g id="kvg:0f9a8-g3" kvg:element="一"><path id="kvg:0f9a8-s3" kvg:type="㇐" d="M 38.590625,42.910833 c 1.76,0.72 3.84,0.36 5.65,0.14 5.4,-0.66 13.08,-1.76 18.48,-2.24 1.88,-0.17 3.54,-0.23 5.37,0.21"><animate attributeName="d" begin="2.0s" dur="1.0s" from="M 38.590625,42.910833 C 38.590625,42.910833 , 38.590625,42.910833 , 38.590625,42.910833 " to="M 38.590625,42.910833 c 1.76,0.72 3.84,0.36 5.65,0.14 5.4,-0.66 13.08,-1.76 18.48,-2.24 1.88,-0.17 3.54,-0.23 5.37,0.21" />
<animate attributeName="d" begin="0s" dur="2.0s" from="M-100,-100" to="M-100,-100" />
</path>
</g>
<g id="kvg:0f9a8-g4" kvg:element="卩" kvg:original="マ"><path id="kvg:0f9a8-s4" kvg:type="㇆" d="M 31.464375,53.641042 c 0.61,0.15 3,1 4.21,0.87 10.329583,-0.937708 28.549375,-2.998125 38.130833,-4.17 1.516086,-0.185427 4.278829,-0.290121 3.95,2.89 -0.431171,4.169879 -2.680149,16.919928 -6,23.84 -1.890149,3.939928 -3.18,3.45 -6.23,0.46"><animate attributeName="d" begin="3.0s" dur="1.0s" from="M 31.464375,53.641042 C 31.464375,53.641042 , 31.464375,53.641042 , 31.464375,53.641042 " to="M 31.464375,53.641042 c 0.61,0.15 3,1 4.21,0.87 10.329583,-0.937708 28.549375,-2.998125 38.130833,-4.17 1.516086,-0.185427 4.278829,-0.290121 3.95,2.89 -0.431171,4.169879 -2.680149,16.919928 -6,23.84 -1.890149,3.939928 -3.18,3.45 -6.23,0.46" />
<animate attributeName="d" begin="0s" dur="3.0s" from="M-100,-100" to="M-100,-100" />
</path>
<path id="kvg:0f9a8-s5" kvg:type="㇑" d="M 44.769166,53.809375 c 0.87,0.87 1.8,2 1.8,3.5 0,7.36 -0.04,24.53 -0.1,34.13 -0.02,3.3 -0.05,5.71 -0.08,6.51"><animate attributeName="d" begin="4.0s" dur="1.0s" from="M 44.769166,53.809375 C 44.769166,53.809375 , 44.769166,53.809375 , 44.769166,53.809375 " to="M 44.769166,53.809375 c 0.87,0.87 1.8,2 1.8,3.5 0,7.36 -0.04,24.53 -0.1,34.13 -0.02,3.3 -0.05,5.71 -0.08,6.51" />
<animate attributeName="d" begin="0s" dur="4.0s" from="M-100,-100" to="M-100,-100" />
</path>
</g>
</g>
</g>
</svg>